<?xml version="1.0" encoding="utf-8"?>
<!-- Generator: Adobe Illustrator 23.0.1, SVG Export Plug-In . SVG Version: 6.00 Build 0)  -->
<svg version="1.1" id="Data_Analysis" xmlns="http://www.w3.org/2000/svg" xmlns:xlink="http://www.w3.org/1999/xlink" x="0px"
	 y="0px" viewBox="0 0 996.8 702.6" style="enable-background:new 0 0 996.8 702.6;" xml:space="preserve">
<style type="text/css">
	.st0{fill:#EEF4FC;}
	.st1{fill:#1067DB;}
	.st2{fill:#FFFFFF;}
	.st3{fill:#FF5722;}
	.st4{fill:#002DAA;}
	.st5{fill:#B3CDFA;}
	.st6{fill:#70A4E9;}
	.st7{fill:none;stroke:#002DAA;stroke-linecap:round;stroke-miterlimit:10;}
	.st8{opacity:0.57;fill:#B3CDFA;}
	.st9{fill:none;stroke:#002DAA;stroke-width:2;stroke-linecap:round;stroke-miterlimit:10;}
	.st10{fill:#0D2381;}
	.st11{opacity:0.5;fill:#001755;}
	.st12{opacity:0.3;fill:#B3CDFA;}
	.st13{opacity:0.7;fill:#002280;}
	.st14{opacity:0.2;fill:#001755;}
	.st15{fill:#002280;}
</style>
<g id="XMLID_5_">
	<g id="XMLID_505_">
		<path class="st0" d="M934.5,311.7c-6.6-16.7-16.3-32.9-29.3-48.1c-29.9-34.8-75.1-56.5-121-55.7c-65.6,1.1-124.6,1.9-180.3-39.6
			c-50.4-37.5-117-66.6-178.9-78.8c-44.3-8.8-92.6-5.8-131.3,17.6c-40.2,24.3-76,59.8-68.9,109.4c3.7,25.5,11.8,52.3,2.4,76.4
			c-12.3,31.7-49.1,45.2-82.2,53.3c-33,8-70,16.4-88.9,44.7c-18.3,27.4-12.5,65.6,5.5,93.2c17.9,27.7,45.7,47.2,72.9,65.8
			c22.6,15.5,42.7,31.7,62.4,50.6c6.8,6.6,16.4,13.8,21.4,21.8c6.3,10.2,4,24.7,13.1,33.2c9.5,8.8,21.1,2.8,33.8,2.9
			c42.7,0.2,85.4,0.3,128.1,0.5c101.6,0.4,203.3,0.8,304.9,1.2c0,0,0,0,0,0c13.8,0.1,29.4,3.8,43.1,1.5c19.1-3.1,12.7-3,23.1-17.4
			c13.7-19.1,31-31.3,50.2-44.6C902.4,539.5,975.3,414.7,934.5,311.7z"/>
	</g>
	<g id="XMLID_1093_">
		<path id="XMLID_1085_" class="st1" d="M907.3,526.6H639.5c-3.5,0-5.9-2.8-5.4-6.3l19-134.4c0.5-3.5,3.7-6.3,7.2-6.3h267.9
			c3.5,0,5.9,2.8,5.4,6.3l-19,134.4C914.1,523.8,910.8,526.6,907.3,526.6z"/>
		<polygon id="XMLID_1083_" class="st2" points="681.4,399.7 665.1,399.7 666.3,391.5 682.6,391.5 		"/>
		<polygon id="XMLID_1082_" class="st2" points="912.1,413 786.8,413 787.9,404.7 913.2,404.7 		"/>
		<polygon id="XMLID_1081_" class="st2" points="908.8,436.3 783.5,436.3 784.6,428.1 909.9,428.1 		"/>
		<polygon id="XMLID_1080_" class="st2" points="905.5,459.7 780.2,459.7 781.3,451.4 906.6,451.4 		"/>
		<polygon id="XMLID_1079_" class="st2" points="848.7,483 776.9,483 778,474.8 849.8,474.8 		"/>
		<polygon id="XMLID_1078_" class="st2" points="678.2,422.6 661.9,422.6 663.1,414.3 679.4,414.3 		"/>
		<polygon id="XMLID_1077_" class="st2" points="675,445.5 658.7,445.5 659.8,437.2 676.1,437.2 		"/>
		<polygon id="XMLID_1076_" class="st2" points="671.7,468.3 655.4,468.3 656.6,460 672.9,460 		"/>
		<polygon id="XMLID_1075_" class="st2" points="668.5,491.2 652.2,491.2 653.4,482.9 669.7,482.9 		"/>
		<polygon id="XMLID_1074_" class="st2" points="665.3,514 649,514 650.1,505.7 666.4,505.7 		"/>
		<g id="XMLID_820_">
			<path id="XMLID_1072_" class="st2" d="M735.6,406.5l-5.4,38.4l0,0l23.2,27.2c7.9-6.9,13.6-16.5,15.1-27.1c0,0,0-0.1,0-0.1
				C771.5,423.7,756.8,406.5,735.6,406.5z"/>
			<path id="XMLID_1071_" class="st3" d="M705,417.7c-7.9,6.9-13.6,16.5-15.1,27.1l38.4,0.1l0,0l5.4-38.4
				C723.1,406.5,712.9,410.8,705,417.7z"/>
			<path id="XMLID_1069_" class="st4" d="M728,446.8L728,446.8l-38.4-0.1c0,0,0,0,0,0.1c-3,21.2,11.8,38.4,33,38.4
				c10.6,0,20.8-4.3,28.7-11.2L728,446.8z"/>
		</g>
	</g>
	<g id="XMLID_1053_">
		<path id="XMLID_1070_" class="st2" d="M860.5,369.2l-196.4,0c-5,0-8.5-4-7.8-9l15.4-106.8c0.7-5,5.4-9,10.4-9l196.4,0
			c5,0,8.5,4,7.8,9l-15.4,106.8C870.2,365.2,865.5,369.2,860.5,369.2z"/>
		<polygon id="XMLID_1068_" class="st5" points="777.2,266 690.9,265.9 692,258.3 778.3,258.4 		"/>
		<polygon id="XMLID_1067_" class="st5" points="731.7,282.3 688.5,282.3 689.6,274.7 732.7,274.7 		"/>
		<path id="XMLID_1065_" class="st4" d="M669,350.2c8.2-9.2,17.3-21.1,26.4-29.5c3.2-3,6.8-6,10.9-6.6c5.8-0.8,10.2,3.4,13.9,7.3
			c4.4,4.7,9.2,9.4,15.8,10.6c8.1,1.5,17-2.5,25-6.5c7-3.5,14.1-7.3,19.6-13c5.2-5.5,8.8-12.7,15.1-16.9c1.1-0.7,2.3-1.4,3.6-1.5
			c2.2-0.3,4.1,1,5.4,2.6c3.4,4,4,9.8,5.3,15c1.3,5.2,4,10.7,9.3,11.9c7,1.6,14.4-4.7,19-11c4.6-6.4,8.5-13.8,15.5-17.5
			c2.1-1.1,4.8-1.8,6.6-0.6c2,1.3,2,4.1,1.9,6.6c-0.5,10.3-1.1,20.6-1.6,31c-0.2,4.3-1.4,14.6-4.4,18.1L669,350.2z"/>
	</g>
	<g id="XMLID_1000_">
		<path id="XMLID_998_" class="st1" d="M146.9,486.1c0,0-76.8-18.4-79.6-85.1c0,0,14.6,18.5,35.3,23
			C102.6,423.9,149.2,446.1,146.9,486.1z"/>
		<path id="XMLID_997_" class="st1" d="M233.6,462c0,0,9.6,44.6-52.3,52.3c0,0-9.3-13.8,16.6-30c4.1-2.6,8.7-4,13.5-4.8
			C217.5,478.4,227.4,474.8,233.6,462z"/>
		<path id="XMLID_995_" class="st6" d="M197.9,486.5c4.1-2.6,8.7-4,13.5-4.8c6.1-1,16-4.7,22.2-17.4c0,0,0.4,2,0.5,5.3
			c0.1-4.5-0.5-7.5-0.5-7.5c-6.2,12.8-16.1,16.4-22.2,17.4c-4.8,0.8-9.4,2.2-13.5,4.8c-16.2,10.2-18.6,19.4-18.1,24.9
			C180.1,503.5,183.7,495.4,197.9,486.5z"/>
		<path id="XMLID_994_" class="st1" d="M184.4,379.6c0,0-66.5,66.4-19.5,123.3c0,0,14.3-7.3,23.1-31.6c5.8-16,5.9-33.5,1.4-49.9
			C186.8,412.1,184.3,398.1,184.4,379.6z"/>
		<path id="XMLID_993_" class="st6" d="M189.4,421.4c-2.6-9.3-5.1-23.3-4.9-41.8c0,0,0.1-0.3-2.5,2.7c0.4,15.7,2.4,26.9,4.6,35.3
			c4.5,16.4,5.7,38.1-0.1,54.1c-6.5,18.1-17,28-21.5,31.2c0.6,0.8-0.7-0.8,0,0c0,0,14.3-7.3,23.1-31.6
			C193.8,455.3,193.9,437.9,189.4,421.4z"/>
		<path id="XMLID_992_" class="st1" d="M114.7,478.5c0,0-25.8-12.6-45.3,22.4c0,0,35-15.7,36.5,4.3c0,0,8.3,25.1,29.8,29.2
			C135.7,534.4,148.2,487.8,114.7,478.5z"/>
		<path id="XMLID_991_" class="st6" d="M114.2,480.7c29.2,8.1,23.5,44.4,21.5,53.7c0,0,0,0,0,0c0,0,12.5-46.6-21-55.9
			c0,0-25.8-12.6-45.3,22.4c0,0,0.4-0.2,1-0.4C89.7,468.7,114.2,480.7,114.2,480.7z"/>
		<path id="XMLID_981_" class="st7" d="M174.6,403.6c-3.9,25.6-6.3,51.4-7.1,77.3c-0.2,7.3-0.4,14.7-1.5,21.9
			c-4.4,27.6-23.9,52.3-22.4,80.3"/>
		<path id="XMLID_988_" class="st7" d="M216.9,486.9c-10.6,15.3-31.6,19.5-44.8,32.5c-13.6,13.4-16.9,34.5-14.2,53.4"/>
		<path id="XMLID_989_" class="st7" d="M76.9,423.3c4,10.5,13.7,17.8,23.6,23.3c9.9,5.5,20.5,9.8,29,17.2
			c9.6,8.3,15.9,20.3,17.4,32.9c1.2,10.3-0.7,20.7-1.7,31c-1,10.3-1.1,21.2,3.6,30.5"/>
		<path id="XMLID_990_" class="st7" d="M82.4,490.9c5.3-1.4,10.9-2,16.4-1.6c3.5,0.2,7.1,0.8,9.8,2.9c2.1,1.6,3.6,4,5,6.3
			c10,16.8,20.1,33.6,30.1,50.3c5.6,9.3,11.3,19.1,12.6,29.9"/>
		<path id="XMLID_972_" class="st2" d="M184.3,661h-51.5c-6,0-11.1-4.4-12-10.4l-13.6-94.9h99.7l-10.6,94.5
			C195.6,656.4,190.4,661,184.3,661z"/>
		<polygon id="XMLID_950_" class="st8" points="198.4,631.4 205.9,564.9 108.5,564.9 109.5,572.1 		"/>
		<path id="XMLID_1001_" class="st9" d="M184.3,661h-51.5c-6,0-11.1-4.4-12-10.4l-13.6-94.9h99.7l-10.6,94.5
			C195.6,656.4,190.4,661,184.3,661z"/>
		<rect id="XMLID_888_" x="100.6" y="551.5" class="st2" width="112.8" height="15.3"/>
		<rect id="XMLID_999_" x="100.6" y="551.5" class="st9" width="112.8" height="15.3"/>
	</g>
	<path id="XMLID_204_" class="st4" d="M385,89.4c-1.6,0-3.3,1.3-3.6,2.9c-0.4,1.6,0.6,2.9,2.2,2.9c1.6,0,3.3-1.3,3.6-2.9
		C387.6,90.8,386.6,89.4,385,89.4z"/>
	<path id="XMLID_56_" class="st4" d="M787.3,225.7c-1.2,0-2.3,0.9-2.6,2.1c-0.3,1.2,0.4,2.1,1.6,2.1s2.3-0.9,2.6-2.1
		C789.2,226.6,788.4,225.7,787.3,225.7z"/>
	<path id="XMLID_322_" class="st4" d="M730.8,118c-1.6,0-3.3,1.3-3.6,2.9c-0.4,1.6,0.6,2.9,2.2,2.9c1.6,0,3.3-1.3,3.6-2.9
		C733.5,119.3,732.5,118,730.8,118z"/>
	<path id="XMLID_98_" class="st4" d="M135,187.4c-1.6,0-3.3,1.3-3.6,2.9c-0.4,1.6,0.6,2.9,2.2,2.9c1.6,0,3.3-1.3,3.6-2.9
		C137.6,188.7,136.6,187.4,135,187.4z"/>
	<path id="XMLID_1103_" class="st4" d="M806.6,552.8c-1.6,0-3.3,1.3-3.6,2.9c-0.4,1.6,0.6,2.9,2.2,2.9c1.6,0,3.3-1.3,3.6-2.9
		C809.2,554.2,808.2,552.8,806.6,552.8z"/>
	<path id="XMLID_219_" class="st4" d="M519.1,117.9c-1.6,0-3.3,1.3-3.7,3c-0.4,1.6,0.6,3,2.2,3c1.6,0,3.3-1.3,3.7-3
		C521.7,119.3,520.7,117.9,519.1,117.9z"/>
	<path id="XMLID_103_" class="st3" d="M851,177.2c-2.4,0-4.7,1.9-5.3,4.3c-0.6,2.4,0.9,4.3,3.3,4.3c2.4,0,4.7-1.9,5.3-4.3
		C854.9,179.1,853.4,177.2,851,177.2z"/>
	<path id="XMLID_1101_" class="st3" d="M68.2,210.5c-2,0-4.1,1.6-4.6,3.7c-0.5,2,0.8,3.7,2.8,3.7c2,0,4.1-1.6,4.6-3.7
		C71.5,212.1,70.2,210.5,68.2,210.5z"/>
	<path id="XMLID_217_" class="st1" d="M479.5,64.7c-1.9,0-3.7,1.5-4.2,3.4c-0.4,1.9,0.7,3.4,2.6,3.4c1.9,0,3.7-1.5,4.2-3.4
		C482.5,66.2,481.4,64.7,479.5,64.7z"/>
	<path id="XMLID_1104_" class="st1" d="M756,594.8c-1.9,0-3.7,1.5-4.2,3.4c-0.4,1.9,0.7,3.4,2.6,3.4s3.7-1.5,4.2-3.4
		C759,596.3,757.8,594.8,756,594.8z"/>
	<path id="XMLID_79_" class="st1" d="M931,249.3c-1.9,0-3.7,1.5-4.2,3.4c-0.4,1.9,0.7,3.4,2.6,3.4c1.9,0,3.7-1.5,4.2-3.4
		C934,250.8,932.8,249.3,931,249.3z"/>
	<path id="XMLID_233_" class="st1" d="M236.6,83.7c-2.6,0-5.3,2.1-5.9,4.8c-0.6,2.6,1,4.8,3.6,4.8c2.6,0,5.3-2.1,5.9-4.8
		C240.8,85.9,239.2,83.7,236.6,83.7z"/>
	<path id="XMLID_411_" class="st3" d="M720.7,557.7c-1,0-1.9,0.8-2.2,1.7c-0.2,1,0.4,1.7,1.3,1.7s1.9-0.8,2.2-1.7
		C722.2,558.5,721.6,557.7,720.7,557.7z"/>
	<path id="XMLID_101_" class="st3" d="M289.9,123.6c-1,0-1.9,0.8-2.2,1.7c-0.2,1,0.4,1.7,1.3,1.7c1,0,1.9-0.8,2.2-1.7
		C291.4,124.4,290.8,123.6,289.9,123.6z"/>
	<path id="XMLID_1100_" class="st1" d="M83.5,323c-2.6,0-5.3,2.1-5.9,4.8c-0.6,2.6,1,4.8,3.6,4.8c2.6,0,5.3-2.1,5.9-4.8
		C87.8,325.1,86.2,323,83.5,323z"/>
	<g id="XMLID_769_">
		<g id="XMLID_771_">
			<path id="XMLID_776_" class="st1" d="M190.7,121.5l61.5-0.6c4.6,0,8.4,4.3,7.7,8.8L249,193.3c-0.5,2.9-2.9,5-6,5l-61.6,0.7l0,0
				c-4.6,0-8.4-4.4-7.6-8.8l10.8-63.7C185.2,123.5,187.6,121.5,190.7,121.5z"/>
			<path id="XMLID_772_" class="st2" d="M201.3,154.9l-5,0c-1,0-2,0.8-2.2,1.8l-1.2,6.4c-0.2,1,0.5,1.8,1.5,1.8l3.9,0
				c0.6,0,1.1,0.4,1.2,1c0.1,0.4,0.2,0.7,0.3,1.1c0.2,0.6-0.1,1.3-0.6,1.7l-3.3,2.8c-0.8,0.7-1.1,1.9-0.5,2.6l3.7,4.5
				c0.6,0.7,1.7,0.7,2.6,0l3.3-2.8c0.5-0.4,1.2-0.6,1.7-0.3c0.4,0.2,0.8,0.3,1.1,0.5c0.5,0.2,0.8,0.8,0.7,1.4l-0.7,3.9
				c-0.2,1,0.5,1.8,1.5,1.8h6.4c1,0,2-0.8,2.2-1.8l0.7-3.9c0.1-0.6,0.6-1.2,1.3-1.4c0.4-0.1,0.8-0.3,1.2-0.5
				c0.6-0.3,1.3-0.2,1.7,0.3l2.3,2.8c0.6,0.7,1.7,0.7,2.6,0l5.3-4.5c0.8-0.7,1-1.9,0.5-2.6l-2.3-2.8c-0.4-0.4-0.4-1.1,0-1.7
				c0.2-0.4,0.5-0.8,0.7-1.2c0.3-0.6,1-1,1.6-1l3.9,0c1,0,2-0.8,2.2-1.8l1.1-6.4c0.2-1-0.5-1.8-1.5-1.8l-3.9,0c-0.6,0-1.1-0.4-1.2-1
				c-0.1-0.4-0.2-0.7-0.3-1.1c-0.2-0.6,0.1-1.3,0.6-1.7l3.3-2.8c0.8-0.7,1.1-1.9,0.5-2.6l-3.7-4.5c-0.6-0.7-1.7-0.7-2.6,0l-3.3,2.8
				c-0.5,0.4-1.2,0.6-1.7,0.3c-0.4-0.2-0.8-0.3-1.1-0.5c-0.5-0.2-0.8-0.8-0.7-1.4l0.7-3.9c0.2-1-0.5-1.8-1.5-1.8l-6.4,0
				c-1,0-2,0.8-2.2,1.8l-0.7,3.9c-0.1,0.6-0.6,1.2-1.3,1.4c-0.4,0.1-0.8,0.3-1.2,0.4c-0.6,0.3-1.3,0.2-1.7-0.3l-2.3-2.8
				c-0.6-0.7-1.7-0.7-2.6,0l-5.3,4.5c-0.8,0.7-1.1,1.9-0.5,2.6l2.3,2.8c0.4,0.4,0.4,1.1,0,1.7C202,153.7,201.4,154.9,201.3,154.9z
				 M225.4,161.5c-2.1,5.6-8.5,8.8-13.4,6.8c-3.7-1.5-5.3-5.8-3.8-10c2.1-5.6,8.5-8.8,13.4-6.8C225.4,153.1,227,157.4,225.4,161.5z"
				/>
		</g>
	</g>
	<g id="XMLID_1530_">
		<g id="XMLID_1539_">
			<path id="XMLID_1548_" class="st4" d="M565.1,185.2h93.8c5.5,0,9.8-3.6,10.7-8.9l12.5-72.5c1.4-7.9-5.5-15.7-13.6-15.7h-93.8
				c-5.5,0-9.8,3.6-10.7,8.9l-12.5,72.5C550.1,177.4,556.9,185.2,565.1,185.2z"/>
		</g>
		<g id="XMLID_1534_">
			<path id="XMLID_1536_" class="st2" d="M639.7,150.5l-14.2-5.1l0.5-3.4l-5.3,3.1h-3.6l-4.3-3.1l-0.5,3.4l-15.7,5.1
				c-1.2,0.4-2,1.4-2.2,2.6l-1.9,12.2h46.8l1.9-12.2C641.4,151.9,640.8,150.9,639.7,150.5z"/>
			<path id="XMLID_1535_" class="st2" d="M624.8,108.1c-6.2,0-12.1,5.1-13.1,11.3l-1,13.6c-0.2,1.8,0.7,3.5,2.2,4.3l0.6,0.5l4.3,3.1
				h3.6l5.3-3.1l0.9-0.5c1.8-0.8,3.1-2.5,3.5-4.3l3.2-13.6C635.4,113.1,631.1,108.1,624.8,108.1z"/>
		</g>
	</g>
	<g id="XMLID_664_">
		<path id="XMLID_691_" class="st2" d="M717.6,317.6L717.6,317.6l-11.4-11.8c0,0-1,2.7-2.4,6.2c-0.1,0-0.2,0-0.4,0H288.7
			c-10,0-18.6,7.2-20.2,17.1l-52.2,223.4c-1.7,22.7,12.3,32.2,25,32.2h422.8c10,0,18.6-7.2,20.2-17.1l39.5-231.6
			C724.9,328.8,722.3,322.1,717.6,317.6z"/>
		<path id="XMLID_663_" class="st9" d="M717.6,317.6L717.6,317.6l-11.4-11.8c0,0-1,2.7-2.4,6.2c-0.1,0-0.2,0-0.4,0H288.7
			c-10,0-18.6,7.2-20.2,17.1l-52.2,223.4c-1.7,22.7,12.3,32.2,25,32.2h422.8c10,0,18.6-7.2,20.2-17.1l39.5-231.6
			C724.9,328.8,722.3,322.1,717.6,317.6z"/>
		<path id="XMLID_662_" class="st4" d="M651.4,571.6H236.7c-12.7,0-22.4-11.4-20.2-24L255.9,316c1.7-9.9,10.2-17.1,20.2-17.1h414.8
			c12.7,0,22.4,11.4,20.2,24l-39.5,231.6C670,564.4,661.5,571.6,651.4,571.6z"/>
		<path id="XMLID_674_" class="st10" d="M684.9,329.4c-1,5.6-5.8,9.3-10.8,8.4c-5-0.9-8.2-6.1-7.2-11.7c1-5.6,5.8-9.3,10.8-8.4
			C682.6,318.6,685.9,323.8,684.9,329.4z"/>
	</g>
	<line id="XMLID_22_" class="st9" x1="26.6" y1="661" x2="955.6" y2="661"/>
	<path id="XMLID_667_" class="st11" d="M276.2,298.9c-10,0-18.6,7.2-20.2,17.1l-8,46.7h120.3c2.2,0,4.4-1.8,4.7-4l10.5-59.8H276.2z"
		/>
	<g id="XMLID_648_">
		<path id="XMLID_798_" class="st2" d="M351.3,348.3H109.9c-2.4,0-4-1.9-3.6-4.4l21.5-122.4c0.4-2.4,2.7-4.4,5.1-4.4h241.4
			c2.4,0,4,1.9,3.6,4.4l-21.5,122.4C356,346.3,353.7,348.3,351.3,348.3z"/>
		<polygon id="XMLID_796_" class="st5" points="152.4,235.2 137.9,235.2 139.2,227.8 153.7,227.8 		"/>
		<polygon id="XMLID_795_" class="st5" points="148.9,255.5 134.3,255.5 135.6,248.2 150.1,248.2 		"/>
		<polygon id="XMLID_757_" class="st5" points="145.3,275.9 130.7,275.9 132,268.5 146.6,268.5 		"/>
		<polygon id="XMLID_753_" class="st5" points="141.7,296.3 127.2,296.3 128.5,288.9 143,288.9 		"/>
		<polygon id="XMLID_750_" class="st5" points="138.1,316.7 123.6,316.7 124.9,309.3 139.4,309.3 		"/>
		<polygon id="XMLID_749_" class="st5" points="134.6,337 120,337 121.3,329.7 135.8,329.7 		"/>
		<polygon id="XMLID_748_" class="st5" points="350.3,265.6 274.3,265.6 275.6,258.2 351.6,258.2 		"/>
		<polygon id="XMLID_747_" class="st5" points="346.7,286.4 270.7,286.4 272,279 348,279 		"/>
		<polygon id="XMLID_738_" class="st5" points="310.6,307.2 267,307.2 268.3,299.8 311.9,299.8 		"/>
		<path id="XMLID_694_" class="st12" d="M221.5,239.1L221.5,239.1c-13,0-25.6,5.3-35.6,13.8c-10,8.5-17.3,20.2-19.6,33.2
			C161.8,312,179.1,333,205,333c13,0,25.6-5.3,35.6-13.8c10-8.5,17.3-20.2,19.6-33.2v0C264.7,260.1,247.4,239.1,221.5,239.1z
			 M232.8,309.8c-7.1,6.1-16.2,9.8-25.5,9.8c-18.5,0-30.9-15-27.7-33.6c1.6-9.3,6.9-17.7,14-23.7c7.1-6.1,16.2-9.8,25.5-9.8l0,0
			c18.5,0,30.9,15,27.7,33.6v0C245.2,295.3,240,303.7,232.8,309.8z"/>
		<g id="XMLID_672_">
			<path id="XMLID_677_" class="st1" d="M210.4,249.1L210.4,249.1l2.3-13.4h0c-13,0-25.6,5.3-35.6,13.8l7.8,9.4
				C192.1,252.9,201.1,249.1,210.4,249.1z"/>
			<path id="XMLID_676_" class="st4" d="M212.7,235.8l-2.3,13.4c18.5,0,30.9,15,27.7,33.6v0c-1.6,9.3-6.9,17.7-14,23.7l7.8,9.4
				c10-8.5,17.3-20.2,19.6-33.2v0C256,256.8,238.7,235.8,212.7,235.8z"/>
			<path id="XMLID_675_" class="st5" d="M170.9,282.7c1.6-9.3,6.9-17.7,14-23.7l-7.8-9.4c-10,8.5-17.3,20.2-19.6,33.2l0,0H170.9
				L170.9,282.7z"/>
			<path id="XMLID_673_" class="st3" d="M224.1,306.5c-7.1,6.1-16.2,9.8-25.5,9.8c-18.5,0-30.9-15-27.7-33.6h-13.4
				c-4.5,25.9,12.8,46.9,38.7,46.9c13,0,25.6-5.3,35.6-13.8L224.1,306.5z"/>
		</g>
	</g>
	<g id="XMLID_647_">
		<g id="XMLID_812_">
			<path id="XMLID_825_" class="st13" d="M247.5,571.1l23.2-161.9c1.9-0.2,3.6-1.7,3.9-3.7c0.3-2.1-1.2-3.8-3.2-3.8
				c-2.1,0-4,1.7-4.3,3.8c-0.3,1.9,1,3.5,2.8,3.7l-23.2,161.9H247.5z"/>
			<path id="XMLID_849_" class="st13" d="M324.9,571.1l20.7-144.8c1.9-0.2,3.6-1.7,3.9-3.7c0.3-2.1-1.2-3.8-3.2-3.8
				c-2.1,0-4,1.7-4.3,3.8c-0.3,1.9,1,3.5,2.8,3.7l-20.7,144.8H324.9z"/>
			<path id="XMLID_851_" class="st13" d="M664.8,354.8c-2.1,0-4,1.7-4.3,3.8c-0.3,1.9,1,3.5,2.8,3.7l-29.8,208.9h0.8l29.8-208.9
				c1.9-0.2,3.6-1.7,3.9-3.7C668.3,356.5,666.9,354.8,664.8,354.8z"/>
			<path id="XMLID_853_" class="st13" d="M556.9,571.1l27.3-190.9c1.9-0.2,3.6-1.7,3.9-3.7c0.3-2.1-1.2-3.8-3.2-3.8
				c-2.1,0-4,1.7-4.3,3.8c-0.3,1.9,1,3.5,2.8,3.7l-27.3,190.9H556.9z"/>
			<path id="XMLID_854_" class="st13" d="M479.5,571.1l34.9-244.5c1.9-0.2,3.6-1.7,3.9-3.7c0.3-2.1-1.2-3.8-3.2-3.8
				c-2.1,0-4,1.7-4.3,3.8c-0.3,1.9,1,3.5,2.8,3.7l-34.9,244.5H479.5z"/>
			<path id="XMLID_855_" class="st13" d="M402.2,571.1l31.1-217.5c1.9-0.2,3.6-1.7,3.9-3.7c0.3-2.1-1.2-3.8-3.2-3.8
				c-2.1,0-4,1.7-4.3,3.8c-0.3,1.9,1,3.5,2.8,3.7l-31.1,217.5H402.2z"/>
		</g>
		<path id="XMLID_819_" class="st14" d="M700.5,383.9l0.7-4.8c-11,5.1-21.7,11.3-31.8,18.6c-9.9,7.2-18.8,15.8-28.6,23.1
			c-19.6,14.4-39.4,15.5-57.6,4.5c-36.9-22.2-52.9-79.6-110.4-58.5c-56.6,20.7-79.7,89.2-136.6,108.6c-32.5,11.1-49.3-6.2-70.8-22
			c-9.7-7.1-19.4-10.7-30.1-10.4l-0.7,4.3c20.6-0.1,33.3,16.3,51.1,27.7c16.3,10.4,35.9,10.7,55.9,2.6
			c55.6-22.3,78.9-91.3,136.9-108.5c63.7-18.9,71.8,63.7,126,68.2c20.5,1.7,36.8-11.6,52.7-24.9
			C670.8,400.8,685.2,391.4,700.5,383.9z"/>
		<g id="XMLID_813_">
			<path id="XMLID_814_" class="st3" d="M715.6,357.6c-15.3,6-30.1,13.9-43.8,23.8c-9.9,7.2-18.8,15.8-28.6,23.1
				c-19.6,14.4-39.4,15.5-57.6,4.5c-36.9-22.2-52.9-79.6-110.4-58.5c-56.6,20.7-79.7,89.2-136.6,108.6c-32.5,11.1-49.3-6.2-70.8-22
				c-16-11.8-32.2-14-53-4.8c-2.5,1.1-1,4.6,1.6,3.5c34.2-15.1,48.6,8,71.7,22.8c16.3,10.4,35.9,10.7,55.9,2.6
				c55.6-22.3,78.9-91.3,136.9-108.5c63.7-18.9,71.8,63.7,126,68.2c20.5,1.7,36.8-11.6,52.7-24.9c17.1-14.4,35.5-25.7,55.2-33.8
				C723.8,358.5,724.3,354.2,715.6,357.6z"/>
		</g>
	</g>
	<g id="XMLID_658_">
		<path id="XMLID_653_" class="st2" d="M220.1,401h3.9c9,0,16.4,7.3,16.4,16.4v35.3l26,53.6l21.4,43.8c2,4,2.2,8.7,0.8,12.9
			l-9.3,26.8c0,4.9-2.7,66.1-5.3,70.3h-2.5l-90.1,0.5l36.5-90.1c2.3-7.5,2.3-15.6,0.1-23.2l-16.9-57.8c-1.7-6-1-12.4,2-17.9
			l10.3-18.5l-0.9-14.3L220.1,401z"/>
		<g id="XMLID_669_">
			<g id="XMLID_670_">
				<path class="st5" d="M213.2,450.2c0-1.1,0-2.3-0.1-3.4c0-0.6-0.1-1.1-0.2-1.7L213.2,450.2z"/>
			</g>
			<g id="XMLID_681_">
				<path class="st5" d="M201.1,489.5l16.9,57.8c0.6,1.9,1,3.8,1.2,5.8c0.1,1,0.2,2,0.3,3c0.3,4.8-0.2,9.7-1.7,14.4l-32.6,90.1
					l19-0.1c1-7.4,2.9-14.5,5.9-21.4c7.6-17.3,22-32.1,24.1-50.9c0.8-7.2-0.3-14.4-1.4-21.5c-3.1-20-6.2-40.2-13.8-59
					c-4.1-10.1-9.5-20.1-9.6-31c-0.1-7.6,2.5-15.1,3.4-22.6l-1.5,2.7l-8.3,15c-2.5,4.4-3.4,9.5-2.7,14.5
					C200.6,487.2,200.8,488.3,201.1,489.5z"/>
			</g>
		</g>
		<path id="XMLID_651_" class="st9" d="M220.1,401h3.9c9,0,16.4,7.3,16.4,16.4v35.3l26,53.6l21.3,43.7c2,4.1,2.2,8.9,0.7,13.1
			l-9.8,26.7c0,4.9-2,66.1-4.7,70.3h-2.5l-90.1,0.5l36.5-90.1c2.3-7.5,2.3-15.6,0.1-23.2l-16.9-57.8c-1.7-6-1-12.4,2-17.9l10.3-18.5
			l-0.9-14.3L220.1,401z"/>
		<path id="XMLID_660_" class="st4" d="M284.9,603.2c0,4.9-8.4,52.7-11,56.8h-2.5l-90.1,0.5l23.8-77.7L284.9,603.2z"/>
		<path id="XMLID_661_" class="st9" d="M284.9,603.2c0,4.9-8.4,52.7-11,56.8h-2.5l-90.1,0.5l23.8-77.7L284.9,603.2z"/>
		<polyline id="XMLID_649_" class="st9" points="213.4,453.1 220.9,486.7 220.9,504.2 		"/>
		<g id="XMLID_684_">
			<path class="st15" d="M205.2,582.9l-23.8,77.7l22.9-0.1c1-7.4,2.9-14.5,5.9-21.4c7.3-16.7,20.9-31,23.8-48.8L205.2,582.9z"/>
		</g>
	</g>
	<g id="XMLID_1995_">
		<path id="XMLID_1991_" class="st2" d="M572.7,465.4v52.1l-11-21.1l-3.7-19.4c-1.7-8.9-9.6-15.2-18.7-14.8l-2.7,0.1v41.1l24.4,45.3
			l31.7,35.3l9.5,8.4c3.4,3,5.8,7,6.8,11.4l11.5,57.4l93.4-0.6l-32.2-84.2c-0.7-1.9-1.1-4-1.1-6.1l-0.5-71.3
			c-0.1-7.8-3.9-15.2-10.3-19.7l-4.9-3.5c-1.4-1-2.9-1.6-4.5-2L631,467L620,445.1c-2.6-5.1-7.8-8.2-13.5-8.1l-12.2,0.2L575,374.6
			c-1.2-3.8-4.6-6.3-8.5-6.3l0,0c-5.5,0-9.8,5-8.8,10.5L572.7,465.4z"/>
		<g id="XMLID_671_">
			<path class="st5" d="M638.4,472.6c3.4,3.9,7.9,6.8,11.7,10.3c6.9,6.3,11.7,15,13.5,24.2c3,15.9-2.8,32.6,1,48.3
				c2,8.2,6.6,15.7,8.9,23.8c5.6,19.8-2.7,41.7,3.9,61.2c2.4,7.2,6.7,13.6,10.5,20.3l26.1-0.2l-32.2-84.2c-0.2-0.5-0.3-1-0.5-1.5
				c-0.4-1.5-0.6-3-0.7-4.6l-0.5-71.3c0-0.5,0-1-0.1-1.5c-0.1-1-0.2-1.9-0.4-2.9c-0.2-0.9-0.4-1.9-0.7-2.8s-0.6-1.8-1-2.7
				c-1-2.2-2.3-4.2-3.9-6c-1.3-1.4-2.7-2.8-4.3-3.9l-2.9-2l-2-1.4c-0.3-0.2-0.7-0.5-1.1-0.7c-1.1-0.6-2.2-1.1-3.5-1.4l-25.1-5.9
				C636.1,469.6,637.2,471.1,638.4,472.6z"/>
		</g>
		<path id="XMLID_1990_" class="st9" d="M572.7,465.4v52.1l-11-21.1l-3.7-19.4c-1.7-8.9-9.6-15.2-18.7-14.8l-2.7,0.1v41.1l24.4,45.3
			l31.7,35.3l9.5,8.4c3.4,3,5.8,7,6.8,11.4l13.5,57.5L717,661l-35.3-84.6c-0.7-1.9-1.1-4-1.1-6.1l-0.5-71.3
			c-0.1-7.8-3.9-15.2-10.3-19.7l-4.9-3.5c-1.4-1-2.9-1.6-4.5-2L631,467L620,445.1c-2.6-5.1-7.8-8.2-13.5-8.1l-12.2,0.2L575,374.6
			c-1.2-3.8-4.6-6.3-8.5-6.3l0,0c-5.5,0-9.8,5-8.8,10.5L572.7,465.4z"/>
		<polygon id="XMLID_1993_" class="st4" points="694.5,597.3 717,662.3 620.6,661.2 609,617.2 		"/>
		<polygon id="XMLID_1994_" class="st9" points="694.5,597.3 717,661 620.6,661.2 609,617.2 		"/>
		<path id="XMLID_1992_" class="st2" d="M567.6,436.3l-5.2,9.8c-1,1.8-1.4,3.9-1.1,6l2.2,19.5c0.5,4.2,4,7.4,8.3,7.4h0.9v-13.7
			L567.6,436.3z"/>
		<path id="XMLID_1989_" class="st9" d="M567.6,436.3l-5.2,9.8c-1,1.8-1.4,3.9-1.1,6l2.2,19.5c0.5,4.2,4,7.4,8.3,7.4h0.9v-13.7
			L567.6,436.3z"/>
		<line id="XMLID_1988_" class="st9" x1="594.2" y1="437.2" x2="600.5" y2="461.5"/>
		<g id="XMLID_668_">
			<path class="st15" d="M694.5,597.3l-19,4.4c-0.5,13.1-2.2,26.4,1.9,38.7c2.6,7.7,7.3,14.4,11.2,21.5l28.5,0.3L694.5,597.3z"/>
		</g>
	</g>
	<g id="XMLID_832_">
		<path id="XMLID_838_" class="st4" d="M523.6,143.3H291.1c-3.2,0-5.7,2.1-6.2,5.2l-6.5,42.6c-0.7,4.6,3.4,9.2,8.2,9.2h232.6
			c3.2,0,5.7-2.1,6.2-5.2l6.5-42.6C532.5,147.9,528.4,143.3,523.6,143.3z"/>
		<g id="XMLID_836_">
			<path id="XMLID_837_" class="st5" d="M336.5,171.8c-1.4,9.1-9.9,16.4-19,16.4c-9.1,0-15.3-7.4-13.9-16.4
				c1.4-9.1,9.9-16.4,19-16.4C331.7,155.4,337.9,162.7,336.5,171.8z"/>
		</g>
		<polygon id="XMLID_835_" class="st3" points="493.5,166.6 365.7,166.6 366.7,159.9 494.8,159.9 		"/>
		<polygon id="XMLID_833_" class="st5" points="457.5,182.7 363.5,182.7 364.4,176.1 458.7,176.1 		"/>
	</g>
	<g id="XMLID_821_">
		<path id="XMLID_831_" class="st1" d="M647.9,219.9H415.3c-3.2,0-5.7,2.1-6.2,5.2l-6.5,42.6c-0.7,4.6,3.4,9.2,8.2,9.2h232.6
			c3.2,0,5.7-2.1,6.2-5.2l6.5-42.6C656.8,224.5,652.7,219.9,647.9,219.9z"/>
		<g id="XMLID_824_">
			<path id="XMLID_828_" class="st5" d="M460.8,248.4c-1.4,9.1-9.9,16.4-19,16.4c-9.1,0-15.3-7.4-13.9-16.4
				c1.4-9.1,9.9-16.4,19-16.4C455.9,232,462.2,239.3,460.8,248.4z"/>
		</g>
		<polygon id="XMLID_823_" class="st2" points="552.3,243.1 490,243.1 490.9,236.5 553.5,236.5 		"/>
		<polygon id="XMLID_822_" class="st5" points="581.8,259.3 487.7,259.3 488.7,252.7 583,252.7 		"/>
	</g>
	<g id="XMLID_1084_">
		<path id="XMLID_1098_" class="st3" d="M757.8,213.6l-58.8,0.6c-4.4,0-8.1-4.1-7.3-8.4l10.3-60.9c0.5-2.8,2.8-4.7,5.7-4.8l58.9-0.6
			l0,0c4.4,0,8,4.2,7.3,8.4l-10.3,61C763,211.6,760.7,213.6,757.8,213.6z"/>
		<path id="XMLID_1095_" class="st2" d="M747.2,175c-1.5-10.2-11-18.6-21.2-18.6c-10.2,0-17.4,8.3-15.9,18.6
			c1.5,10.2,11,18.6,21.2,18.6C741.5,193.5,748.7,185.2,747.2,175z M730.4,187c-6.6,0-12.8-5.4-13.7-12c-0.9-6.6,3.7-12,10.3-12
			c6.6,0,12.8,5.4,13.7,12C741.6,181.6,737,187,730.4,187z"/>
		<g id="XMLID_1092_">
			
				<rect id="XMLID_1094_" x="747.9" y="188.4" transform="matrix(0.6514 -0.7587 0.7587 0.6514 113.5532 638.9422)" class="st2" width="8.5" height="15"/>
		</g>
	</g>
</g>
</svg>
