<?xml version="1.0" encoding="utf-8"?>
<!-- Generator: Adobe Illustrator 23.0.1, SVG Export Plug-In . SVG Version: 6.00 Build 0)  -->
<svg version="1.1" id="Social_Media" xmlns="http://www.w3.org/2000/svg" xmlns:xlink="http://www.w3.org/1999/xlink" x="0px"
	 y="0px" viewBox="0 0 948.6 719.7" style="enable-background:new 0 0 948.6 719.7;" xml:space="preserve">
<style type="text/css">
	.st0{fill:#EEF4FC;}
	.st1{fill:#1067DB;}
	.st2{fill:#70A4E9;}
	.st3{fill:none;stroke:#002DAA;stroke-linecap:round;stroke-miterlimit:10;}
	.st4{fill:#B3CDFA;}
	.st5{fill:#FFFFFF;}
	.st6{fill:#002DAA;}
	.st7{fill:#FF5722;}
	.st8{fill:none;stroke:#002DAA;stroke-width:2;stroke-linecap:round;stroke-miterlimit:10;}
	.st9{fill:#CFE1F8;}
	.st10{fill:#0D2381;}
	.st11{fill:#9FC2F1;}
	.st12{fill:#002280;}
	.st13{opacity:0.21;fill:#191C3C;enable-background:new    ;}
	.st14{opacity:0.4;fill:#B3CDFA;enable-background:new    ;}
	.st15{opacity:0.5;fill:#001755;enable-background:new    ;}
	.st16{fill:#4085E2;}
</style>
<g id="XMLID_399_">
	<g id="XMLID_505_">
		<path class="st0" d="M907.8,369c-6.6-16.7-16.3-32.9-29.3-48.1c-29.9-34.8-75.1-56.5-121-55.7c-65.6,1.1-124.6,1.9-180.3-39.6
			c-50.4-37.5-117-66.6-178.9-78.8C354,138,305.7,141,267,164.4c-40.2,24.3-76,59.8-68.9,109.4c3.7,25.5,11.8,52.3,2.4,76.4
			c-12.3,31.7-49.1,45.2-82.2,53.3c-33,8-70,16.4-88.9,44.7c-18.3,27.4-12.5,65.6,5.5,93.2c17.9,27.7,45.7,47.2,72.9,65.8
			c22.6,15.5,42.7,31.7,62.4,50.6c6.8,6.6,16.4,13.8,21.4,21.8c6.3,10.2,4,24.7,13.1,33.2c9.5,8.8,21.1,2.8,33.8,2.9
			c42.7,0.2,85.4,0.3,128.1,0.5c101.6,0.4,203.3,0.8,304.9,1.2l0,0c13.8,0.1,29.4,3.8,43.1,1.5c19.1-3.1,12.7-3,23.1-17.4
			c13.7-19.1,31-31.3,50.2-44.6C875.7,596.7,948.6,472,907.8,369z"/>
	</g>
	<g id="XMLID_362_">
		<path id="XMLID_998_" class="st1" d="M695.8,635.2c0,0-53.7-57.9-19-115c0,0,1.9,23.5,16.6,38.7
			C693.4,558.9,719.8,603.2,695.8,635.2z"/>
		<path id="XMLID_997_" class="st1" d="M781.2,663.2c0,0-16.8,42.4-72.5,14.5c0,0-0.1-16.6,30.4-15.8c4.8,0.1,9.5,1.5,13.9,3.5
			C758.7,668,769,670.4,781.2,663.2z"/>
		<path id="XMLID_995_" class="st2" d="M738,663.8c4.8,0.1,9.5,1.5,13.9,3.5c5.7,2.6,15.9,5,28.2-2.2c0,0-0.8,1.9-2.5,4.7
			c2.6-3.7,3.7-6.5,3.7-6.5c-12.3,7.2-22.5,4.7-28.2,2.2c-4.4-2-9.1-3.4-13.9-3.5c-19.1-0.5-26.2,5.8-28.9,10.6
			C713.7,668.1,721.2,663.3,738,663.8z"/>
		<path id="XMLID_994_" class="st1" d="M786.1,567.4c0,0-92.2,18.3-84.7,91.8c0,0,15.9,1.9,36.7-13.4c13.7-10.1,23.5-24.6,28.8-40.8
			C770,595.8,775.7,582.8,786.1,567.4z"/>
		<path id="XMLID_993_" class="st2" d="M767,605c3-9.2,8.7-22.2,19.1-37.6c0,0,0.3-0.2-3.6,0.8c-8.4,13.3-13,23.7-15.7,31.9
			c-5.4,16.2-16.4,34.8-30.1,44.9c-15.5,11.4-29.7,13.9-35.2,14.1c0.1,1.1-0.1-1.1,0,0c0,0,15.9,1.9,36.7-13.4
			C751.9,635.6,761.6,621.1,767,605z"/>
		<path id="XMLID_992_" class="st1" d="M673.2,611c0,0-14.4-24.8-50.1-6.5c0,0,37.8,6.3,28,23.8c0,0-7,25.5,8.6,40.8
			C659.6,669.1,695.9,637.3,673.2,611z"/>
		<path id="XMLID_991_" class="st2" d="M671.5,612.5c19.8,22.9-5.1,50-11.9,56.6l0,0c0,0,36.3-31.8,13.5-58.2
			c0,0-14.4-24.8-50.1-6.5c0,0,0.4,0.1,1.1,0.2C657.8,588.9,671.5,612.5,671.5,612.5z"/>
		<path id="XMLID_981_" class="st3" d="M764.6,581.9c-17.4,19.1-33.7,39.3-48.8,60.3c-4.3,6-8.4,12-13.4,17.4
			c-19,20.5-48.9,30.3-63.2,54.3"/>
		<path id="XMLID_988_" class="st3" d="M753.5,674.6c-17.3,6.8-37.1-1.3-55.3,2.2c-18.8,3.6-33.2,19.3-41.4,36.5"/>
		<path id="XMLID_989_" class="st3" d="M672.4,544.1c-2.5,11,1.5,22.4,6.7,32.4c5.2,10,11.6,19.5,14.6,30.4c3.4,12.2,2,25.7-3.8,37
			c-4.7,9.2-12.1,16.8-18.6,24.8c-6.6,8-12.6,17-13.9,27.3"/>
		<path id="XMLID_990_" class="st3" d="M639.4,603.4c5.2,1.8,10.1,4.4,14.5,7.7c2.8,2.1,5.4,4.6,6.6,7.9c0.9,2.5,0.8,5.3,0.6,8
			c-1,19.5-1.9,39-2.9,58.6c-0.5,10.9-1.2,22.1-6.1,31.8"/>
	</g>
	<g id="XMLID_382_">
		<g id="XMLID_614_">
			<path class="st1" d="M446.3,548.2c-0.4-1.5-0.9-2.9-1.9-4.1c-2.2-2.6-6.2-2.5-9.6-1.8c-1.5,0.3-3,0.6-4.4,1.3
				c-5.1,2.5-7.1,9.2-5.6,14.7s5.7,9.8,10.3,13.1l4.9-1.9c0.9-3.9,4.6-6.4,6.2-10C447.8,555.9,447.3,551.8,446.3,548.2z"/>
		</g>
		<g id="XMLID_384_">
			<path class="st1" d="M500.7,606.9c-0.6-1.4-1.4-2.9-2.7-3.8c-3.1-2.2-7.3-0.1-10.3,2.2s-6.1,5.2-6.4,8.9l1.3,2.6
				c3,1.8,6.1,3.6,9.6,4.1s7.4-0.7,9.1-3.7C503.2,614.2,502.2,610.2,500.7,606.9z"/>
		</g>
		<g id="XMLID_648_">
			<path class="st1" d="M477.3,556.8c-3.7-3-9.3-2.8-13.2-0.2c-1.1,0.8-2.1,1.7-2.7,2.9c-0.5,1.1-0.5,2.3-0.5,3.5
				c0.3,4.7,2.3,9.3,5.6,12.7l2.6,0.6c1.8-3.5,6.7-4.2,9.4-7.1C481.8,565.9,481,559.8,477.3,556.8z"/>
		</g>
		<g id="XMLID_574_">
			<path class="st1" d="M413.8,588.5c-1.2-3.6-3.1-7.1-6.2-9.2c-3.1-2.1-7.7-2.4-10.6,0c-2.4,2-3.1,5.5-2.5,8.5
				c0.6,3.1,2.3,5.8,4.2,8.2c2,2.7,4.4,5.2,7.3,6.9l2.3-2.9c3.2-0.4,5.9-3.1,6.3-6.3C414.8,592,414.3,590.2,413.8,588.5z"/>
		</g>
		<g id="XMLID_383_">
			<path class="st1" d="M477.6,664.4c-0.4-2.9-2.5-5.4-5.1-6.6c-2.6-1.2-5.8-1.2-8.5-0.2c-6.1,2.2-10,9.5-8.4,15.8l0.6,1.8
				c4.6,0.5,9.4,1.1,13.8-0.5C474.4,673.2,478.2,669,477.6,664.4z"/>
		</g>
		<path id="XMLID_375_" class="st3" d="M396.5,719c-6.2-12.3-2.6-27.4,3.8-39.7c10.2-19.6,26.9-34.9,41.5-51.6s27.6-36.6,27.8-58.8"
			/>
		<path id="XMLID_376_" class="st3" d="M418.9,653c-6.4-0.3-12.7-3.3-16.8-8.2c-4.2-4.9-6.2-11.6-5.4-18c0.8-6.2,3.9-11.8,6.6-17.5
			c2.7-5.7,4.9-12,3.5-18.1"/>
		<path id="XMLID_377_" class="st3" d="M434.9,636c2,0.6,3.9,1.2,5.9,1.8s4,1.2,6.1,1.4c7.8,0.6,14.6-5.2,19.4-11.4
			c3-3.9,5.7-8.2,9.9-10.7s9.3-2.8,14.2-3"/>
		<path id="XMLID_379_" class="st3" d="M458.9,603.4c-7-2.1-13.4-6.2-17.7-12.1c-4.3-5.9-6.2-13.6-4.4-20.7
			c1.1-4.5,3.7-8.8,2.7-13.3"/>
		<path id="XMLID_539_" class="st3" d="M403.7,673c1.8-2.1,4.8-2.6,7.5-2.1s5.1,1.9,7.5,3.2c8.1,4.4,17.2,7.8,26.3,6.2
			c6.6-1.2,12.7-5.1,16.5-10.6"/>
	</g>
	<g id="XMLID_322_">
		<g id="XMLID_373_">
			<path class="st1" d="M237.6,675c-3.2-7.7-8.8-14.1-13.5-21c-1.2-1.7-4.6,0.1-5.7-1.7c-0.8-1.3,0.9-6.2,0.2-7.6
				c-3.2-6.1-5.6-12.6-7.4-19.2c-1.7-6.7-2.9-13.9-5.8-20c-0.5-1.1-3.8,3.1-4.4,2c-0.7-1,1.2-7.3,0.4-8.2c-4.1-4.6-9.9-7.4-15.6-9.7
				c-16.4-6.6-34.7-8.7-52.3-6.9c-4,0.4,0.2,4.7,0.9,6.6c1.4,3.8,1.3,8.4,0.2,12.3c-0.7,2.3-1.7,4.4-2.4,6.6
				c-3.8,12.5,4,32.1,13.3,40.6c0.9,0.8,7.5-1.4,8.4-0.7c1.2,0.9-3.4,4.7-2.2,5.4c8.2,5.1,18,8,25.7,13.9c4.3,3.3,7.9,7.3,11.2,11.6
				c0.7,0.9,4.8,0.8,5.5,1.7c0.8,1.1-1.7,3.2-0.8,4.2c2.7,3.5,5.5,6.8,8.7,9.8c9,8.4,24.6,12.7,33,3.7
				C240.9,692.4,240.8,682.7,237.6,675z"/>
		</g>
		<g id="XMLID_374_">
			<path class="st4" d="M270.9,536.6c-3.6,14.2-21.8,24.7-34.4,32.1c-1.9,1.1,2.8,5.1,0.8,6.4c-1.9,1.3-6.8-2.4-8.6-0.9
				c-8.1,6.7-14.3,15-13.9,25.1c0.6,12.2,11,21.5,15.1,33.1c0.5,1.5,4.1,2,4.5,3.5c0.3,1.5-2.6,4-2.4,5.6c0.9,6.8,0.9,13.9,2.3,20.7
				c2.1,9.8,9.3,20.2,19.4,19.8l10.4-1.3c9.4-4.9,19-10.1,25.9-18.1s10.7-19.7,6.5-29.5c-1-2.4-2.4-4.5-3.9-6.6
				c-0.4-0.6-6.7,0.3-7.1-0.3c-1-1.5,3.9-4.6,3.2-6.3c-5-11-0.5-23.3,1.8-35.5c0.3-1.4-5.1-1.1-4.9-2.6c0.2-1.3,5.9-4.3,6-5.6
				C292.5,560.6,284.2,544.8,270.9,536.6z"/>
		</g>
		<path id="XMLID_346_" class="st3" d="M163.1,612.5c34.6,29.4,64,64.9,86.5,104.3"/>
		<path id="XMLID_349_" class="st3" d="M261.5,716.9c-1.9-6.3-3.6-12.7-4.5-19.2c-1.1-8.1-1-16.3-0.7-24.4
			c0.9-24.4,3.7-48.6,8.4-72.6"/>
	</g>
	<g id="XMLID_757_">
		<path id="XMLID_775_" class="st5" d="M703.5,570.9H573.7c-5.8,0-9.8-4.7-9-10.5l12-83.8c0.8-5.8,6.2-10.5,12-10.5h129.8
			c5.8,0,9.8,4.7,9,10.5l-12,83.8C714.6,566.2,709.3,570.9,703.5,570.9z"/>
		<g id="XMLID_754_">
			<path class="st1" d="M694.8,556.2H583.6c-4.7,0-8-3.8-7.3-8.5l9-63c0.7-4.7,5-8.5,9.7-8.5h111.2c4.7,0,8,3.8,7.3,8.5l-9,63
				C703.9,552.4,699.5,556.2,694.8,556.2z"/>
		</g>
		<g id="XMLID_753_">
			<path class="st6" d="M578.3,534.1l-2.1,13.9c-0.5,4.5,2.7,8.1,7.3,8.1h42.4l-23.7-50.6L578.3,534.1z"/>
		</g>
		<g id="XMLID_752_">
			<polygon class="st5" points="603.1,520.5 604.5,523.4 608.3,518.9 602.1,505.6 591.2,518.8 593.3,523.4 595.9,520.3 598.5,526 
							"/>
		</g>
		<g id="XMLID_538_">
			<polygon class="st6" points="620.6,545.2 638.7,522.8 654.6,556.2 625.8,556.2 			"/>
		</g>
		<path id="XMLID_750_" class="st7" d="M687.1,503.5c-1.1,7.8-8.3,14.1-16.1,14.1c-7.8,0-13.2-6.3-12.1-14.1s8.3-14.1,16.1-14.1
			C682.8,489.4,688.2,495.7,687.1,503.5z"/>
		<g id="XMLID_748_">
			<polygon class="st5" points="639.9,537.7 641.3,540.6 645.1,536.1 638.7,522.8 628,536 630.1,540.6 632.7,537.5 635.3,543.2 			
				"/>
		</g>
	</g>
	<path id="XMLID_204_" class="st6" d="M179.8,526c-1.6,0-3.3,1.3-3.6,2.9c-0.4,1.6,0.6,2.9,2.2,2.9s3.3-1.3,3.6-2.9
		C182.4,527.3,181.4,526,179.8,526z"/>
	<path id="XMLID_56_" class="st6" d="M873.6,409.1c-1.2,0-2.3,0.9-2.6,2.1c-0.3,1.2,0.4,2.1,1.6,2.1s2.3-0.9,2.6-2.1
		C875.5,410.1,874.8,409.1,873.6,409.1z"/>
	<path id="XMLID_569_" class="st6" d="M593.9,105.8c-1.2,0-2.3,0.9-2.6,2.1c-0.3,1.2,0.4,2.1,1.6,2.1s2.3-0.9,2.6-2.1
		C595.7,106.8,595,105.8,593.9,105.8z"/>
	<path id="XMLID_98_" class="st6" d="M763.6,492.3c-1.6,0-3.3,1.3-3.6,2.9c-0.4,1.6,0.6,2.9,2.2,2.9c1.6,0,3.3-1.3,3.6-2.9
		C766.2,493.6,765.2,492.3,763.6,492.3z"/>
	<path id="XMLID_1103_" class="st6" d="M716.4,326c-1.6,0-3.3,1.3-3.6,2.9c-0.4,1.6,0.6,2.9,2.2,2.9s3.3-1.3,3.6-2.9
		C719.1,327.3,718.1,326,716.4,326z"/>
	<path id="XMLID_554_" class="st6" d="M430.7,118.9c-1.6,0-3.3,1.3-3.6,2.9c-0.4,1.6,0.6,2.9,2.2,2.9c1.6,0,3.3-1.3,3.6-2.9
		C433.4,120.3,432.4,118.9,430.7,118.9z"/>
	<path id="XMLID_219_" class="st6" d="M261.3,207.2c-1.6,0-3.3,1.3-3.7,3c-0.4,1.6,0.6,3,2.2,3s3.3-1.3,3.7-3
		C264,208.6,262.9,207.2,261.3,207.2z"/>
	<path id="XMLID_1101_" class="st7" d="M145.5,154.6c-2,0-4.1,1.6-4.6,3.7c-0.5,2,0.8,3.7,2.8,3.7s4.1-1.6,4.6-3.7
		C148.8,156.3,147.5,154.6,145.5,154.6z"/>
	<path id="XMLID_372_" class="st7" d="M816.3,476.2c-2,0-4.1,1.6-4.6,3.7c-0.5,2,0.8,3.7,2.8,3.7s4.1-1.6,4.6-3.7
		C819.6,477.9,818.4,476.2,816.3,476.2z"/>
	<path id="XMLID_217_" class="st1" d="M231.3,582.3c-1.9,0-3.7,1.5-4.2,3.4c-0.4,1.9,0.7,3.4,2.6,3.4s3.7-1.5,4.2-3.4
		C234.3,583.8,233.1,582.3,231.3,582.3z"/>
	<path id="XMLID_603_" class="st1" d="M413.2,183.2c-1,0-1.9,0.8-2.2,1.8c-0.2,1,0.4,1.8,1.3,1.8c1,0,1.9-0.8,2.2-1.8
		C414.8,184,414.2,183.2,413.2,183.2z"/>
	<path id="XMLID_1104_" class="st1" d="M785.8,277.6c-1.9,0-3.7,1.5-4.2,3.4c-0.4,1.9,0.7,3.4,2.6,3.4c1.9,0,3.7-1.5,4.2-3.4
		C788.8,279.1,787.7,277.6,785.8,277.6z"/>
	<path id="XMLID_79_" class="st1" d="M239.2,131.6c-1.9,0-3.7,1.5-4.2,3.4c-0.4,1.9,0.7,3.4,2.6,3.4s3.7-1.5,4.2-3.4
		C242.2,133.1,241.1,131.6,239.2,131.6z"/>
	<path id="XMLID_411_" class="st7" d="M832.5,330.2c-1,0-1.9,0.8-2.2,1.7c-0.2,1,0.4,1.7,1.3,1.7c0.9,0,1.9-0.8,2.2-1.7
		C834.1,331,833.5,330.2,832.5,330.2z"/>
	<path id="XMLID_101_" class="st7" d="M267.2,516.8c-1,0-1.9,0.8-2.2,1.7c-0.2,1,0.4,1.7,1.3,1.7s1.9-0.8,2.2-1.7
		S268.2,516.8,267.2,516.8z"/>
	<path id="XMLID_551_" class="st7" d="M552.2,177.7c-1,0-1.9,0.8-2.2,1.7c-0.2,1,0.4,1.7,1.3,1.7c1,0,1.9-0.8,2.2-1.7
		C553.7,178.4,553.1,177.7,552.2,177.7z"/>
	<g id="XMLID_253_">
		<path id="XMLID_115_" class="st5" d="M332.5,326.7l-34.2,100.9c-1,2.9-1.3,5.9-1.1,9l6.1,72.8l-40.6,207.5h133.9l-16.2-145.1
			l101.1-82l-60.1-117L346,423.9l2.2-38.3l5.7-24.2C357.5,345.9,348,330.4,332.5,326.7L332.5,326.7z"/>
		<g id="XMLID_259_">
			<path class="st4" d="M447.5,486.8c-4.2-11.7-12.2-23.2-24.1-26.8c-15.6-4.7-32.3,5.7-41.3,19.3s-12.6,29.9-18.5,45.1
				c-5.2,13.4-12.2,26-17,39.5s-7.5,28.4-3.5,42.2c2.1,7.3,6,14.1,8.8,21.2c6.3,15.9,7.3,33.8,2.7,50.2
				c-3.2,11.4-8.9,21.9-12.3,33.2c-0.6,2-1.1,4.1-1.5,6.2h55.9l-16.2-145.1l71.5-58c0-0.4,0-0.8,0-1.2
				C451.9,503.8,450.4,495,447.5,486.8z"/>
		</g>
		<path id="XMLID_113_" class="st8" d="M332.5,326.7l-34.2,100.9c-1,2.9-1.3,5.9-1.1,9l6.1,72.8l-40.6,207.5h133.9l-16.2-145.1
			l101.1-82l-60.1-117L346,423.9l2.2-38.3l5.7-24.2C357.5,345.9,348,330.4,332.5,326.7L332.5,326.7z"/>
		<polygon id="XMLID_252_" class="st6" points="386.2,581.1 396.6,716.9 262.7,716.9 286.7,562.6 		"/>
		<path id="XMLID_250_" class="st5" d="M524.1,318l18.9-9.5c6.3-3.2,14-0.6,17.1,5.8l0,0c2.6,5.2,1.2,11.5-3.2,15.3l-59.4,44.9
			L524.1,318z"/>
		<path id="XMLID_246_" class="st5" d="M525.8,358.6L525.8,358.6c7-7.4,19.4-5,23.2,4.5l0.1,0.3c2.3,5.8,0.6,12.4-4.3,16.2
			l-22.7,14.8L525.8,358.6z"/>
		<path id="XMLID_245_" class="st5" d="M522.1,399.9l0.4-0.3c7.3-4.6,17-1,19.5,7.3l0,0c1.7,5.6-0.6,11.7-5.5,14.8l-20.2,13
			L522.1,399.9z"/>
		<path id="XMLID_242_" class="st5" d="M515.5,442l1.8-1.2c7.6-4.8,17.7-0.4,19.3,8.4l0,0c1,5.5-1.7,11-6.6,13.6l-18.4,9.4
			L515.5,442z"/>
		<path id="XMLID_112_" class="st8" d="M524.1,318l18.9-9.5c6.3-3.2,14-0.6,17.1,5.8l0,0c2.6,5.2,1.2,11.5-3.2,15.3l-59.4,44.9
			L524.1,318z"/>
		<path id="XMLID_65_" class="st8" d="M525.8,358.6L525.8,358.6c7-7.4,19.4-5,23.2,4.5l0.1,0.3c2.3,5.8,0.6,12.4-4.3,16.2
			l-22.7,14.8L525.8,358.6z"/>
		<path id="XMLID_41_" class="st8" d="M522.1,399.9l0.4-0.3c7.3-4.6,17-1,19.5,7.3l0,0c1.7,5.6-0.6,11.7-5.5,14.8l-20.2,13
			L522.1,399.9z"/>
		<path id="XMLID_26_" class="st8" d="M515.5,442l1.8-1.2c7.6-4.8,17.7-0.4,19.3,8.4l0,0c1,5.5-1.7,11-6.6,13.6l-18.4,9.4L515.5,442
			z"/>
		<g id="XMLID_116_">
			<path id="XMLID_224_" class="st5" d="M488.5,543.7H358.6c-14.6,0-26.5-11.8-26.5-26.5l41.6-303.9c0-9.6,7.8-17.4,17.4-17.4h126.8
				c16.3,0,29.6,13.2,29.6,29.6l-41.6,300.8C504.7,536.1,498.2,543.7,488.5,543.7z"/>
			<path id="XMLID_142_" class="st8" d="M488.5,543.7H358.6c-14.6,0-26.5-11.8-26.5-26.5l41.6-303.9c0-9.6,7.8-17.4,17.4-17.4h126.8
				c16.3,0,29.6,13.2,29.6,29.6l-41.6,300.8C504.7,536.1,498.2,543.7,488.5,543.7z"/>
			<path id="XMLID_133_" class="st9" d="M482.2,536.8H349.7c-9.6,0-17.4-7.8-17.4-17.4l41.6-305.8c0-9.6,7.8-17.4,17.4-17.4h132.4
				c9.6,0,17.4,7.8,17.4,17.4l-41.6,305.8C497.7,528.6,491.8,536.8,482.2,536.8z"/>
			<path id="XMLID_119_" class="st8" d="M482.2,536.8H349.7c-9.6,0-17.4-7.8-17.4-17.4l41.6-305.8c0-9.6,7.8-17.4,17.4-17.4h132.4
				c9.6,0,17.4,7.8,17.4,17.4l-41.6,305.8C497.7,528.6,491.8,536.8,482.2,536.8z"/>
			<path id="XMLID_118_" class="st10" d="M473.9,211.3h-42.7c-0.9,0-1.4-0.9-1-1.7l0,0c0.2-0.4,0.6-0.6,1-0.6h42.7
				c0.9,0,1.4,0.9,1,1.7l0,0C474.6,211.1,474.3,211.3,473.9,211.3z"/>
			<path id="XMLID_117_" class="st10" d="M524.1,212.4c-0.7,3.6-3.8,6.1-7.1,5.5c-3.3-0.6-5.4-4-4.7-7.7c0.7-3.6,3.8-6.1,7.1-5.5
				C522.7,205.3,524.8,208.7,524.1,212.4z"/>
			<g id="XMLID_385_">
				<polygon id="XMLID_364_" class="st11" points="471.9,394.4 380.4,394.4 382.3,380.5 473.8,380.5 				"/>
				<polygon id="XMLID_534_" class="st11" points="493.4,421.5 376.9,421.5 378.8,407.6 495.3,407.6 				"/>
				<polygon id="XMLID_549_" class="st11" points="429.9,448.6 373.4,448.6 375.4,434.7 431.9,434.7 				"/>
				<polygon id="XMLID_552_" class="st11" points="461.4,475.8 369.9,475.8 371.9,461.8 463.4,461.8 				"/>
				<polygon id="XMLID_558_" class="st11" points="457.9,502.9 366.4,502.9 368.4,489 459.9,489 				"/>
			</g>
		</g>
		<g id="XMLID_257_">
			<path class="st12" d="M342.3,710.7c-0.6,2-1.1,4.1-1.5,6.2h55.9l-10.4-135.8l-42.6-7.9c-2.8,10.8-3.7,22.2-0.6,32.8
				c2.1,7.3,6,14.1,8.8,21.2c6.3,15.9,7.3,33.8,2.7,50.2C351.4,688.8,345.7,699.4,342.3,710.7z"/>
		</g>
		<polygon id="XMLID_251_" class="st8" points="386.2,581.1 396.6,716.9 262.7,716.9 286.7,562.6 		"/>
	</g>
	<line id="XMLID_22_" class="st8" x1="0" y1="718.3" x2="928.9" y2="718.3"/>
	<g id="XMLID_271_">
		<g id="XMLID_312_">
			<path id="XMLID_313_" class="st1" d="M578.3,376.9h70.3c4.1,0,7.4-2.7,8.1-6.6l9.4-54.3c1-5.9-4.1-11.8-10.2-11.8h-70.3
				c-4.1,0-7.4,2.7-8.1,6.6l-9.4,54.3C567.1,371,572.2,376.9,578.3,376.9z"/>
		</g>
		<g id="XMLID_292_">
			<path id="XMLID_302_" class="st5" d="M634.2,350.9l-10.6-3.8l0.4-2.5l-4,2.3h-2.7l-3.2-2.3l-0.4,2.6l-11.8,3.7
				c-0.9,0.3-1.5,1-1.7,1.9l-1.4,9.1h35.1l1.4-9.1C635.4,351.9,635,351.1,634.2,350.9z"/>
			<path id="XMLID_294_" class="st5" d="M623.1,319.1c-4.7,0-9.1,3.8-9.8,8.5l-0.8,10.2c-0.1,1.4,0.5,2.6,1.6,3.2l0.5,0.4l3.2,2.3
				h2.7l4-2.3l0.7-0.4c1.3-0.6,2.3-1.9,2.6-3.2l2.4-10.2C630.9,322.8,627.7,319.1,623.1,319.1z"/>
		</g>
	</g>
	<g id="XMLID_266_">
		
			<ellipse id="XMLID_255_" transform="matrix(0.7321 -0.6812 0.6812 0.7321 -87.0834 384.2523)" class="st1" cx="445" cy="302.8" rx="73.3" ry="63.4"/>
		<g id="XMLID_347_">
			<path class="st7" d="M479,317.2c-0.3-3.1-1.5-6.1-1.6-9.2c-0.1-2.9,0.8-5.8,1.1-8.7c0.6-7.5-3-14.1-3.3-21.5
				c-0.2-4.4,0.8-8.9,0.5-13.3s-2.3-8.8-6.4-9.9c-1.6-0.4-3.4-0.3-5.1-0.6c-2.9-0.4-5.5-1.9-8.3-2.7c-8.1-2.3-18.3,1.8-23.6,9.5
				c-3.2,4.6-4.5,9.9-6.8,14.9c-0.9,2.1-2.1,4.1-3.3,6c-1.1,1.7-2.4,3.4-3.3,5.2c-1.6,3.3-1.9,6.8-2.5,10.3
				c-1,5.1-2.8,10.2-5.4,14.9c-1.1,2.1-2.5,3.7-2.3,6c0.1,2,1.4,3.6,1.6,5.5c0.3,2.7-1.4,5.5-1.7,8.3c-0.2,2.1,0.4,4,1,5.9
				c0.2,0.5,0.4,1.1,0.9,1.3c1.1,0.4,2.1-1,3.1-1.8c2.4-2,5.7-1.1,8.6-1.8c2.4-0.6,4.7-2.4,7.1-2.4c2.4,0,4.2,1.8,6.5,2.2
				c3.8,0.6,6.7-2.6,10.3-3.3c3.8-0.8,8.3,0.4,12.1,0.5c4.1,0,8.5-0.5,12.4-2.4c3.9-2,7.4-5.6,8.1-9.8
				C479.1,319.3,479.1,318.3,479,317.2z"/>
		</g>
		<polygon id="XMLID_264_" class="st5" points="454.1,312.4 456.2,298.2 437,298.2 435.2,310.6 432.7,310.4 430.8,323.9 
			433.3,323.9 452.5,323.9 457.2,323.9 458.8,312.8 		"/>
		<g id="XMLID_261_">
			<path id="XMLID_290_" class="st6" d="M457.8,324.5H430l2.1-14.8l2.5,0.2l1.8-12.4h20.5l-2,14.2l4.7,0.4L457.8,324.5z
				 M431.5,323.2h25.2l1.4-9.9l-4.7-0.4l2-14.1h-17.9l-1.8,12.5l-2.5-0.2L431.5,323.2z"/>
		</g>
		<path id="XMLID_281_" class="st4" d="M456.7,315.2c-5.5,7.4-15.9,8.4-20.7,2l-3.7-5l-13.5-3l-8.2,57c7.4,3.1,15.7,4.8,24.6,4.8
			c8.5,0,16.9-1.6,24.8-4.4l5.2-15.8l-6.2-38.6L456.7,315.2z"/>
		<g id="XMLID_262_">
			<path id="XMLID_277_" class="st6" d="M458.9,312.2l-2.6,43.9l-8.5,13.8c6.4-1.1,12.6-3.1,18.4-5.8l13.9-41.1
				C478.7,315.2,458.9,312.2,458.9,312.2z"/>
			<path id="XMLID_282_" class="st6" d="M439.2,370.9l-6.6-61.1l-13.8-0.6c-0.4-0.1-0.1,0.4-0.3,0.8l-14.7,41.5l0.2,11.3
				c8.9,5.2,19.4,8.1,31.1,8.1C436.5,371,437.9,371,439.2,370.9z"/>
		</g>
		<path id="XMLID_280_" class="st6" d="M480.1,323c-1.4-7.8-21.2-10.8-21.2-10.8l5.3,52.7c6.9-3,13.4-6.9,19.3-11.6L480.1,323z"/>
		<path id="XMLID_289_" class="st13" d="M407.4,353.6c-0.5-4.1,1.2-9.4,2-13.6c0.5-2.9,1.1-5.8,1.6-8.8l-7.2,20.3
			c-0.4,1.2,0.1,3.3,0.1,4.5c0,2.3,0.1,4.6,0.1,6.8c0.6,0.3,1.2,0.7,1.8,1c0.2-1.3,0.4-2.6,0.9-3.9c0.4-1.1,0.9-2.2,1-3.3
			C407.8,355.6,407.5,354.6,407.4,353.6z"/>
		<path id="XMLID_288_" class="st1" d="M458.9,312.2l-2.6,43.9l-8.5,13.8c1-0.2,2-0.4,3-0.6l11.6-14l-3-8l5.2-4.3L458.9,312.2z"/>
		<path id="XMLID_284_" class="st1" d="M436.3,371c1,0,2-0.1,2.9-0.1l-6.6-61.1l-10.9,22.6l7.2,2.5l-4.5,4.9L436.3,371z"/>
		<path id="XMLID_283_" class="st6" d="M393.9,327.7l-5.8,10.4c-1,2.1-1.8,4.7-2.5,7.3c4.5,6.9,10.6,12.7,17.8,17.1l2-11.3l13.4-42
			L406,316C400.9,318.7,396.7,322.8,393.9,327.7z"/>
		<path id="XMLID_287_" class="st14" d="M455.7,297.9h-18.1l-0.7,5.1l2.9,2.9c0.9,0.9,2.2,1.5,3.7,1.5h2.8c1.5,0,3-0.6,4.2-1.5
			l4.7-3.8L455.7,297.9z"/>
		<path id="XMLID_286_" class="st5" d="M435.5,274.5l-2.6,18.1c-0.3,2.3,0.3,4.4,1.8,5.9l5,5c1,1,2.4,1.6,3.9,1.6h2.9
			c1.6,0,3.1-0.6,4.5-1.6l8.4-6.8c1.9-1.5,3.1-3.6,3.4-5.8l2.4-16.3c0,0,2.9-8.9-3.4-12.7c0,0-8.8-3.6-18.2,0
			C443.5,261.8,437.1,263.5,435.5,274.5z"/>
		<g id="XMLID_256_">
			<path id="XMLID_276_" class="st6" d="M446.6,305.7h-2.9c-1.7,0-3.2-0.6-4.3-1.7l-5-5c-1.6-1.6-2.4-4-2-6.5l2.6-18.1
				c1.6-10.9,7.8-13,8.4-13.2c9.5-3.7,18.3-0.1,18.7,0h0.1c6.3,3.9,3.9,12.6,3.7,13.4l-2.3,16.3c-0.3,2.4-1.7,4.6-3.6,6.2l-8.4,6.8
				C450,305,448.3,305.7,446.6,305.7z M436.2,274.6l-2.6,18.1c-0.3,2.1,0.3,4,1.7,5.4l5,5c0.9,0.9,2.1,1.4,3.4,1.4h2.9
				c1.4,0,2.9-0.5,4.1-1.5l8.4-6.8c1.7-1.4,2.9-3.4,3.2-5.4l2.4-16.4c0-0.1,2.6-8.4-3.1-11.9c-0.7-0.3-9-3.4-17.7,0h-0.1
				C443.5,262.5,437.7,264.2,436.2,274.6L436.2,274.6z"/>
		</g>
		<g id="XMLID_265_">
			<path class="st7" d="M455.7,255.1l-6.1,1.9c-4-1.4-9.1,0.4-12.6,3.6c-3.6,3.2-5.9,7.5-7.6,11.8c-1.7,4.3-2.9,8.7-4.8,13
				c-4.2,9.4-11.9,17.6-14.7,27.4c-0.5,1.9-0.9,3.8-1.2,5.7c-0.5,3-0.8,6.1-0.4,9c0.5,2.9,1.9,5.6,4.4,7.1c2.5,1.4,6.1,1.3,8.6-0.8
				c0.9-0.8,1.7-1.8,2.4-2.8c5.1-7.3,8.5-15.9,7.9-24c-0.2-2.2-0.6-4.3-0.7-6.5c-0.2-4.2,0.8-8.5,1.7-12.8c0.5-2.2,1-4.5,2.4-6.4
				c1.5-2.2,3.9-3.7,6.1-5.1c3.8-2.5,7.5-5.2,10.4-8.7C454.4,263.6,456.2,259.2,455.7,255.1z"/>
		</g>
		<g id="XMLID_258_">
			<path class="st7" d="M475.4,314c-0.3-5.4-0.6-10.7-1.7-15.9c-1.2-5.5-3.2-10.8-3.2-16.6c0-5.3,1.6-10.9,0.6-16
				c-1.4-6.6-7.9-11-14.9-10.4l-4.1,4.1c2,0.8,3,3,3.3,5.1c0.3,2.2,0.2,4.5,0.7,6.6c0.6,2.7,2.3,4.9,3.6,7.3
				c5.3,9.9,4.1,22.7,0.6,34.5c-2.2,7.2-5.2,14.9-3.4,21.6c0.3,1.2,0.8,2.3,1.6,3.2c2.5,2.8,7.7,2.1,11-0.6s5.1-7,5.7-11
				C475.9,322.1,475.7,318,475.4,314z"/>
		</g>
	</g>
	<path id="XMLID_338_" class="st15" d="M506,241.9c-3.2,0-5.8,2.1-6.3,5.2l-7.3,42.6c-0.8,4.6,3.2,9.2,8,9.2h38.1l7.9-57L506,241.9
		L506,241.9z"/>
	<g id="XMLID_314_">
		<path id="XMLID_330_" class="st6" d="M494.3,290.4h262.6c3.2,0,5.8-2.1,6.3-5.2l7.3-42.6c0.8-4.6-3.2-9.2-8-9.2H500
			c-3.2,0-5.8,2.1-6.3,5.2l-7.3,42.6C485.5,285.8,489.5,290.4,494.3,290.4z"/>
		<g id="XMLID_325_">
			<path id="XMLID_328_" class="st16" d="M565,253.6h120.6c0.4,0,0.7-0.2,0.8-0.6l1.4-4.9c0.2-0.5-0.2-1.1-0.8-1.1H566.5
				c-0.4,0-0.7,0.2-0.8,0.6l-1.4,4.9C564.1,253,564.5,253.6,565,253.6z"/>
			<path id="XMLID_327_" class="st5" d="M689,268.9h51.3c0.4,0,0.7-0.2,0.8-0.6l1.4-4.9c0.2-0.5-0.2-1.1-0.8-1.1h-51.3
				c-0.4,0-0.7,0.2-0.8,0.6l-1.4,4.9C688.1,268.4,688.5,268.9,689,268.9z"/>
			<path id="XMLID_326_" class="st5" d="M562.4,268.9h115.5c0.4,0,0.7-0.2,0.8-0.6l1.4-4.9c0.2-0.5-0.2-1.1-0.8-1.1H563.8
				c-0.4,0-0.7,0.2-0.8,0.6l-1.4,4.9C561.4,268.4,561.8,268.9,562.4,268.9z"/>
		</g>
		<path id="XMLID_612_" class="st5" d="M513.5,270.2l1.7-12.3c1.1-8,8.5-14.5,16.6-14.5s13.6,6.5,12.5,14.5l-1.8,12.6
			c-0.3,2.3,0.5,4.5,2.2,5.9h-12.8c-0.4,2.6-2.8,4.8-5.4,4.8s-4.5-2.1-4.1-4.8h-12.8C511.7,275,513.1,272.7,513.5,270.2z"/>
		<path id="XMLID_324_" class="st7" d="M545.3,241.2c-3.2,0-6.4,2.6-7.1,5.8s1.2,5.8,4.4,5.8c3.2,0,6.4-2.6,7.1-5.8
			S548.5,241.2,545.3,241.2z"/>
	</g>
	<g id="XMLID_1995_">
		<path id="XMLID_1991_" class="st5" d="M472.7,469.4v65.8l-13.8-26.7l-4.7-24.5c-2.1-11.2-12.2-19.2-23.6-18.7l-3.4,0.1v52
			l30.8,57.3l40.1,44.6l12,10.6c4.3,3.8,7.3,8.8,8.6,14.4l14.6,72.6l118.1-0.8l-40.7-106.4c-0.9-2.4-1.4-5-1.4-7.7l-0.7-90.1
			c-0.1-9.9-4.9-19.2-13-24.9l-6.3-4.4c-1.7-1.2-3.7-2.1-5.7-2.6l-37-8.7l-14-27.6c-3.3-6.4-9.9-10.4-17.1-10.3l-15.5,0.3
			l-24.3-79.1c-1.5-4.7-5.8-8-10.8-8l0,0c-7,0-12.3,6.3-11.1,13.2L472.7,469.4z"/>
		<g id="XMLID_671_">
			<path class="st4" d="M555.8,478.5c4.3,5,9.9,8.6,14.8,13c8.8,8,14.9,18.9,17.1,30.6c3.8,20.1-3.6,41.2,1.3,61.1
				c2.5,10.4,8.3,19.8,11.2,30.1c7,25-3.4,52.7,4.9,77.4c3.1,9.2,8.5,17.2,13.3,25.7l33-0.2l-40.7-106.4c-0.2-0.6-0.4-1.2-0.6-1.9
				c-0.5-1.9-0.8-3.8-0.8-5.8l-0.7-90.1c0-0.6,0-1.2-0.1-1.9c-0.1-1.2-0.2-2.4-0.5-3.6c-0.2-1.2-0.5-2.4-0.9-3.5
				c-0.4-1.2-0.8-2.3-1.3-3.4c-1.2-2.7-2.9-5.3-4.9-7.6c-1.6-1.8-3.4-3.5-5.4-4.9l-3.7-2.6l-2.6-1.8c-0.4-0.3-0.9-0.6-1.3-0.8
				c-1.4-0.8-2.8-1.4-4.4-1.7l-31.7-7.4C552.9,474.7,554.2,476.6,555.8,478.5z"/>
		</g>
		<path id="XMLID_1990_" class="st8" d="M472.7,469.4v65.8l-13.8-26.7l-4.7-24.5c-2.1-11.2-12.2-19.2-23.6-18.7l-3.4,0.1v52
			l30.8,57.3l40.1,44.6l12,10.6c4.3,3.8,7.3,8.8,8.6,14.4l17,72.6l119.5-0.2l-44.6-107c-0.9-2.4-1.4-5-1.4-7.7l-0.7-90.1
			c-0.1-9.9-4.9-19.2-13-24.9l-6.3-4.4c-1.7-1.2-3.7-2.1-5.7-2.6l-37-8.7l-14-27.6c-3.3-6.4-9.9-10.4-17.1-10.3l-15.5,0.3
			l-24.3-79.1c-1.5-4.7-5.8-8-10.8-8l0,0c-7,0-12.3,6.3-11.1,13.2L472.7,469.4z"/>
		<polygon id="XMLID_1993_" class="st6" points="626.7,636.1 655.2,718.3 533.3,716.9 518.7,661.3 		"/>
		<polygon id="XMLID_1994_" class="st8" points="626.7,636.1 655.2,716.7 533.3,716.9 518.7,661.3 		"/>
		<path id="XMLID_1992_" class="st5" d="M466.3,432.5l-6.6,12.4c-1.2,2.3-1.7,5-1.4,7.6l2.7,24.7c0.6,5.3,5.1,9.4,10.5,9.4h1.2
			v-17.3L466.3,432.5z"/>
		<path id="XMLID_1989_" class="st8" d="M466.3,432.5l-6.6,12.4c-1.2,2.3-1.7,5-1.4,7.6l2.7,24.7c0.6,5.3,5.1,9.4,10.5,9.4h1.2
			v-17.3L466.3,432.5z"/>
		<line id="XMLID_1988_" class="st8" x1="500" y1="433.7" x2="507.9" y2="464.4"/>
		<g id="XMLID_668_">
			<path class="st12" d="M626.7,636.1l-24,5.6c-0.6,16.5-2.8,33.3,2.4,48.9c3.3,9.7,9.2,18.2,14.1,27.2l36,0.4L626.7,636.1z"/>
		</g>
	</g>
	<path id="XMLID_348_" class="st15" d="M399.5,234h-29.6l-11.4,83.2h26.4c1.5,0,3-1.2,3.2-2.8l13.6-77.6
		C402,235.2,401,234,399.5,234z"/>
	<g id="XMLID_337_">
		<path id="XMLID_798_" class="st5" d="M374.9,308.2H221.7c-1.5,0-2.5-1.2-2.3-2.8l13.6-77.6c0.3-1.5,1.7-2.8,3.2-2.8h153.2
			c1.5,0,2.5,1.2,2.3,2.8l-13.6,77.6C377.9,306.9,376.4,308.2,374.9,308.2z"/>
		<polygon id="XMLID_747_" class="st1" points="342.8,245.4 294.6,245.4 295.4,240.8 343.6,240.8 		"/>
		<polygon id="XMLID_738_" class="st1" points="320.5,254.7 292.9,254.7 293.7,250 321.3,250 		"/>
		<polygon id="XMLID_345_" class="st1" points="343.7,283.3 241.6,283.3 242.4,278.7 344.6,278.7 		"/>
		<polygon id="XMLID_344_" class="st1" points="321.5,292.6 239.9,292.6 240.7,287.9 322.3,287.9 		"/>
		<g id="XMLID_836_">
			<path id="XMLID_837_" class="st4" d="M282.5,250.6c-1.9,12.1-13.2,21.9-25.3,21.9c-12.1,0-20.4-9.8-18.6-21.9
				c1.9-12.1,13.2-21.9,25.3-21.9C276.1,228.7,284.4,238.5,282.5,250.6z"/>
		</g>
		<g id="XMLID_339_">
			<path id="XMLID_340_" class="st6" d="M270.3,255.7c-0.8,2.6-2.4,4.8-4.8,6.4s-5.1,2.4-8.1,2.4c-2,0-4-0.4-5.9-1.1
				s-3.6-1.8-4.9-3.2l4.7-4.7c2.1,2.2,4.8,3.2,7.9,3.2c1,0,1.8-0.2,2.5-0.6s1.1-0.9,1.3-1.5c0.2-0.6,0-1.2-0.6-1.7s-1.6-1-2.9-1.5
				s-2.3-0.9-3-1.2c-0.7-0.3-1.4-0.8-2.2-1.4c-1.6-1.3-2.1-3.1-1.3-5.6c0.7-2.5,2.4-4.5,4.8-6.1c2.5-1.6,5.3-2.3,8.4-2.3
				c3.2,0,6,1.1,8.5,3.2l-4.3,5c-1.8-1.6-3.9-2.4-6.2-2.4c-2.3,0-3.7,0.6-4,1.9c-0.2,0.7,0,1.2,0.6,1.6s1.7,0.9,3.2,1.4
				s2.6,0.9,3.2,1.2c0.6,0.3,1.4,0.7,2.2,1.3C270.8,251.2,271.1,253.1,270.3,255.7z"/>
		</g>
	</g>
	<g id="XMLID_350_">
		<g id="XMLID_365_">
			<path id="XMLID_366_" class="st6" d="M178,390.4h66.2c3.9,0,6.9-2.5,7.6-6.2l8.8-51.2c1-5.5-3.8-11.1-9.6-11.1h-66.2
				c-3.9,0-6.9,2.5-7.6,6.2l-8.8,51.2C167.4,384.9,172.2,390.4,178,390.4z"/>
		</g>
		<g id="XMLID_351_">
			<path id="XMLID_359_" class="st4" d="M234.3,356.1c-2.4,11-13.2,19.9-24.2,19.9s-17.9-8.9-15.5-19.9s13.2-19.9,24.2-19.9
				C229.7,336.3,236.7,345.2,234.3,356.1z"/>
			<g id="XMLID_357_">
				<path id="XMLID_358_" class="st5" d="M223,360.2c-1.1,4.9-6.3,10.5-11.2,10.5c-4.9,0-8-4-7-8.9L223,360.2z"/>
			</g>
			<path id="XMLID_356_" class="st7" d="M205,366.1c0.9,2.8,3.4,4.7,6.8,4.7c3.5,0,7.2-2.9,9.4-6.4L205,366.1z"/>
			<g id="XMLID_354_">
				<path id="XMLID_355_" class="st7" d="M213.9,351c0.4-1.7-0.7-3.1-2.4-3.1c-0.9,0-1.7,0.4-2.4,0.9c-0.4-0.6-1.1-0.9-2-0.9
					c-1.7,0-3.4,1.4-3.8,3.1c-0.2,0.8,0,1.6,0.4,2.1l3.5,4.4l5.5-4.5c0.1-0.1,0.2-0.2,0.2-0.2C213.3,352.3,213.7,351.6,213.9,351z"
					/>
			</g>
			<g id="XMLID_352_">
				<path id="XMLID_353_" class="st7" d="M228.9,351c0.4-1.7-0.7-3.1-2.4-3.1c-0.9,0-1.7,0.4-2.4,0.9c-0.4-0.6-1.1-0.9-2-0.9
					c-1.7,0-3.4,1.4-3.8,3.1c-0.2,0.8,0,1.6,0.4,2.1l3.5,4.4l5.5-4.5c0.1-0.1,0.2-0.2,0.2-0.2C228.4,352.3,228.8,351.7,228.9,351z"
					/>
			</g>
		</g>
	</g>
	<g id="XMLID_435_">
		<path id="XMLID_448_" class="st5" d="M803.7,440.6H671.9c-3.5,0-5.8-2.8-5.3-6.3l10.9-72.3c0.5-3.5,3.7-6.3,7.2-6.3h131.7
			c3.5,0,5.8,2.8,5.3,6.3l-10.8,72.3C810.3,437.8,807.1,440.6,803.7,440.6z"/>
		<g id="XMLID_442_">
			<path id="XMLID_406_" class="st7" d="M732.7,398.2c-1.9,12.9-14,23.3-26.9,23.3S684,411,686,398.2c1.9-12.9,14-23.3,26.9-23.3
				C725.8,374.8,734.7,385.3,732.7,398.2z"/>
			<path id="XMLID_405_" class="st5" d="M717.8,399.5l-16.3,8.7c-1.1,0.6-2.3-0.1-2.1-1.3l2.6-17.3c0.2-1.2,1.6-1.9,2.5-1.3
				l13.7,8.7C719.1,397.5,718.9,398.9,717.8,399.5z"/>
		</g>
		<polygon id="XMLID_441_" class="st4" points="807.2,385.1 743.2,385.1 744.1,379.4 808.1,379.4 		"/>
		<polygon id="XMLID_439_" class="st4" points="804.8,401 740.8,401 741.7,395.3 805.7,395.3 		"/>
		<polygon id="XMLID_437_" class="st6" points="770.4,416.9 738.4,416.9 739.3,411.2 771.3,411.2 		"/>
	</g>
	<g id="XMLID_506_">
		<path id="XMLID_535_" class="st1" d="M266.7,494.7l-55.4,0.5c-8,0.1-14.1-7.1-12.8-14.9l9.6-57.4c1.2-7.1,7.3-12.3,14.5-12.4
			L278,410c8-0.1,14.1,7.1,12.8,14.9l-9.6,57.4C280,489.4,273.9,494.6,266.7,494.7z"/>
		<g id="XMLID_509_">
			<g id="XMLID_526_">
				<g id="XMLID_527_">
					<path id="XMLID_533_" class="st5" d="M237.3,464.2c0,3.4-4,6.8-9.1,7.7c-5,0.8-9.1-1.2-9.2-4.6c0-3.4,4-6.8,9.1-7.7
						C233.2,458.8,237.3,460.9,237.3,464.2z"/>
				</g>
			</g>
			<g id="XMLID_677_">
				<g id="XMLID_524_">
					<path id="XMLID_525_" class="st5" d="M232.1,463.3c0,1.9-2.2,3.8-5,4.3s-5.1-0.7-5.1-2.6c0-1.9,2.2-3.8,5-4.3
						C229.8,460.3,232.1,461.4,232.1,463.3z"/>
				</g>
			</g>
			<g id="XMLID_517_">
				<g id="XMLID_520_">
					<path id="XMLID_523_" class="st5" d="M260,464.2c0,3.4-4,6.8-9.1,7.7c-5,0.8-9.1-1.2-9.2-4.6c0-3.4,4-6.8,9.1-7.7
						C255.9,458.8,260,460.9,260,464.2z"/>
				</g>
			</g>
			<g id="XMLID_619_">
				<g id="XMLID_513_">
					<g id="XMLID_514_">
						<path id="XMLID_516_" class="st5" d="M235.2,466.4c-1,0-1.6-0.8-1.5-1.7l4.7-28.7c0.2-1,1.1-1.7,2-1.7c1,0,1.6,0.8,1.5,1.7
							l-4.7,28.7C237.1,465.6,236.2,466.4,235.2,466.4z"/>
					</g>
				</g>
			</g>
			<g id="XMLID_615_">
				<g id="XMLID_511_">
					<g id="XMLID_617_">
						<path id="XMLID_512_" class="st5" d="M258,466.4c-1,0-1.6-0.8-1.5-1.7l4.7-28.7c0.2-1,1.1-1.7,2-1.7c1,0,1.6,0.8,1.5,1.7
							l-4.7,28.7C259.8,465.6,258.9,466.4,258,466.4z"/>
					</g>
				</g>
			</g>
			<g id="XMLID_581_">
				<g id="XMLID_510_">
					<polygon id="XMLID_609_" class="st5" points="264,440.2 237.8,440.2 239,433 265.2,433 					"/>
				</g>
			</g>
			<g id="XMLID_570_">
				<g id="XMLID_571_">
					<path id="XMLID_580_" class="st5" d="M254.4,463.9c0,1.9-2.2,3.8-5,4.3s-5.1-0.7-5.1-2.6c0-1.9,2.2-3.8,5-4.3
						C252.1,460.9,254.4,462,254.4,463.9z"/>
				</g>
			</g>
		</g>
	</g>
	<g id="XMLID_490_">
		<path id="XMLID_502_" class="st5" d="M368.9,188.7l-61.1,0.6c-8.8,0.1-15.5-7.8-14.1-16.5l10.6-63.4c1.3-7.8,8-13.6,16-13.7
			l61.1-0.6c8.8-0.1,15.5,7.8,14.1,16.5L384.9,175C383.5,182.9,376.8,188.6,368.9,188.7z"/>
		<path id="XMLID_1108_" class="st6" d="M393.9,120.7l1.5-9c1.4-8.7-5.3-16.6-14.1-16.5l-61.1,0.6c-7.9,0.1-14.7,5.8-16,13.7
			l-1.9,11.3h91.6V120.7z"/>
		<g id="XMLID_491_">
			<path id="XMLID_494_" class="st6" d="M331.2,148.5c1.1-1.2,1.7-2.4,1.9-3.6c0.2-1.2,0-2.1-0.7-2.9c-0.6-0.8-1.6-1.2-2.8-1.2
				c-2.2,0-4.5,1.6-6.9,4.7l-5.6-3.7c2-2.5,4.1-4.4,6.2-5.7c2.1-1.3,4.7-1.9,7.7-1.9s5.5,1,7.5,2.9s2.7,4.5,2.2,7.8
				c-0.3,1.8-1,3.5-2.2,5.1s-3.2,3.7-6,6.3l-7.3,6.5h13.7l-1.1,7h-24.5l0.9-5.8l11.8-10.4C328.4,151.4,330.1,149.7,331.2,148.5z"/>
			<path id="XMLID_492_" class="st6" d="M371.1,134.9l-1.1,6.7h-13.7l-0.9,5.8c1.1-0.3,2.3-0.4,3.6-0.4c3.3,0,6.1,1,8.2,3
				c2.1,2,2.9,4.8,2.3,8.2c-0.5,3.4-2.2,6.3-5.1,8.5c-2.9,2.2-6.1,3.4-9.8,3.4c-4.7,0-8.4-1.7-11-5.2l5-5.7c0.3,0.3,0.6,0.7,1,1.1
				c0.4,0.4,1.3,1,2.5,1.7s2.5,1.1,3.8,1.1s2.6-0.4,3.7-1.2c1.2-0.8,1.9-2,2.1-3.5c0.2-1.6-0.1-2.8-1.1-3.6c-1-0.8-2.3-1.3-4.1-1.3
				s-3.9,0.6-6.4,1.9l-3.3-0.1L350,135h21.1V134.9z"/>
		</g>
	</g>
	<g id="XMLID_433_">
		<path id="XMLID_489_" class="st7" d="M171.6,296.4l-52.8,0.5c-7.6,0.1-13.4-6.7-12.2-14.2l9.1-54.8c1.1-6.8,6.9-11.7,13.8-11.8
			l52.8-0.5c7.6-0.1,13.4,6.7,12.2,14.2l-9.1,54.8C184.3,291.4,178.5,296.3,171.6,296.4z"/>
		<g id="XMLID_444_">
			<g id="XMLID_446_">
				<g id="XMLID_479_">
					<path id="XMLID_480_" class="st5" d="M155.9,275.1c-3.7,1.8-7.3,2.4-11.4,2.4c-10,0-17-7.4-14.5-19.1
						c2.7-12.6,13.7-23.5,27.3-23.5c10.7,0,16.2,7.5,14.1,17.7c-1.9,9.2-8.2,14.6-14,14.6c-2.4,0-4.4-1.7-3.4-5.4h-0.2
						c-2.9,3.6-6.1,5.4-9.8,5.4c-3.6,0-6-2.9-5-7.7c1.6-7.6,9.1-14.5,17.6-14.5c2.6,0,4.8,0.5,6.3,1.3l-4.4,11.1
						c-1.9,4.7-1.6,6.8,0.4,6.9c3.1,0.1,7.5-4.1,9-11.2c1.9-8.9-2.1-15.2-11.6-15.2c-10,0-20.1,7.9-22.7,20.3
						c-2.2,10.2,3.2,16.5,12.2,16.5c3.5,0,6.9-0.7,9.7-2.1L155.9,275.1z M158.1,248.6c-0.6-0.2-1.6-0.4-3-0.4
						c-5.4,0-10.8,5.1-12.1,11c-0.6,2.7,0.4,4.7,3.1,4.7c3.6,0,7.8-4.5,9.2-8.3L158.1,248.6z"/>
				</g>
			</g>
		</g>
	</g>
	<g id="XMLID_1255_">
		<path id="XMLID_1273_" class="st6" d="M612.9,452.6l-35.3,0.3c-5.1,0-9-4.5-8.1-9.5l6.1-36.6c0.8-4.5,4.6-7.8,9.2-7.9l35.3-0.3
			c5.1,0,9,4.5,8.1,9.5l-6.1,36.6C621.3,449.2,617.4,452.6,612.9,452.6z"/>
		<path id="XMLID_1266_" class="st5" d="M612.2,422.9c0.4-0.3,0.3-0.8-0.1-0.9l-8.2-1.1c-0.1,0-0.1,0-0.2-0.1l0,0
			c-0.1,0-0.1-0.1-0.1-0.2l-1.1-4.5l0,0l-0.7-3.1c-0.1-0.4-0.6-0.4-0.9,0l-5.9,7.8c-0.1,0.2-0.3,0.3-0.5,0.3l-8.9,1.3
			c-0.4,0.1-0.7,0.6-0.5,0.9l3.1,4l0,0l1.5,1.9c0.1,0.1,0.1,0.3,0,0.5l-2.6,5.9l0,0l-0.1,0.3l-1,2.3c-0.1,0.3,0,0.6,0.3,0.6
			c0.1,0,0.2,0,0.3-0.1l8.7-4.1c0.2-0.1,0.3-0.1,0.5,0l6.6,3.9c0.3,0.2,0.8-0.1,0.9-0.5l0.8-8.5c0-0.2,0.1-0.3,0.3-0.5L612.2,422.9z
			"/>
	</g>
	<g id="XMLID_363_">
		<path id="XMLID_593_" class="st7" d="M146.5,490l-46.9,0.4c-6.8,0.1-11.9-6-10.8-12.6l8.1-48.7c1-6,6.2-10.4,12.3-10.5l46.9-0.4
			c6.8-0.1,11.9,6,10.8,12.6l-8.1,48.7C157.8,485.5,152.6,489.9,146.5,490z"/>
		<g id="XMLID_455_">
			<path id="XMLID_371_" class="st5" d="M121.4,451.1c1.7-3.2,0.4-5.8-2.8-5.8c-1.6,0-3.5,0.7-5.1,1.8c-0.5-1.1-1.6-1.8-3.2-1.8
				c-3.2,0-7.2,2.6-8.9,5.8c-0.8,1.6-0.9,3-0.5,4l4,8.3l13-8.5c0.1-0.1,0.6-0.4,0.6-0.4C119.7,453.6,120.8,452.4,121.4,451.1z"/>
			<g id="XMLID_456_">
				<path id="XMLID_477_" class="st5" d="M124.9,452.3l2-3.8h8.6l-1.1,2l-10,9.9h-2.9l9.6-9.6h-3l-0.8,1.5L124.9,452.3L124.9,452.3z
					"/>
				<path id="XMLID_475_" class="st5" d="M144.6,448.4l-1.2,2.3h-4.7l-1,2c0.4-0.1,0.8-0.2,1.3-0.2c1.1,0,2,0.3,2.4,1
					c0.5,0.7,0.4,1.6-0.2,2.8s-1.6,2.2-2.8,2.9c-1.3,0.8-2.5,1.2-3.8,1.2c-1.6,0-2.7-0.6-3.1-1.8l2.4-1.9c0,0.1,0.1,0.2,0.2,0.4
					c0.1,0.1,0.3,0.3,0.6,0.6c0.3,0.2,0.7,0.4,1.2,0.4s0.9-0.1,1.4-0.4c0.5-0.3,0.9-0.7,1.2-1.2c0.3-0.5,0.3-0.9,0.1-1.2
					c-0.2-0.3-0.6-0.4-1.2-0.4s-1.4,0.2-2.4,0.6l-0.5-1.2l3-5.8L144.6,448.4L144.6,448.4z"/>
				<path id="XMLID_458_" class="st5" d="M145.7,460.5c-1.7,0-2.6-0.6-2.8-1.7c-0.2-1.1,0.1-2.6,1.1-4.5s2.2-3.4,3.6-4.5
					s2.9-1.7,4.6-1.7s2.6,0.6,2.8,1.7c0.2,1.1-0.1,2.6-1.1,4.5s-2.2,3.4-3.6,4.5C148.9,459.9,147.4,460.5,145.7,460.5z M148.7,451.5
					c-0.8,0.7-1.4,1.7-2.1,2.9c-0.6,1.2-0.9,2.2-0.9,2.9s0.4,1.1,1.2,1.1c0.8,0,1.6-0.4,2.3-1.1c0.8-0.7,1.4-1.7,2.1-2.9
					c0.6-1.2,0.9-2.2,0.9-2.9s-0.4-1.1-1.2-1.1C150.2,450.4,149.4,450.7,148.7,451.5z"/>
			</g>
		</g>
	</g>
	<g id="XMLID_361_">
		<path id="XMLID_601_" class="st6" d="M521,160.8l-52.8,0.5c-7.6,0.1-13.4-6.7-12.2-14.2l9.1-54.8c1.1-6.8,6.9-11.7,13.8-11.8
			l52.8-0.5c7.6-0.1,13.4,6.7,12.2,14.2l-9.1,54.8C533.6,155.8,527.8,160.8,521,160.8z"/>
		<g id="XMLID_402_">
			<g id="XMLID_434_">
				<g id="XMLID_730_">
					<path id="XMLID_739_" class="st5" d="M501,117.5l1-2.6h8.5l-0.8,2.1l-4,3.2c1,0.2,1.7,0.6,2.1,1.4c0.3,0.7,0.3,1.6,0,2.6
						c-0.5,1.4-1.4,2.6-2.7,3.4s-2.7,1.2-4.2,1.2s-2.9-0.5-4-1.6l2.2-2.4c1,0.9,2,1.4,3,1.4c0.6,0,1.2-0.2,1.7-0.5s0.9-0.7,1.1-1.3
						c0.2-0.6,0.1-1-0.2-1.4c-0.3-0.3-0.9-0.5-1.7-0.5c-0.4,0-1.1,0.1-2,0.4l0.8-2.3l3.8-3.1L501,117.5L501,117.5z"/>
					<path id="XMLID_733_" class="st5" d="M522.2,114.9l-1,2.7h-5.5l-0.8,2.3c0.5-0.1,0.9-0.2,1.5-0.2c1.3,0,2.3,0.4,3,1.2
						c0.7,0.8,0.7,1.9,0.2,3.3s-1.4,2.5-2.7,3.4c-1.3,0.9-2.7,1.3-4.2,1.3c-1.9,0-3.2-0.7-3.9-2.1l2.5-2.3c0.1,0.1,0.2,0.3,0.3,0.4
						c0.1,0.2,0.4,0.4,0.8,0.7c0.4,0.3,0.9,0.4,1.4,0.4s1.1-0.2,1.6-0.5s0.9-0.8,1.1-1.4c0.2-0.6,0.2-1.1-0.1-1.4
						c-0.3-0.3-0.8-0.5-1.5-0.5c-0.7,0-1.6,0.3-2.7,0.8l-0.8-1.4l2.5-6.7L522.2,114.9L522.2,114.9z"/>
					<path id="XMLID_731_" class="st5" d="M527.3,122.7l0.9-2.4h3l-0.9,2.4h1.6l-1,2.7h-1.6l-1.2,3.3h-3l1.2-3.3h-5.6l0.9-2.4
						l7.9-8.2h3.4l-7.6,7.8h2V122.7z"/>
				</g>
			</g>
			<g id="XMLID_367_">
				<g id="XMLID_368_">
					<path id="XMLID_369_" class="st5" d="M488.5,134.4l1.3-7.1c1.4-1.7,2.5-3.5,3.2-5.5c2.7-7.4-1.1-13.4-8.5-13.4
						s-15.6,6-18.3,13.4s1.1,13.4,8.5,13.4c2.6,0,5.3-0.8,7.9-2.1L488.5,134.4z"/>
				</g>
			</g>
		</g>
	</g>
	<g id="XMLID_233_">
		<path id="XMLID_386_" class="st7" d="M647.6,216.1l-48.3,0.5c-7,0.1-12.3-6.2-11.1-13l8.4-50.1c1-6.2,6.4-10.7,12.6-10.8l48.3-0.5
			c7-0.1,12.3,6.2,11.1,13l-8.4,50.1C659.2,211.5,653.9,216.1,647.6,216.1z"/>
		<path id="XMLID_103_" class="st5" d="M637.3,186.1c-2.1,0-4.1,0.8-5.6,2.2l-8.8-6.6c0.4-0.8,0.6-1.5,0.8-2.4
			c0.1-0.8,0.1-1.5-0.1-2.2l10.7-6.4c1.2,1.3,2.9,2,4.8,2c4.1,0,8-3.4,8.5-7.5c0.6-4.1-2.3-7.5-6.5-7.5c-4.2,0-8,3.4-8.5,7.5
			c-0.1,0.9-0.1,1.7,0.1,2.5l-10.6,6.3c-1.2-1.4-2.9-2.2-5-2.2c-4.1,0-8,3.4-8.5,7.5c-0.6,4.1,2.3,7.5,6.5,7.5c2,0,4-0.8,5.5-2.1
			l8.8,6.7c-0.3,0.7-0.6,1.5-0.7,2.2c-0.6,4.1,2.3,7.5,6.5,7.5c4.2,0,8-3.4,8.5-7.5C644.3,189.4,641.5,186.1,637.3,186.1z"/>
	</g>
</g>
</svg>
