<?xml version="1.0" encoding="utf-8"?>
<!-- Generator: Adobe Illustrator 23.0.1, SVG Export Plug-In . SVG Version: 6.00 Build 0)  -->
<svg version="1.1" id="Online_Library" xmlns="http://www.w3.org/2000/svg" xmlns:xlink="http://www.w3.org/1999/xlink" x="0px"
	 y="0px" viewBox="0 0 976.3 676" style="enable-background:new 0 0 976.3 676;" xml:space="preserve">
<style type="text/css">
	.st0{fill:#DBE8FA;}
	.st1{fill:#FFFFFF;}
	.st2{fill:none;stroke:#002DAA;stroke-width:2;stroke-linecap:round;stroke-miterlimit:10;}
	.st3{fill:#D1E1F2;}
	.st4{fill:#B3CDFA;}
	.st5{fill:#1067DB;}
	.st6{fill:#70A4E9;}
	.st7{fill:none;stroke:#002DAA;stroke-linecap:round;stroke-miterlimit:10;}
	.st8{fill:#FF5722;}
	.st9{fill:url(#XMLID_2_);}
	.st10{fill:none;stroke:#002DAA;stroke-width:2;stroke-miterlimit:10;}
	.st11{fill:#CFE1F8;}
	.st12{fill:url(#XMLID_3_);}
	.st13{fill:url(#XMLID_4_);}
	.st14{fill:none;stroke:#002DAA;stroke-miterlimit:10;}
	.st15{fill:#002DAA;}
	.st16{fill:#D1D3D4;}
	.st17{fill:#E1EBFD;}
	.st18{fill:#002280;}
	.st19{fill:#0C4DA4;}
	.st20{fill:#EEF4FC;}
	.st21{opacity:0.3;fill:#002280;enable-background:new    ;}
	.st22{fill:#4085E2;}
	.st23{opacity:0.3;fill:#0C4DA4;enable-background:new    ;}
	.st24{fill:#3357BB;}
	.st25{fill:url(#XMLID_6_);}
	.st26{fill:url(#XMLID_7_);}
	.st27{fill:url(#XMLID_8_);}
	.st28{fill:url(#XMLID_9_);}
	.st29{fill:#2876DF;}
	.st30{fill:url(#XMLID_10_);}
	.st31{fill:url(#XMLID_11_);}
	.st32{fill:#FF794E;}
</style>
<g id="XMLID_5_">
	<g id="XMLID_873_">
		<path class="st0" d="M944.3,299.4c0.1-59-20.6-117.9-57.7-163.7c-21.3-26.3-51.1-49.6-84.9-48.8c-28.1,0.7-52.8,17.8-79.6,26.3
			c-33.3,10.7-70.8,7.7-102-8.1c-25.7-13-46.7-33.9-72.1-47.3C508.8,37.2,462.4,36,418.2,38.9c-33,2.2-66.6,6.5-96.6,20.5
			s-56.3,39-64.8,71c-7.1,26.4-1.5,54.7-5.9,81.7c-4.9,30.3-22.7,58.2-48.2,75.3c-32.6,22-75.2,26-106.8,49.4
			c-40.3,29.7-54.1,87.1-40.5,135.3c11.3,40,38,70.7,69.4,96.6c11.8,9.7,21.7,23.9,35.8,29.9c19.4,8.3,41.5,6.1,60.5,16.7
			c8.8,4.9,15.7,14.4,25,17.3c9.4,2.9,21.3-1.3,30.9-1.3c42.7,0.2,85.4,0.3,128.1,0.5c101.6,0.4,203.3,0.8,304.9,1.2l0,0
			c20.2,0.1,46.3,4.1,65.1-1.1c-5.4,1.5,5.3-43.4,7.1-47.8c7.2-18,18.8-34.1,31.7-48.4c20.5-22.8,44.8-42,65.1-65
			c40.2-45.5,63.7-105.5,65.1-166.2C944.3,302.8,944.3,301.1,944.3,299.4z"/>
	</g>
	<g id="XMLID_651_">
		<path id="XMLID_735_" class="st1" d="M320.3,298.1c0-7.4-6-13.3-13.3-13.3c-2,0-3.9,0.5-5.6,1.4c-2.5-5.2-7.3-8.8-13.1-10
			c0.3-1.3,0.8-2.6,0.8-4c0-12.3-9.9-22.2-22.2-22.2c-5.8,0-11,2.3-14.9,6c-1.5-21.2-18.9-37.9-40.5-37.9
			c-18.7,0-34.3,12.7-39.1,29.9c-1.8-0.4-3.7-0.6-5.6-0.6c-13,0-23.8,8.9-27,20.9c-2.9-1.2-6.1-1.9-9.4-1.9
			c-14.1,0-25.5,11.4-25.5,25.5c0,4.8,1.7,9,3.9,12.8h209.6C319.5,302.7,320.3,300.5,320.3,298.1z"/>
		<line id="XMLID_734_" class="st2" x1="166.2" y1="304.6" x2="320.3" y2="304.6"/>
		<line id="XMLID_732_" class="st2" x1="179.6" y1="304.6" x2="109.5" y2="304.6"/>
		<path id="XMLID_723_" class="st3" d="M282.9,279.4c-6,4.2-14.3,2.8-18.5-3.2c-0.9-1.2-1.4-2.6-1.8-3.9c0.1,2.5,0.8,5.1,2.4,7.3
			c4.2,6,12.5,7.4,18.5,3.2l0,0c4.7-3.3,6.6-9.3,5-14.6C288.6,272.4,286.7,276.7,282.9,279.4z"/>
		<path id="XMLID_653_" class="st2" d="M289,272.2c0-12.3-9.9-22.2-22.2-22.2c-5.8,0-11,2.3-14.9,6c-1.5-21.2-18.9-37.9-40.5-37.9
			c-18.7,0-34.3,12.7-39.1,29.9"/>
	</g>
	<path id="XMLID_1254_" class="st4" d="M303.5,485.9h15c3,0,6-2.5,6.5-5.5l3.5-19.2c0.6-3-1.5-5.5-4.5-5.5h-11.8
		c-1.9,0-3.4-1.3-3.8-3.1c-0.2-1.1-0.5-2.2-0.8-3.3c-0.5-1.8,0.2-3.9,1.8-5.2l9.8-8.3c2.5-2.2,3.2-5.6,1.4-7.8l-11.1-13.6
		c-1.8-2.2-5.3-2.2-7.8,0l-9.9,8.4c-1.6,1.3-3.6,1.7-5.2,1c-1.1-0.5-2.3-1-3.3-1.5c-1.6-0.7-2.5-2.4-2.1-4.2l2.2-11.9
		c0.6-3-1.5-5.5-4.5-5.5h-19.2c-3,0-6,2.5-6.5,5.5l-2.1,11.8c-0.4,1.9-1.9,3.6-3.9,4.3c-1.2,0.4-2.5,0.9-3.7,1.4
		c-1.9,0.8-3.9,0.5-5.1-0.8l-6.8-8.3c-1.8-2.1-5.3-2.1-7.8,0l-16,13.6c-2.5,2.2-3.2,5.7-1.4,7.8l6.9,8.4c1.1,1.3,1.1,3.3,0.1,5
		c-0.7,1.2-1.5,2.5-2.1,3.6c-1,1.7-2.9,2.9-4.8,2.9h-11.9c-3,0-6,2.5-6.5,5.5l-3.4,19.2c-0.5,3,1.5,5.5,4.5,5.5H201
		c1.9,0,3.4,1.3,3.8,3.1c0.2,1.1,0.5,2.2,0.8,3.2c0.5,1.8-0.2,3.9-1.8,5.2l-9.8,8.3c-2.5,2.2-3.2,5.6-1.4,7.8l11.1,13.5
		c1.8,2.1,5.3,2.1,7.8,0l9.9-8.4c1.6-1.3,3.6-1.7,5.2-1c1.1,0.5,2.3,1,3.3,1.5c1.6,0.7,2.5,2.4,2.1,4.2l-2.1,11.9
		c-0.5,3,1.5,5.5,4.5,5.5h19.2c3,0,6-2.5,6.5-5.5l2.1-11.8c0.4-1.9,1.9-3.6,3.9-4.3c1.2-0.4,2.3-0.9,3.5-1.4
		c1.9-0.8,3.9-0.5,5.1,0.9l6.8,8.3c1.8,2.2,5.3,2.1,7.8,0l16-13.6c2.5-2.2,3.2-5.6,1.4-7.8l-6.9-8.4c-1.1-1.3-1.1-3.3-0.1-5
		C301.5,489.5,303.4,486.1,303.5,485.9z M230.7,465.9c6.3-17,25.6-26.5,40.3-20.5c11.2,4.6,16.1,17.6,11.4,30.2
		c-6.3,17-25.6,26.5-40.3,20.5C231,491.5,226.1,478.5,230.7,465.9z"/>
	<path id="XMLID_1251_" class="st4" d="M790.4,268.4h15c3,0,6-2.5,6.5-5.5l3.5-19.2c0.6-3-1.5-5.5-4.5-5.5h-11.8
		c-1.9,0-3.4-1.3-3.8-3.1c-0.2-1.1-0.5-2.2-0.8-3.3c-0.5-1.8,0.2-3.9,1.8-5.2l9.8-8.3c2.5-2.2,3.2-5.6,1.4-7.8l-11.1-13.6
		c-1.8-2.2-5.3-2.2-7.8,0l-9.9,8.4c-1.6,1.3-3.6,1.7-5.2,1c-1.1-0.5-2.3-1-3.3-1.5c-1.6-0.7-2.5-2.4-2.1-4.2l2.2-11.9
		c0.6-3-1.5-5.5-4.5-5.5h-19.2c-3,0-6,2.5-6.5,5.5l-2.1,11.8c-0.4,1.9-1.9,3.6-3.9,4.3c-1.2,0.4-2.5,0.9-3.7,1.4
		c-1.9,0.8-3.9,0.5-5.1-0.8l-6.8-8.3c-1.8-2.1-5.3-2.1-7.8,0l-16,13.6c-2.5,2.2-3.2,5.7-1.4,7.8l6.9,8.4c1.1,1.3,1.1,3.3,0.1,5
		c-0.7,1.2-1.5,2.5-2.1,3.6c-1,1.7-2.9,2.9-4.8,2.9h-11.9c-3,0-6,2.5-6.5,5.5l-3.4,19.2c-0.5,3,1.5,5.5,4.5,5.5h11.8
		c1.9,0,3.4,1.3,3.8,3.1c0.2,1.1,0.5,2.2,0.8,3.2c0.5,1.8-0.2,3.9-1.8,5.2l-9.8,8.3c-2.5,2.2-3.2,5.6-1.4,7.8l11.1,13.5
		c1.8,2.1,5.3,2.1,7.8,0l9.9-8.4c1.6-1.3,3.6-1.7,5.2-1c1.1,0.5,2.3,1,3.3,1.5c1.6,0.7,2.5,2.4,2.1,4.2l-2.1,11.9
		c-0.5,3,1.5,5.5,4.5,5.5h19.2c3,0,6-2.5,6.5-5.5l2.1-11.8c0.4-1.9,1.9-3.6,3.9-4.3c1.2-0.4,2.3-0.9,3.5-1.4
		c1.9-0.8,3.9-0.5,5.1,0.9l6.8,8.3c1.8,2.2,5.3,2.1,7.8,0l16-13.6c2.5-2.2,3.2-5.6,1.4-7.8l-6.9-8.4c-1.1-1.3-1.1-3.3-0.1-5
		C788.4,272.1,790.3,268.6,790.4,268.4z M717.7,248.5c6.3-17,25.6-26.5,40.3-20.5c11.2,4.6,16.1,17.6,11.4,30.2
		c-6.3,17-25.6,26.5-40.3,20.5C717.9,274.1,713,261.1,717.7,248.5z"/>
	<g id="XMLID_1163_">
		<path id="XMLID_1174_" class="st5" d="M792.1,525.7c0,0-73.3-61.9-39.9-135.9c0,0,5.7,28.1,25.8,44.3
			C778,434.1,816.4,483.6,792.1,525.7z"/>
		<path id="XMLID_1173_" class="st5" d="M899.3,546.9c0,0-14,53.6-85.3,28.1c0,0-2.5-20,34.4-23.6c5.8-0.6,11.7,0.4,17.2,2.2
			C872.9,556,885.6,557.4,899.3,546.9z"/>
		<path id="XMLID_1172_" class="st6" d="M847.2,554c5.8-0.6,11.7,0.4,17.2,2.2c7.2,2.3,19.9,3.7,33.7-6.8c0,0-0.6,2.4-2.3,6
			c2.6-4.8,3.5-8.4,3.5-8.4c-13.8,10.5-26.5,9-33.7,6.8c-5.6-1.8-11.4-2.7-17.2-2.2c-23.1,2.2-30.8,10.9-33.3,17.1
			C818.6,562.8,827,555.9,847.2,554z"/>
		<path id="XMLID_1171_" class="st5" d="M891.1,430.7c0,0-108.5,35.7-88.6,123.1c0,0,19.5,0,42.3-21.6c15-14.2,24.7-33.1,28.8-53.4
			C875.9,467.3,880.8,450.7,891.1,430.7z"/>
		<path id="XMLID_1170_" class="st6" d="M873.6,478.8c2.3-11.5,7.2-28.1,17.5-48.1c0,0,0.3-0.3-4.2,1.6
			c-8.2,17.3-12.2,30.5-14.2,40.8c-4.1,20.3-14.7,44.4-29.7,58.6c-17,16.1-33.8,21.1-40.4,22.1c0.2,1.3-0.3-1.3,0,0
			c0,0,19.5,0,42.3-21.6C859.8,518,869.5,499.1,873.6,478.8z"/>
		<path id="XMLID_1169_" class="st5" d="M761.3,499.9c0,0-21.1-27.8-61.4-0.4c0,0,46.6,2.1,37.3,24.6c0,0-4.7,31.8,16.4,48
			C753.6,572,792.6,528.3,761.3,499.9z"/>
		<path id="XMLID_1168_" class="st6" d="M759.5,501.9c27.2,24.7,1.2,61.1-6,70.1l0,0c0,0,39-43.7,7.8-72.2c0,0-21.1-27.8-61.4-0.4
			c0,0,0.5,0,1.3,0.1C739.5,475.6,759.5,501.9,759.5,501.9z"/>
		<path id="XMLID_1167_" class="st7" d="M867.3,451.4c-18.2,25.6-34.9,52.3-50,79.9c-4.3,7.8-8.4,15.7-13.6,22.9
			c-19.9,27.5-54.5,43.7-68.2,74.8"/>
		<path id="XMLID_1166_" class="st7" d="M867.6,564.8c-19.8,10.8-44.9,3.9-66.4,10.8c-22.1,7.2-42.2,33.8-49.6,55.8"/>
		<path id="XMLID_1165_" class="st7" d="M750.5,419.3c-1.4,13.6,5.1,26.8,12.8,38.1s16.9,21.9,22.1,34.5c5.9,14.3,6.2,30.7,0.9,45.2
			c-4.3,11.8-12.1,22-18.8,32.7c-6.8,10.6-12.7,22.4-12.8,35"/>
		<path id="XMLID_1164_" class="st7" d="M719.5,495.7c6.6,1.4,12.9,3.8,18.7,7.2c3.6,2.1,7.2,4.8,9.1,8.5c1.4,2.9,1.7,6.3,1.9,9.6
			c1.7,23.7,3.4,47.4,5.1,71.1c1,13.2,1.8,26.8-2.6,39.3"/>
	</g>
	<g id="XMLID_1055_">
		<path id="XMLID_1071_" class="st8" d="M258.9,316.7l-67.4,0.6c-9.7,0.1-17.2-8.6-15.6-18.2l11.7-70c1.4-8.6,8.9-15,17.6-15.1
			l67.4-0.6c9.7-0.1,17.2,8.6,15.6,18.2l-11.7,70C275.1,310.2,267.7,316.6,258.9,316.7z"/>
		<g id="XMLID_1103_">
			<path id="XMLID_1054_" class="st1" d="M237.1,282.8l-21.5,3.8c-1.8,0.3-3.2-1-2.8-2.8l0,0c0.3-1.4,1.5-2.6,2.9-2.8l21.5-3.8
				c1.8-0.3,3.2,1,2.8,2.8l0,0C239.7,281.3,238.5,282.5,237.1,282.8z"/>
			<path id="XMLID_1102_" class="st1" d="M235.4,291.7l-21.5,3.8c-1.8,0.3-3.2-1-2.8-2.8l0,0c0.3-1.4,1.5-2.6,2.9-2.8l21.5-3.8
				c1.8-0.3,3.2,1,2.8,2.8l0,0C238,290.2,236.8,291.4,235.4,291.7z"/>
			<path id="XMLID_1105_" class="st1" d="M252.9,249.9c2.2-11.3-5.3-20.5-16.6-20.5c-11.3,0-22.2,9.2-24.4,20.5
				c-1.2,6.2,0.5,11.8,4.2,15.6l-2.4,12.7l27.5-4.9l1.5-7.8C247.8,261.7,251.7,256.1,252.9,249.9z"/>
			<path id="XMLID_1107_" class="st1" d="M220.5,297.1c0,2.1,1.5,3.6,3.6,3.6c2.4,0,4.8-2,5.3-4.4c0.1-0.3,0.1-0.5,0.1-0.8
				L220.5,297.1z"/>
		</g>
	</g>
	<g id="XMLID_737_">
		<path id="XMLID_749_" class="st1" d="M903.6,370.8c0-8-6.4-14.4-14.4-14.4c-2.2,0-4.2,0.6-6.1,1.5c-2.7-5.6-7.9-9.5-14.2-10.8
			c0.3-1.4,0.9-2.8,0.9-4.3c0-13.2-10.7-24-24-24c-6.3,0-11.9,2.5-16.1,6.5c-1.6-22.9-20.5-41-43.7-41c-20.2,0-37.1,13.7-42.2,32.3
			c-1.9-0.4-3.9-0.6-6-0.6c-14,0-25.7,9.6-29.1,22.5c-3.2-1.3-6.6-2.1-10.2-2.1c-15.2,0-27.5,12.3-27.5,27.5c0,5.1,1.8,9.7,4.3,13.8
			h226.3C902.7,375.7,903.6,373.4,903.6,370.8z"/>
		<line id="XMLID_747_" class="st2" x1="737.1" y1="377.8" x2="903.6" y2="377.8"/>
		<line id="XMLID_746_" class="st2" x1="751.7" y1="377.8" x2="675.9" y2="377.8"/>
		<path id="XMLID_739_" class="st3" d="M863.2,350.5c-6.4,4.6-15.4,3-20-3.4c-0.9-1.3-1.6-2.8-2-4.3c0.1,2.7,0.9,5.5,2.6,7.8
			c4.6,6.4,13.5,8,20,3.4l0,0c5.1-3.6,7.1-10,5.4-15.7C869.3,343,867.2,347.6,863.2,350.5z"/>
		<path id="XMLID_738_" class="st2" d="M869.8,342.7c0-13.2-10.7-24-24-24c-6.3,0-11.9,2.5-16.1,6.5c-1.6-22.9-20.5-41-43.7-41
			c-20.2,0-37.1,13.7-42.2,32.3"/>
	</g>
	<g id="XMLID_644_">
		<path id="XMLID_649_" class="st1" d="M744.3,228.3c0-15.3-12.4-27.6-27.6-27.6c-4.2,0-8.1,1.1-11.7,2.8
			c-5.2-10.7-15.2-18.2-27.2-20.7c0.5-2.8,1.7-5.3,1.7-8.2c0-25.4-20.6-46-46-46c-12,0-22.8,4.9-30.9,12.4
			c-3.1-43.8-39.2-78.6-83.9-78.6c-38.8,0-71.1,26.3-81,61.9c-3.7-0.7-7.6-1.2-11.5-1.2c-26.9,0-49.3,18.4-55.9,43.3
			c-6.1-2.4-12.6-3.9-19.5-3.9c-29.1,0-52.7,23.6-52.7,52.7c0,9.9,3.4,18.6,8.2,26.5h434.2C742.6,237.7,744.3,233.2,744.3,228.3z"/>
		<line id="XMLID_648_" class="st2" x1="424.9" y1="241.7" x2="744.3" y2="241.7"/>
		<line id="XMLID_647_" class="st2" x1="452.9" y1="241.7" x2="307.6" y2="241.7"/>
		<path id="XMLID_646_" class="st3" d="M666.8,189.4c-12.4,8.7-29.6,5.8-38.3-6.6c-1.8-2.5-3-5.3-3.8-8.2c0.1,5.2,1.8,10.5,5,15
			c8.7,12.4,26,15.3,38.4,6.6l0,0c9.8-6.9,13.6-19.2,10.4-30.2C678.6,175,674.6,183.9,666.8,189.4z"/>
		<path id="XMLID_645_" class="st2" d="M679.5,174.5c0-25.4-20.6-46-46-46c-12,0-22.8,4.9-30.9,12.4c-3.1-43.8-39.2-78.6-83.9-78.6
			c-38.8,0-71.1,26.3-81,61.9"/>
	</g>
	<path id="XMLID_807_" class="st5" d="M884.6,198.6h8.5c1.7,0,3.4-1.4,3.7-3.1l2-10.9c0.3-1.7-0.8-3.1-2.6-3.1h-6.7
		c-1.1,0-1.9-0.7-2.1-1.7c-0.1-0.6-0.3-1.2-0.4-1.8c-0.3-1,0.1-2.2,1-3l5.6-4.7c1.4-1.2,1.8-3.2,0.8-4.4l-6.3-7.7
		c-1-1.2-3-1.2-4.4,0l-5.6,4.8c-0.9,0.8-2.1,1-3,0.5c-0.6-0.3-1.3-0.6-1.9-0.8c-0.9-0.4-1.4-1.3-1.2-2.4l1.2-6.8
		c0.3-1.7-0.8-3.1-2.6-3.1h-10.9c-1.7,0-3.4,1.4-3.7,3.1l-1.2,6.7c-0.2,1.1-1.1,2.1-2.2,2.4c-0.7,0.2-1.4,0.5-2.1,0.8
		c-1.1,0.5-2.2,0.3-2.9-0.5l-3.9-4.7c-1-1.2-3-1.2-4.4,0l-9.1,7.7c-1.4,1.2-1.8,3.2-0.8,4.4l3.9,4.8c0.6,0.7,0.6,1.9,0,2.9
		c-0.4,0.7-0.8,1.4-1.2,2c-0.6,1-1.6,1.6-2.7,1.6h-6.8c-1.7,0-3.4,1.4-3.7,3.1l-2,10.9c-0.3,1.7,0.8,3.1,2.6,3.1h6.7
		c1.1,0,1.9,0.7,2.1,1.7c0.1,0.6,0.3,1.2,0.4,1.8c0.3,1-0.1,2.2-1,3l-5.6,4.7c-1.4,1.2-1.8,3.2-0.8,4.4l6.3,7.7c1,1.2,3,1.2,4.4,0
		l5.6-4.8c0.9-0.8,2.1-1,3-0.6c0.6,0.3,1.3,0.6,1.9,0.8c0.9,0.4,1.4,1.3,1.2,2.4l-1.2,6.8c-0.3,1.7,0.8,3.1,2.6,3.1H856
		c1.7,0,3.4-1.4,3.7-3.1l1.2-6.7c0.2-1.1,1.1-2.1,2.2-2.4c0.7-0.2,1.3-0.5,2-0.8c1.1-0.5,2.2-0.3,2.9,0.5l3.9,4.7c1,1.2,3,1.2,4.4,0
		l9.1-7.7c1.4-1.2,1.8-3.2,0.8-4.4l-3.9-4.8c-0.6-0.7-0.6-1.9,0-2.9C883.5,200.6,884.6,198.7,884.6,198.6z M843.4,187.2
		c3.6-9.6,14.5-15.1,22.9-11.6c6.3,2.6,9.1,10,6.5,17.2c-3.6,9.6-14.5,15.1-22.9,11.6C843.5,201.8,840.7,194.4,843.4,187.2z"/>
	<path id="XMLID_1258_" class="st5" d="M180.8,448.8h8.5c1.7,0,3.4-1.4,3.7-3.1l2-10.9c0.3-1.7-0.8-3.1-2.6-3.1h-6.7
		c-1.1,0-1.9-0.7-2.1-1.7c-0.1-0.6-0.3-1.2-0.4-1.8c-0.3-1,0.1-2.2,1-3l5.6-4.7c1.4-1.2,1.8-3.2,0.8-4.4l-6.3-7.7
		c-1-1.2-3-1.2-4.4,0l-5.6,4.8c-0.9,0.8-2.1,1-3,0.5c-0.6-0.3-1.3-0.6-1.9-0.8c-0.9-0.4-1.4-1.3-1.2-2.4l1.2-6.8
		c0.3-1.7-0.8-3.1-2.6-3.1h-10.9c-1.7,0-3.4,1.4-3.7,3.1l-1.2,6.7c-0.2,1.1-1.1,2.1-2.2,2.4c-0.7,0.2-1.4,0.5-2.1,0.8
		c-1.1,0.5-2.2,0.3-2.9-0.5l-3.9-4.7c-1-1.2-3-1.2-4.4,0l-9.1,7.7c-1.4,1.2-1.8,3.2-0.8,4.4l3.9,4.8c0.6,0.7,0.6,1.9,0,2.9
		c-0.4,0.7-0.8,1.4-1.2,2c-0.6,1-1.6,1.6-2.7,1.6h-6.8c-1.7,0-3.4,1.4-3.7,3.1l-2,10.9c-0.3,1.7,0.8,3.1,2.6,3.1h6.7
		c1.1,0,1.9,0.7,2.1,1.7c0.1,0.6,0.3,1.2,0.4,1.8c0.3,1-0.1,2.2-1,3l-5.6,4.7c-1.4,1.2-1.8,3.2-0.8,4.4l6.3,7.7c1,1.2,3,1.2,4.4,0
		l5.6-4.8c0.9-0.8,2.1-1,3-0.6c0.6,0.3,1.3,0.6,1.9,0.8c0.9,0.4,1.4,1.3,1.2,2.4l-1.2,6.8c-0.3,1.7,0.8,3.1,2.6,3.1h10.9
		c1.7,0,3.4-1.4,3.7-3.1l1.2-6.7c0.2-1.1,1.1-2.1,2.2-2.4c0.7-0.2,1.3-0.5,2-0.8c1.1-0.5,2.2-0.3,2.9,0.5l3.9,4.7c1,1.2,3,1.2,4.4,0
		l9.1-7.7c1.4-1.2,1.8-3.2,0.8-4.4l-3.9-4.8c-0.6-0.7-0.6-1.9,0-2.9C179.6,450.9,180.7,448.9,180.8,448.8z M139.5,437.5
		c3.6-9.6,14.5-15.1,22.9-11.6c6.3,2.6,9.1,10,6.5,17.2c-3.6,9.6-14.5,15.1-22.9,11.6C139.6,452,136.8,444.6,139.5,437.5z"/>
	<g id="XMLID_17_">
		
			<linearGradient id="XMLID_2_" gradientUnits="userSpaceOnUse" x1="431.9532" y1="1421.3425" x2="549.0532" y2="1421.3425" gradientTransform="matrix(1 0 0 -1 0 1986.1953)">
			<stop  offset="3.802280e-03" style="stop-color:#E3EDFE"/>
			<stop  offset="0.2686" style="stop-color:#F1F6FF"/>
			<stop  offset="0.6035" style="stop-color:#FCFDFF"/>
			<stop  offset="1" style="stop-color:#FFFFFF"/>
		</linearGradient>
		<polygon id="XMLID_472_" class="st9" points="526.6,631.8 432,631.8 454.5,498 549.1,498 		"/>
		<polygon id="XMLID_470_" class="st1" points="533.1,625.1 526.6,625.1 549.1,498 555.6,498 		"/>
		<polygon id="XMLID_469_" class="st10" points="533.1,625.1 526.6,625.1 549.1,498 555.6,498 		"/>
		<path id="XMLID_467_" class="st1" d="M686.6,573.4H276.1c-13,0-22.8-11.6-20.8-24.4l41-256.2c2.3-14.7,15-25.5,29.9-25.5h410.4
			c13,0,22.8,11.6,20.8,24.4l-41,256.2C714.1,562.6,701.5,573.4,686.6,573.4z"/>
		<path id="XMLID_466_" class="st10" d="M736.6,267.3H326.1c-14.9,0-27.5,10.8-29.9,25.5l-41,256.2c-0.4,2.3-0.3,4.6,0,6.8l-1,2.1
			l3.8,5.3c0.5,0.8,1.1,1.7,1.7,2.4l0,0l0,0c3.8,4.7,9.6,7.7,16.3,7.7h410.6c14.9,0,27.5-10.8,29.9-25.5l41-256.2
			C759.5,278.9,749.6,267.3,736.6,267.3z"/>
		<path id="XMLID_415_" class="st11" d="M681.6,567.1H271.1c-13,0-22.8-11.6-20.8-24.4l41-256.2c2.3-14.7,15-25.5,29.9-25.5h410.5
			c13,0,22.8,11.6,20.8,24.4l-41,256.2C709.2,556.3,696.5,567.1,681.6,567.1z"/>
		<path id="XMLID_413_" class="st10" d="M257.7,496.1l33.5-209.6c2.3-14.7,15-25.5,29.9-25.5h410.5c13,0,22.8,11.6,20.8,24.4
			l-33.7,210.7"/>
		
			<linearGradient id="XMLID_3_" gradientUnits="userSpaceOnUse" x1="249.9934" y1="1454.6426" x2="718.7531" y2="1454.6426" gradientTransform="matrix(1 0 0 -1 0 1986.1953)">
			<stop  offset="3.802280e-03" style="stop-color:#E3EDFE"/>
			<stop  offset="0.9609" style="stop-color:#FEFEFF"/>
			<stop  offset="1" style="stop-color:#FFFFFF"/>
		</linearGradient>
		<path id="XMLID_412_" class="st12" d="M250.3,542.7c-2,12.8,7.8,24.4,20.8,24.4h410.5c14.9,0,27.5-10.8,29.9-25.5l7.3-45.5h-461
			L250.3,542.7z"/>
		<path id="XMLID_411_" class="st10" d="M250.3,542.7c-2,12.8,7.8,24.4,20.8,24.4h410.5c14.9,0,27.5-10.8,29.9-25.5l7.3-45.5h-461
			L250.3,542.7z"/>
		
			<linearGradient id="XMLID_4_" gradientUnits="userSpaceOnUse" x1="342.1532" y1="1359.1426" x2="583.3532" y2="1359.1426" gradientTransform="matrix(1 0 0 -1 0 1986.1953)">
			<stop  offset="3.802280e-03" style="stop-color:#E3EDFE"/>
			<stop  offset="0.5239" style="stop-color:#EFF5FE"/>
			<stop  offset="1" style="stop-color:#FFFFFF"/>
		</linearGradient>
		<path id="XMLID_410_" class="st13" d="M583.3,632.6H347.6c-3,0-5.4-2.4-5.4-5.4V627c0-3,2.4-5.4,5.4-5.4h235.8v11H583.3z"/>
		<path id="XMLID_306_" class="st10" d="M583.3,632.6H347.6c-3,0-5.4-2.4-5.4-5.4V627c0-3,2.4-5.4,5.4-5.4h235.8v11H583.3z"/>
		<path id="XMLID_161_" class="st1" d="M582.4,632.6H601c3,0,5.4-2.4,5.4-5.4V627c0-3-2.4-5.4-5.4-5.4h-18.6c-3,0-5.4,2.4-5.4,5.4
			v0.2C577,630.2,579.4,632.6,582.4,632.6z"/>
		<path id="XMLID_133_" class="st10" d="M582.4,632.6H601c3,0,5.4-2.4,5.4-5.4V627c0-3-2.4-5.4-5.4-5.4h-18.6c-3,0-5.4,2.4-5.4,5.4
			v0.2C577,630.2,579.4,632.6,582.4,632.6z"/>
		<line id="XMLID_33_" class="st14" x1="441.8" y1="573.9" x2="433.7" y2="621.6"/>
	</g>
	<g id="XMLID_615_">
		<polygon id="XMLID_846_" class="st15" points="487.9,490.1 281,490.1 277.5,486.6 314.6,274.7 521.4,274.7 		"/>
		<polygon id="XMLID_473_" class="st15" points="487.4,490.1 704.9,490.1 738.5,274.7 735.5,271.2 520.9,274.7 		"/>
		<polygon id="XMLID_608_" class="st5" points="484.4,486.6 701.9,486.6 735.5,271.2 517.9,271.2 		"/>
		<polygon id="XMLID_1076_" class="st16" points="486.2,474.9 694.6,474.9 722.5,295.4 514.2,295.4 		"/>
		<path id="XMLID_581_" class="st16" d="M484.3,486.9c0.9-5.8,7.3-12,15.4-12h12.9l28-179.5h-26.4L484.3,486.9z"/>
		<path id="XMLID_580_" class="st4" d="M540.5,295.4h182l-28,179.5h-182h-12.9c-8.1,0-14.4,6.1-15.4,12l1.9-12l28-179.5H540.5z"/>
		<path id="XMLID_571_" class="st1" d="M500.8,467.9h12.9h182l-0.2,1.4h-182h-12.9c-8.1,0-14.4,6.1-15.4,12l0.2-1.4
			C486.4,474,492.7,467.9,500.8,467.9z"/>
		<path id="XMLID_570_" class="st1" d="M501.7,462.3h12.9h182l-0.2,1.4h-182h-12.9c-8.1,0-14.4,6.1-15.4,12l0.2-1.4
			C487.2,468.4,493.6,462.3,501.7,462.3z"/>
		<polygon id="XMLID_569_" class="st1" points="488.9,457.6 697.2,457.6 725.2,278.1 516.9,278.1 		"/>
		<path id="XMLID_560_" class="st17" d="M487,469.6c0.9-5.8,7.3-12,15.4-12h12.9l28-179.5h-26.4L487,469.6z"/>
		<polygon id="XMLID_516_" class="st5" points="484.4,486.6 277.5,486.6 311.1,271.2 517.9,271.2 		"/>
		<polygon id="XMLID_514_" class="st4" points="486.2,474.9 288.6,474.9 316.5,295.4 514.2,295.4 		"/>
		<path id="XMLID_513_" class="st4" d="M484.3,486.9c0.9-5.8-3.5-12-11.6-12h-12.9l28-179.5h26.4L484.3,486.9z"/>
		<polygon id="XMLID_501_" class="st17" points="488.9,457.6 291.2,457.6 319.2,278.1 516.9,278.1 		"/>
		<path id="XMLID_500_" class="st1" d="M487,469.6c0.9-5.8-3.5-12-11.6-12h-12.9l28-179.5h26.4L487,469.6z"/>
		<path id="XMLID_499_" class="st1" d="M474.5,467.9h-12.9H290.3l-0.2,1.4h171.3h12.9c8.1,0,12.5,6.1,11.6,12l0.2-1.4
			C487,474,482.6,467.9,474.5,467.9z"/>
		<path id="XMLID_498_" class="st1" d="M475.4,462.3h-12.9H291.2l-0.2,1.4h171.3h12.9c8.1,0,12.5,6.1,11.6,12l0.2-1.4
			C487.9,468.4,483.5,462.3,475.4,462.3z"/>
		<g id="XMLID_719_">
			<polygon id="XMLID_1356_" class="st4" points="480,291.7 365.6,291.7 366.2,288.2 480.5,288.2 			"/>
			<polygon id="XMLID_1348_" class="st4" points="478.4,301.5 364.1,301.5 364.6,298 479,298 			"/>
			<polygon id="XMLID_1349_" class="st4" points="476.9,311.3 362.6,311.3 363.1,307.8 477.5,307.8 			"/>
			<polygon id="XMLID_485_" class="st4" points="475.4,321.2 361,321.2 361.6,317.7 475.9,317.7 			"/>
			<polygon id="XMLID_486_" class="st4" points="473.8,331 319.4,331 320,327.5 474.4,327.5 			"/>
			<polygon id="XMLID_487_" class="st4" points="472.3,340.9 317.9,340.9 318.4,337.4 472.9,337.4 			"/>
			<polygon id="XMLID_609_" class="st4" points="470.8,350.7 316.4,350.7 316.9,347.2 471.3,347.2 			"/>
			<polygon id="XMLID_616_" class="st4" points="469.2,360.6 314.8,360.6 315.4,357.1 469.8,357.1 			"/>
			<polygon id="XMLID_617_" class="st4" points="467.7,370.4 313.3,370.4 313.8,366.9 468.3,366.9 			"/>
			<polygon id="XMLID_618_" class="st4" points="466.2,380.3 311.8,380.3 312.3,376.7 466.7,376.7 			"/>
			<polygon id="XMLID_619_" class="st4" points="464.6,390.1 310.2,390.1 310.8,386.6 465.2,386.6 			"/>
			<polygon id="XMLID_642_" class="st4" points="463.1,399.9 308.7,399.9 309.2,396.4 463.7,396.4 			"/>
			<polygon id="XMLID_658_" class="st4" points="461.6,409.8 307.2,409.8 307.7,406.3 462.1,406.3 			"/>
			<polygon id="XMLID_660_" class="st4" points="460.1,419.6 305.6,419.6 306.2,416.1 460.6,416.1 			"/>
			<polygon id="XMLID_663_" class="st4" points="458.5,429.5 304.1,429.5 304.6,426 459.1,426 			"/>
			<polygon id="XMLID_666_" class="st4" points="457,439.3 302.6,439.3 303.1,435.8 457.5,435.8 			"/>
			<polygon id="XMLID_668_" class="st4" points="455.5,449.2 301,449.2 301.6,445.6 456,445.6 			"/>
		</g>
		<g id="XMLID_677_">
			<polygon id="XMLID_770_" class="st4" points="716.2,291.7 551.1,291.7 551.6,288.2 716.8,288.2 			"/>
			<polygon id="XMLID_769_" class="st4" points="714.7,301.5 549.6,301.5 550.1,298 715.2,298 			"/>
			<polygon id="XMLID_757_" class="st4" points="713.1,311.3 548,311.3 548.6,307.8 713.7,307.8 			"/>
			<polygon id="XMLID_755_" class="st4" points="711.6,321.2 546.5,321.2 547,317.7 712.2,317.7 			"/>
			<polygon id="XMLID_754_" class="st4" points="710.1,331 545,331 545.5,327.5 710.6,327.5 			"/>
			<polygon id="XMLID_753_" class="st4" points="708.5,340.9 543.4,340.9 544,337.4 709.1,337.4 			"/>
			<polygon id="XMLID_752_" class="st4" points="707,350.7 541.9,350.7 542.4,347.2 707.6,347.2 			"/>
			<polygon id="XMLID_751_" class="st4" points="705.5,360.6 540.4,360.6 540.9,357.1 706,357.1 			"/>
			<polygon id="XMLID_750_" class="st4" points="703.9,370.4 538.8,370.4 539.4,366.9 704.5,366.9 			"/>
			<polygon id="XMLID_748_" class="st4" points="702.4,380.3 537.3,380.3 537.8,376.7 703,376.7 			"/>
			<polygon id="XMLID_725_" class="st4" points="700.9,390.1 535.8,390.1 536.3,386.6 701.4,386.6 			"/>
			<polygon id="XMLID_724_" class="st4" points="699.3,399.9 534.2,399.9 534.8,396.4 699.9,396.4 			"/>
			<polygon id="XMLID_722_" class="st4" points="697.8,409.8 532.7,409.8 533.2,406.3 698.4,406.3 			"/>
			<polygon id="XMLID_721_" class="st4" points="696.3,419.6 531.2,419.6 531.7,416.1 696.8,416.1 			"/>
			<polygon id="XMLID_720_" class="st4" points="694.7,429.5 529.6,429.5 530.2,426 695.3,426 			"/>
			<polygon id="XMLID_717_" class="st4" points="693.2,439.3 528.1,439.3 528.6,435.8 693.8,435.8 			"/>
			<polygon id="XMLID_713_" class="st4" points="691.7,449.2 526.6,449.2 527.1,445.6 692.2,445.6 			"/>
		</g>
		<polygon id="XMLID_1142_" class="st8" points="521.7,446.1 531.2,439 538.5,446.1 564.6,278.1 547.9,278.1 		"/>
		<g id="XMLID_687_">
			<path id="XMLID_688_" class="st15" d="M349,321.6l-2-7.2h-14l-4.2,7.2h-7.9l19.6-33.4h7.2l9.2,33.4H349z M342.6,298.1l-5.7,9.7
				h8.4L342.6,298.1z"/>
		</g>
	</g>
	<g id="XMLID_1995_">
		<path id="XMLID_1991_" class="st1" d="M388.5,435.7v52.1l11-21.1l3.7-19.4c1.7-8.9,9.6-15.2,18.7-14.8l2.7,0.1v41.1L400.2,519
			l-31.7,35.3l-9.5,8.4c-3.4,3-5.8,7-6.8,11.4l-11.5,57.4l-93.4-0.6l32.2-84.2c0.7-1.9,1.1-4,1.1-6.1l0.5-71.3
			c0.1-7.8,3.9-15.2,10.3-19.7l4.9-3.5c1.4-1,2.9-1.6,4.5-2l29.3-6.9l11.1-21.8c2.6-5.1,7.8-8.2,13.5-8.1l12.2,0.2l19.2-62.6
			c1.2-3.8,4.6-6.3,8.5-6.3l0,0c5.5,0,9.8,5,8.8,10.5L388.5,435.7z"/>
		<g id="XMLID_848_">
			<path class="st4" d="M322.7,442.9c-3.4,3.9-7.9,6.8-11.7,10.3c-6.9,6.3-11.7,15-13.5,24.2c-3,15.9,2.8,32.6-1,48.3
				c-2,8.2-6.6,15.7-8.9,23.8c-5.6,19.8,2.7,41.7-3.9,61.2c-2.4,7.2-6.7,13.6-10.5,20.3l-26.1-0.2l32.2-84.2c0.2-0.5,0.3-1,0.5-1.5
				c0.4-1.5,0.6-3,0.7-4.6l0.5-71.3c0-0.5,0-1,0.1-1.5c0.1-1,0.2-1.9,0.4-2.9c0.2-0.9,0.4-1.9,0.7-2.8c0.3-0.9,0.6-1.8,1-2.7
				c1-2.2,2.3-4.2,3.9-6c1.3-1.4,2.7-2.8,4.3-3.9l2.9-2l2-1.4c0.3-0.2,0.7-0.5,1.1-0.7c1.1-0.6,2.2-1.1,3.5-1.4L326,438
				C325,439.9,324,441.4,322.7,442.9z"/>
		</g>
		<path id="XMLID_1990_" class="st2" d="M388.5,435.7v52.1l11-21.1l3.7-19.4c1.7-8.9,9.6-15.2,18.7-14.8l2.7,0.1v41.1L400.2,519
			l-31.7,35.3l-9.5,8.4c-3.4,3-5.8,7-6.8,11.4l-13.5,57.5l-94.5-0.2l35.3-84.6c0.7-1.9,1.1-4,1.1-6.1l0.5-71.3
			c0.1-7.8,3.9-15.2,10.3-19.7l4.9-3.5c1.4-1,2.9-1.6,4.5-2l29.3-6.9l11.1-21.8c2.6-5.1,7.8-8.2,13.5-8.1l12.2,0.2l19.2-62.6
			c1.2-3.8,4.6-6.3,8.5-6.3l0,0c5.5,0,9.8,5,8.8,10.5L388.5,435.7z"/>
		<polygon id="XMLID_1993_" class="st15" points="266.7,567.6 244.1,632.6 340.6,631.5 352.1,587.5 		"/>
		<polygon id="XMLID_1994_" class="st2" points="266.7,567.6 244.1,631.3 340.6,631.5 352.1,587.5 		"/>
		<path id="XMLID_1992_" class="st1" d="M393.5,406.6l5.2,9.8c1,1.8,1.4,3.9,1.1,6l-2.2,19.5c-0.5,4.2-4,7.4-8.3,7.4h-0.9v-13.7
			L393.5,406.6z"/>
		<path id="XMLID_1989_" class="st2" d="M393.5,406.6l5.2,9.8c1,1.8,1.4,3.9,1.1,6l-2.2,19.5c-0.5,4.2-4,7.4-8.3,7.4h-0.9v-13.7
			L393.5,406.6z"/>
		<line id="XMLID_1988_" class="st2" x1="366.9" y1="407.5" x2="360.7" y2="431.8"/>
		<g id="XMLID_847_">
			<path class="st18" d="M266.7,567.6l19,4.4c0.5,13.1,2.2,26.4-1.9,38.7c-2.6,7.7-7.3,14.4-11.2,21.5l-28.5,0.3L266.7,567.6z"/>
		</g>
	</g>
	<g id="XMLID_884_">
		<path id="XMLID_1122_" class="st1" d="M741.4,632.6H620.3c-10.3,0-18.6-8.3-18.6-18.6l29.2-213.2c0-6.7,5.5-12.2,12.2-12.2h119
			c11.4,0,20.7,9.3,20.7,20.7l-29.2,211C752.7,627.2,748.1,632.6,741.4,632.6z"/>
		<path id="XMLID_1121_" class="st2" d="M741.4,632.6H620.3c-10.3,0-18.6-8.3-18.6-18.6l29.2-213.2c0-6.7,5.5-12.2,12.2-12.2h119
			c11.4,0,20.7,9.3,20.7,20.7l-29.2,211C752.7,627.2,748.1,632.6,741.4,632.6z"/>
		<path id="XMLID_1108_" class="st15" d="M736.9,627.7H614c-6.7,0-12.2-5.5-12.2-12.2L631,401c0-6.7,5.5-12.2,12.2-12.2h122.9
			c6.7,0,12.2,5.5,12.2,12.2l-29.2,214.5C747.8,622,743.7,627.7,736.9,627.7z"/>
		<path id="XMLID_1106_" class="st2" d="M736.9,627.7H614c-6.7,0-12.2-5.5-12.2-12.2L631,401c0-6.7,5.5-12.2,12.2-12.2h122.9
			c6.7,0,12.2,5.5,12.2,12.2l-29.2,214.5C747.8,622,743.7,627.7,736.9,627.7z"/>
		<path id="XMLID_1104_" class="st19" d="M766.4,400.2c-0.5,2.6-2.7,4.3-5,3.9c-2.3-0.4-3.8-2.8-3.3-5.4s2.7-4.3,5-3.9
			C765.3,395.2,766.8,397.6,766.4,400.2z"/>
		<path id="XMLID_1101_" class="st18" d="M749.1,615.5L778.3,401c0-6.7-5.5-12.2-12.2-12.2h-13.6l-32.9,239h17.3
			C743.7,627.7,747.8,622,749.1,615.5z"/>
		<g id="XMLID_849_">
			<path id="XMLID_1100_" class="st15" d="M730.9,615.9L762,390.3c-1.7-1-3.8-1.5-5.9-1.5H643.2c-6.7,0-12.2,5.5-12.2,12.2
				l-29.2,214.5c0,6.7,5.5,12.2,12.2,12.2h103.4C724,627.7,730,622.5,730.9,615.9z"/>
			<path id="XMLID_1098_" class="st8" d="M730.6,617.6c1-7.4-3.8-11.6-8.9-11.6h-4.5L749,375.6h4.4c5.9,0,10,4.8,9.2,10.7
				L730.6,617.6z"/>
		</g>
		<g id="XMLID_1094_">
			<path id="XMLID_1095_" class="st5" d="M663.7,436.3h-20.4l-4.4,7.4h-8l22.9-39h8l12.1,39h-8L663.7,436.3z M656.8,412.8l-9.5,16.6
				h14.5L656.8,412.8z"/>
		</g>
		<g id="XMLID_885_">
			<polygon id="XMLID_1093_" class="st5" points="740.7,411.3 679.8,411.3 680.7,404.6 741.7,404.6 			"/>
			<polygon id="XMLID_1069_" class="st5" points="738.4,427.5 677.4,427.5 678.4,420.7 739.3,420.7 			"/>
			<polygon id="XMLID_1068_" class="st5" points="736.1,443.6 675.1,443.6 676,436.9 737,436.9 			"/>
			<polygon id="XMLID_1067_" class="st5" points="733.7,459.8 630.1,459.8 631,453 734.6,453 			"/>
			<polygon id="XMLID_1066_" class="st5" points="731.3,475.9 627.6,475.9 628.5,469.2 732.2,469.2 			"/>
			<polygon id="XMLID_1065_" class="st5" points="728.8,492.1 625.2,492.1 626.1,485.4 729.8,485.4 			"/>
			<polygon id="XMLID_1064_" class="st5" points="726.4,508.2 622.7,508.2 623.7,501.5 727.3,501.5 			"/>
			<polygon id="XMLID_1063_" class="st5" points="724,524.4 620.3,524.4 621.2,517.7 724.9,517.7 			"/>
			<polygon id="XMLID_1061_" class="st5" points="721.5,540.6 617.9,540.6 618.8,533.8 722.4,533.8 			"/>
			<polygon id="XMLID_1060_" class="st5" points="719.1,556.7 615.4,556.7 616.3,550 720,550 			"/>
			<polygon id="XMLID_1058_" class="st5" points="716.6,572.9 613,572.9 613.9,566.1 717.6,566.1 			"/>
			<polygon id="XMLID_1057_" class="st5" points="714.2,589 610.5,589 611.5,582.3 715.1,582.3 			"/>
			<polygon id="XMLID_1026_" class="st5" points="711.8,605.2 608.1,605.2 609,598.4 712.7,598.4 			"/>
		</g>
	</g>
	<line id="XMLID_665_" class="st2" x1="23.4" y1="632.6" x2="952.4" y2="632.6"/>
	<g id="XMLID_1175_">
		<path id="XMLID_1218_" class="st1" d="M195.9,632.6h-34.1c-19,0-34.4-15.4-34.4-34.4v-75.9h102.9v75.9
			C230.3,617.2,214.9,632.6,195.9,632.6z"/>
		<g id="XMLID_1180_">
			<path class="st20" d="M188.5,575.2c-3.7-2.3-7.6-5.8-7-10.1c0.3-2.5,2.1-4.5,4-6.2c10.8-9.8,17-13.8,22.9-27.6
				c6.8,3.6,11.2,10.8,13.4,18.4c2.1,7.6,2.2,15.6,2.2,23.5c0.1,17.8,3.1,52.5-23.9,50.4c-4.7-0.4-9.9-1.8-12.2-6
				c-1.8-3.3-1.4-7.3-1-11.1c1-8.6,2.9-18.5,10.4-22.3C196.4,579.9,192.1,577.4,188.5,575.2z"/>
		</g>
		<path id="XMLID_1179_" class="st10" d="M195.9,632.6h-34.1c-19,0-34.4-15.4-34.4-34.4v-75.9h102.9v75.9
			C230.3,617.2,214.9,632.6,195.9,632.6z"/>
		<path id="XMLID_1178_" class="st1" d="M129.4,535.9h24.7v3H151c-15.9,0-28.7,12.9-28.7,28.7s12.9,28.7,28.7,28.7h3.1v3h-24.7
			c-15.9,0-28.7-12.9-28.7-28.7v-5.9C100.7,548.7,113.6,535.9,129.4,535.9z"/>
		<path id="XMLID_1177_" class="st10" d="M154.2,538.8h-3.1c-15.9,0-28.7,12.9-28.7,28.7s12.9,28.7,28.7,28.7h3.1"/>
		<path id="XMLID_1176_" class="st10" d="M154.2,599.3h-24.7c-15.9,0-28.7-12.9-28.7-28.7v-5.9c0-15.9,12.9-28.7,28.7-28.7h24.7"/>
	</g>
	<path id="XMLID_1343_" class="st21" d="M680.5,266.5l-7.3,42.6c-0.8,4.6,3.2,9.2,8,9.2h73l4.2-26.4c1-6.4-0.8-12.9-5-17.8
		c-0.7-0.8-1.4-1.5-2.2-2.2c-0.8-1.4-1.7-2.8-2.8-4.1c-2.5-3-5.8-5.2-9.4-6.5h-52.3C683.6,261.3,681,263.4,680.5,266.5z"/>
	<path id="XMLID_1361_" class="st21" d="M334.3,356.1c0.8-4.6-3.2-9.2-8-9.2h-45.7l-9.1,57h49.2c3.2,0,5.8-2.1,6.3-5.2L334.3,356.1z
		"/>
	<g id="XMLID_1237_">
		<g id="XMLID_1243_">
			<path id="XMLID_1249_" class="st15" d="M95.6,395.4h217.6c3.2,0,5.8-2.1,6.3-5.2l7.3-42.6c0.8-4.6-3.2-9.2-8-9.2H101.2
				c-3.2,0-5.8,2.1-6.3,5.2l-7.3,42.6C86.8,390.8,90.8,395.4,95.6,395.4z"/>
			<g id="XMLID_1245_">
				<path id="XMLID_1248_" class="st22" d="M166.3,358.5h100.6c0.4,0,0.7-0.2,0.8-0.6l1.4-4.9c0.2-0.5-0.2-1.1-0.8-1.1H167.7
					c-0.4,0-0.7,0.2-0.8,0.6l-1.4,4.9C165.4,358,165.8,358.5,166.3,358.5z"/>
				<path id="XMLID_1247_" class="st1" d="M246.3,373.9h51.3c0.4,0,0.7-0.2,0.8-0.6l1.4-4.9c0.2-0.5-0.2-1.1-0.8-1.1h-51.3
					c-0.4,0-0.7,0.2-0.8,0.6l-1.4,4.9C245.4,373.3,245.8,373.9,246.3,373.9z"/>
				<path id="XMLID_1246_" class="st1" d="M164.6,373.9h70.5c0.4,0,0.7-0.2,0.8-0.6l1.4-4.9c0.2-0.5-0.2-1.1-0.8-1.1H166
					c-0.4,0-0.7,0.2-0.8,0.6l-1.4,4.9C163.7,373.3,164.1,373.9,164.6,373.9z"/>
			</g>
			<path id="XMLID_1244_" class="st8" d="M132.9,345.8c-11.8,0-23.7,9.6-26.6,21.4c-2.8,11.8,4.5,21.4,16.3,21.4s23.7-9.6,26.6-21.4
				C152.1,355.4,144.8,345.8,132.9,345.8z"/>
		</g>
		<g id="XMLID_1238_">
			<path id="XMLID_1239_" class="st1" d="M127.9,373.9h-6.4l0.7-3.1c0.3-1.1,0.6-2,1-2.6s1.2-1.3,2.4-2.3l3.5-2.9
				c0.5-0.5,0.9-1.2,1.1-1.9c0.2-0.8,0.1-1.5-0.2-2c-0.3-0.5-0.8-0.8-1.6-0.8c-0.7,0-1.4,0.3-2,0.9c-0.6,0.6-1.1,1.5-1.5,2.5h-6.6
				c1-2.8,2.5-5,4.6-6.6s4.5-2.4,7.1-2.4s4.6,0.7,5.9,2.1c1.3,1.4,1.6,3.4,1.1,5.9c-0.3,1.1-0.6,1.9-1,2.5c-0.4,0.5-0.7,0.9-0.9,1.2
				c-0.2,0.2-0.5,0.6-1,1.1s-0.9,0.8-1,0.9c-0.8,0.7-1.6,1.3-2.3,1.9c-0.7,0.6-1.2,1.1-1.5,1.4c-0.3,0.4-0.5,0.9-0.7,1.7
				L127.9,373.9z M120.3,381.8c-0.5-0.7-0.7-1.6-0.4-2.6c0.2-1,0.8-1.9,1.7-2.6c0.9-0.7,1.8-1.1,2.9-1.1c1,0,1.8,0.4,2.4,1.1
				c0.5,0.7,0.7,1.6,0.4,2.6c-0.2,1-0.8,1.9-1.7,2.6c-0.9,0.7-1.8,1.1-2.9,1.1S120.8,382.5,120.3,381.8z"/>
		</g>
	</g>
	<g id="XMLID_1295_">
		<g id="XMLID_1294_">
			<g id="XMLID_1330_">
				<rect id="XMLID_1341_" x="435.4" y="74.2" class="st8" width="31.3" height="166.8"/>
				<rect id="XMLID_1340_" x="435.4" y="74.2" class="st8" width="14.8" height="166.8"/>
				<rect id="XMLID_1339_" x="446.1" y="87.1" class="st1" width="8.3" height="8.3"/>
				<rect id="XMLID_1338_" x="446.1" y="103.7" class="st1" width="8.3" height="8.3"/>
				<rect id="XMLID_1337_" x="446.1" y="120.2" class="st1" width="8.3" height="8.3"/>
				<rect id="XMLID_1336_" x="446.1" y="136.8" class="st1" width="8.3" height="8.3"/>
				<rect id="XMLID_1335_" x="446.1" y="153.4" class="st1" width="8.3" height="8.3"/>
				<rect id="XMLID_1334_" x="446.1" y="169.9" class="st1" width="8.3" height="8.3"/>
				<rect id="XMLID_1333_" x="446.1" y="186.5" class="st1" width="8.3" height="8.3"/>
				<rect id="XMLID_1332_" x="446.1" y="203.1" class="st1" width="8.3" height="8.3"/>
				<rect id="XMLID_1331_" x="446.1" y="219.6" class="st1" width="8.3" height="8.3"/>
			</g>
			<g id="XMLID_1315_">
				<rect id="XMLID_1318_" x="466.3" y="62.4" class="st4" width="31.3" height="178.6"/>
				<rect id="XMLID_1317_" x="466.3" y="84" class="st5" width="31.3" height="24.8"/>
				<rect id="XMLID_1316_" x="466.3" y="194.5" class="st5" width="31.3" height="24.8"/>
			</g>
			<rect id="XMLID_1310_" x="435.4" y="74.2" class="st21" width="7.9" height="166.8"/>
			<rect id="XMLID_1309_" x="466.3" y="74.1" class="st23" width="4" height="166.8"/>
			<g id="XMLID_1304_">
				<rect id="XMLID_1307_" x="391" y="52.3" class="st15" width="44.4" height="188.7"/>
				<rect id="XMLID_1306_" x="391" y="52.3" class="st24" width="22.2" height="188.7"/>
				<rect id="XMLID_1305_" x="406.6" y="74.2" class="st1" width="13.3" height="153.8"/>
			</g>
		</g>
		<g id="XMLID_1282_">
			
				<linearGradient id="XMLID_6_" gradientUnits="userSpaceOnUse" x1="438.6532" y1="1764.6426" x2="522.8532" y2="1764.6426" gradientTransform="matrix(1 0 0 -1 0 1986.1953)">
				<stop  offset="0" style="stop-color:#F4F8FF"/>
				<stop  offset="0.2876" style="stop-color:#F1F6FE"/>
				<stop  offset="0.5174" style="stop-color:#E7EFFE"/>
				<stop  offset="0.7273" style="stop-color:#D6E4FC"/>
				<stop  offset="0.924" style="stop-color:#BED4FB"/>
				<stop  offset="1" style="stop-color:#B3CDFA"/>
			</linearGradient>
			<path id="XMLID_1290_" class="st25" d="M455,205.3c-9,0-16.3,7.3-16.3,16.3s7.3,16.3,16.3,16.3h67.9v-32.5L455,205.3L455,205.3z"
				/>
			
				<linearGradient id="XMLID_7_" gradientUnits="userSpaceOnUse" x1="581.2352" y1="1780.038" x2="581.5289" y2="1748.3171" gradientTransform="matrix(1 0 0 -1 0 1986.1953)">
				<stop  offset="0" style="stop-color:#F4F8FF"/>
				<stop  offset="0.2876" style="stop-color:#F1F6FE"/>
				<stop  offset="0.5174" style="stop-color:#E7EFFE"/>
				<stop  offset="0.7273" style="stop-color:#D6E4FC"/>
				<stop  offset="0.924" style="stop-color:#BED4FB"/>
				<stop  offset="1" style="stop-color:#B3CDFA"/>
			</linearGradient>
			<path id="XMLID_1289_" class="st26" d="M519.5,237.9c-2-5-3.1-10.5-3.1-16.3c0-5.7,1.1-11.2,3.1-16.3h126.8
				c-2,5-3.1,10.5-3.1,16.3c0,5.7,1.1,11.2,3.1,16.3H519.5z"/>
			<path id="XMLID_1250_" class="st2" d="M519.5,237.9c-2-5-3.1-10.5-3.1-16.3c0-5.7,1.1-11.2,3.1-16.3h126.8
				c-2,5-3.1,10.5-3.1,16.3c0,5.7,1.1,11.2,3.1,16.3H519.5z"/>
			<g id="XMLID_1287_">
				<rect id="XMLID_1288_" x="502.6" y="203.6" class="st24" width="148.7" height="3.5"/>
			</g>
			<g id="XMLID_1285_">
				<rect id="XMLID_1286_" x="502.6" y="236.1" class="st24" width="148.7" height="3.5"/>
			</g>
			<g id="XMLID_1283_">
				<path id="XMLID_1284_" class="st15" d="M530.7,239.6H455c-9.9,0-18-8.1-18-18s8.1-18,18-18h75.7v3.5H455
					c-8,0-14.5,6.5-14.5,14.5s6.5,14.5,14.5,14.5h75.7V239.6z"/>
			</g>
		</g>
		<g id="XMLID_1271_">
			
				<linearGradient id="XMLID_8_" gradientUnits="userSpaceOnUse" x1="440.4532" y1="1807.0426" x2="531.1531" y2="1807.0426" gradientTransform="matrix(1 0 0 -1 0 1986.1953)">
				<stop  offset="0" style="stop-color:#F4F8FF"/>
				<stop  offset="0.2876" style="stop-color:#F1F6FE"/>
				<stop  offset="0.5174" style="stop-color:#E7EFFE"/>
				<stop  offset="0.7273" style="stop-color:#D6E4FC"/>
				<stop  offset="0.924" style="stop-color:#BED4FB"/>
				<stop  offset="1" style="stop-color:#B3CDFA"/>
			</linearGradient>
			<path id="XMLID_1281_" class="st27" d="M462.5,157.2c-12.2,0-22,9.9-22,22c0,12.2,9.9,22,22,22h68.7v-44H462.5z"/>
			
				<linearGradient id="XMLID_9_" gradientUnits="userSpaceOnUse" x1="560.9125" y1="1827.6002" x2="561.3054" y2="1785.1743" gradientTransform="matrix(1 0 0 -1 0 1986.1953)">
				<stop  offset="0" style="stop-color:#F4F8FF"/>
				<stop  offset="0.2876" style="stop-color:#F1F6FE"/>
				<stop  offset="0.5174" style="stop-color:#E7EFFE"/>
				<stop  offset="0.7273" style="stop-color:#D6E4FC"/>
				<stop  offset="0.924" style="stop-color:#BED4FB"/>
				<stop  offset="1" style="stop-color:#B3CDFA"/>
			</linearGradient>
			<path id="XMLID_1280_" class="st28" d="M509.6,201.3c-2.7-6.8-4.2-14.3-4.2-22c0-7.8,1.5-15.2,4.2-22h107.1
				c-2.7,6.8-4.2,14.3-4.2,22c0,7.8,1.5,15.2,4.2,22H509.6z"/>
			<path id="XMLID_1291_" class="st2" d="M509.6,201.3c-2.7-6.8-4.2-14.3-4.2-22c0-7.8,1.5-15.2,4.2-22h107.1
				c-2.7,6.8-4.2,14.3-4.2,22c0,7.8,1.5,15.2,4.2,22H509.6z"/>
			<g id="XMLID_1278_">
				<path id="XMLID_1279_" class="st5" d="M531.2,203.6h-68.7c-13.4,0-24.4-10.9-24.4-24.4c0-13.4,10.9-24.4,24.4-24.4h68.7v4.7
					h-68.7c-10.9,0-19.7,8.8-19.7,19.7c0,10.9,8.8,19.7,19.7,19.7h68.7V203.6z"/>
			</g>
			<g id="XMLID_1276_">
				<rect id="XMLID_1277_" x="527" y="154.9" class="st29" width="96.6" height="4.7"/>
			</g>
			<g id="XMLID_1274_">
				<rect id="XMLID_1275_" x="527" y="198.9" class="st29" width="96.6" height="4.7"/>
			</g>
			<polygon id="XMLID_1272_" class="st8" points="498.2,195.3 488.3,190.9 478.4,195.3 478.4,176.2 498.2,176.2 			"/>
		</g>
		<g id="XMLID_1261_">
			
				<linearGradient id="XMLID_10_" gradientUnits="userSpaceOnUse" x1="454.7531" y1="1849.7426" x2="538.9532" y2="1849.7426" gradientTransform="matrix(1 0 0 -1 0 1986.1953)">
				<stop  offset="0" style="stop-color:#F4F8FF"/>
				<stop  offset="0.2876" style="stop-color:#F1F6FE"/>
				<stop  offset="0.5174" style="stop-color:#E7EFFE"/>
				<stop  offset="0.7273" style="stop-color:#D6E4FC"/>
				<stop  offset="0.924" style="stop-color:#BED4FB"/>
				<stop  offset="1" style="stop-color:#B3CDFA"/>
			</linearGradient>
			<path id="XMLID_1270_" class="st30" d="M471.1,120.2c-9,0-16.3,7.3-16.3,16.3s7.3,16.3,16.3,16.3H539v-32.6H471.1z"/>
			
				<linearGradient id="XMLID_11_" gradientUnits="userSpaceOnUse" x1="571.8876" y1="1864.9707" x2="572.1773" y2="1833.6927" gradientTransform="matrix(1 0 0 -1 0 1986.1953)">
				<stop  offset="0" style="stop-color:#F4F8FF"/>
				<stop  offset="0.2876" style="stop-color:#F1F6FE"/>
				<stop  offset="0.5174" style="stop-color:#E7EFFE"/>
				<stop  offset="0.7273" style="stop-color:#D6E4FC"/>
				<stop  offset="0.924" style="stop-color:#BED4FB"/>
				<stop  offset="1" style="stop-color:#B3CDFA"/>
			</linearGradient>
			<path id="XMLID_1269_" class="st31" d="M535.6,152.7c-2-5-3.1-10.5-3.1-16.3c0-5.7,1.1-11.2,3.1-16.3h75.9
				c-2,5-3.1,10.5-3.1,16.3c0,5.7,1.1,11.2,3.1,16.3H535.6z"/>
			<path id="XMLID_1293_" class="st2" d="M535.6,152.7c-2-5-3.1-10.5-3.1-16.3c0-5.7,1.1-11.2,3.1-16.3h75.9c-2,5-3.1,10.5-3.1,16.3
				c0,5.7,1.1,11.2,3.1,16.3H535.6z"/>
			<g id="XMLID_1267_">
				<rect id="XMLID_1268_" x="518.7" y="118.5" class="st32" width="97.9" height="3.5"/>
			</g>
			<g id="XMLID_1264_">
				<rect id="XMLID_1265_" x="518.7" y="151" class="st32" width="97.9" height="3.5"/>
			</g>
			<g id="XMLID_1262_">
				<path id="XMLID_1263_" class="st8" d="M546.8,154.5h-75.7c-9.9,0-18-8.1-18-18s8.1-18,18-18h75.7v3.5h-75.7
					c-8,0-14.5,6.5-14.5,14.5s6.5,14.5,14.5,14.5h75.7V154.5z"/>
			</g>
		</g>
	</g>
	<g id="XMLID_1342_">
		<path id="XMLID_1358_" class="st5" d="M671.2,308.8h217.6c3.2,0,5.8-2.1,6.3-5.2l7.3-42.6c0.8-4.6-3.2-9.2-8-9.2H676.8
			c-3.2,0-5.8,2.1-6.3,5.2l-7.3,42.6C662.4,304.2,666.4,308.8,671.2,308.8z"/>
		<g id="XMLID_1353_">
			<path id="XMLID_1357_" class="st15" d="M741.9,272h100.6c0.4,0,0.7-0.2,0.8-0.6l1.4-4.9c0.2-0.5-0.2-1.1-0.8-1.1H743.3
				c-0.4,0-0.7,0.2-0.8,0.6l-1.4,4.9C740.9,271.4,741.3,272,741.9,272z"/>
			<path id="XMLID_1355_" class="st4" d="M821.9,287.3h51.3c0.4,0,0.7-0.2,0.8-0.6l1.4-4.9c0.2-0.5-0.2-1.1-0.8-1.1h-51.3
				c-0.4,0-0.7,0.2-0.8,0.6l-1.4,4.9C820.9,286.8,821.3,287.3,821.9,287.3z"/>
			<path id="XMLID_1354_" class="st4" d="M740.2,287.3h70.5c0.4,0,0.7-0.2,0.8-0.6l1.4-4.9c0.2-0.5-0.2-1.1-0.8-1.1h-70.5
				c-0.4,0-0.7,0.2-0.8,0.6l-1.4,4.9C739.3,286.8,739.7,287.3,740.2,287.3z"/>
		</g>
		<path id="XMLID_1352_" class="st15" d="M708.5,259.3c-11.8,0-23.7,9.6-26.6,21.4s4.5,21.4,16.3,21.4s23.7-9.6,26.6-21.4
			S720.4,259.3,708.5,259.3z"/>
		<g id="XMLID_1344_">
			<path id="XMLID_1351_" class="st1" d="M715.5,293l-9.2-3.3l0.3-2.2l-3.5,2h-2.4l-2.8-2l-0.3,2.2l-10.3,3.3
				c-0.7,0.2-1.3,0.9-1.4,1.7l-0.4,2.3c3,3.2,7.4,5.1,12.7,5.1c6.6,0,13.1-3,18.2-7.6C716.5,293.8,716.1,293.2,715.5,293z"/>
			<path id="XMLID_1359_" class="st1" d="M698,284.4l0.4,0.3l2.8,2h2.4l3.5-2l0.6-0.3c1.1-0.6,2-1.6,2.3-2.8l2.1-8.9
				c0.6-4.1-2.2-7.4-6.2-7.4c-4.1,0-7.9,3.3-8.5,7.4l-0.7,8.9C696.5,282.8,697,283.9,698,284.4z"/>
		</g>
	</g>
</g>
</svg>
