<?xml version="1.0" encoding="utf-8"?>
<!-- Generator: Adobe Illustrator 23.0.1, SVG Export Plug-In . SVG Version: 6.00 Build 0)  -->
<svg version="1.1" id="Planning" xmlns="http://www.w3.org/2000/svg" xmlns:xlink="http://www.w3.org/1999/xlink" x="0px" y="0px"
	 viewBox="0 0 1218 646.5" style="enable-background:new 0 0 1218 646.5;" xml:space="preserve">
<style type="text/css">
	.st0{fill:#DBE8FA;}
	.st1{fill:none;stroke:#002DAA;stroke-width:2;stroke-linecap:round;stroke-miterlimit:10;stroke-dasharray:8.2116,8.2116;}
	.st2{fill:none;stroke:#002DAA;stroke-width:2;stroke-linecap:round;stroke-miterlimit:10;}
	.st3{fill:#FF5722;}
	.st4{fill:#002DAA;}
	.st5{fill:#1067DB;}
	.st6{fill:#70A4E9;}
	.st7{fill:none;stroke:#002DAA;stroke-linecap:round;stroke-miterlimit:10;}
	.st8{fill:#FFFFFF;}
	.st9{fill:#D1E1F2;}
	.st10{fill:#B3CDFA;}
	.st11{fill:#D1E1FC;}
	.st12{fill:none;stroke:#002DAA;stroke-width:2;stroke-miterlimit:10;}
	.st13{opacity:0.5;fill:#002DAA;enable-background:new    ;}
	.st14{fill:#002280;}
</style>
<g id="XMLID_1292_">
	<path class="st0" d="M1023.7,292.5c-19.1-22.8-45.8-39.4-74.9-45.7c-25.3-5.5-52.6-3.9-75.8-15.5c-21.1-10.6-35.8-31.1-44.3-53.2
		c-17.4-45.4-11.2-90.3-50.4-126.2c-22.4-20.5-53.2-29.4-83.4-32.1C633.7,14.4,570.7,33.1,522.3,71c-81.1,63.5-78.3,175-173.1,229.6
		c-29.9,17.2-59.8,34.5-89.7,51.7c-16.5,9.5-33.4,19.4-45.5,34.2c-28.4,34.9-17.5,94.3,21.4,116.9c22,12.8,48.5,14.1,73.7,17.8
		c25.2,3.8,52.1,11.7,66.6,32.7c15.4,22.2,15.6,57.1,40.3,68.1c32.4,14.4,80,3.1,114.2,3.2c101.6,0.4,203.3,0.8,304.9,1.2l0,0
		c20.2,0.1,46.3,4.1,65.1-1.1c-9.8,2.7,8.1-37.9,9.1-39.5c8.1-13.2,21.7-25.8,32.9-36.4c19.9-18.9,44.8-29.4,65.3-47.1
		c46.2-40,59.7-128.5,33.6-182.4C1036.6,309.9,1030.6,300.8,1023.7,292.5z"/>
</g>
<path id="XMLID_89_" class="st1" d="M319.2,157.4c9.9,0.2,20.9,0.9,27.8,8.1c8.3,8.6,6.8,22.3,7.1,34.3
	c0.5,29.9,15.5,58.3,36.3,79.7c26.9,27.6,70.4,37,89.2,70.3"/>
<g id="XMLID_132_">
	<path id="XMLID_146_" class="st2" d="M772,280.8c1.1-0.7,2.3-1.4,3.3-2.2"/>
	<path id="XMLID_135_" class="st1" d="M781.4,273c7-7.7,11.5-17.7,13.7-28c3-14.3,2-29,0.9-43.6c-1.4-17.8-3.2-36.1-11.2-52.1
		c-1.9-3.8-6.1-8-9.7-5.7c-2.1,1.4-2.4,4.3-2.5,6.8c-0.2,4.6-0.3,9.5,1.9,13.6s7.5,6.9,11.6,4.7c3.9-2.1,4.7-7.3,5.8-11.6
		c3-11.6,11.9-21.4,22.9-25.8"/>
	<path id="XMLID_134_" class="st2" d="M818.7,130c1.3-0.4,2.6-0.6,3.9-0.9"/>
</g>
<g id="XMLID_127_">
	<polygon id="XMLID_131_" class="st3" points="825.2,146.4 915.8,121.1 844.8,103.5 837.8,121.4 841.1,127 835.2,128.2 	"/>
	<polygon id="XMLID_129_" class="st4" points="841.1,127 866.2,122 837.8,121.4 	"/>
</g>
<g id="XMLID_958_">
	<path id="XMLID_970_" class="st5" d="M215.1,508.3c0,0-94.5-16.5-103-97.3c0,0,19.1,21.3,44.6,25.2
		C156.7,436.3,214.8,459.7,215.1,508.3z"/>
	<path id="XMLID_969_" class="st5" d="M318.4,472.6c0,0,15,53.4-59.5,67.3c0,0-12.3-16,17.8-37.7c4.8-3.4,10.3-5.5,16-6.8
		C300.1,493.7,311.8,488.6,318.4,472.6z"/>
	<path id="XMLID_968_" class="st6" d="M276.9,504.9c4.8-3.4,10.3-5.5,16-6.8c7.4-1.7,19.1-6.8,25.7-22.8c0,0,0.7,2.4,1,6.3
		c-0.2-5.5-1.2-9.1-1.2-9.1c-6.6,16-18.3,21.1-25.7,22.8c-5.7,1.3-11.2,3.4-16,6.8c-18.9,13.6-21.1,24.9-20.1,31.5
		C256.7,527,260.4,516.8,276.9,504.9z"/>
	<path id="XMLID_967_" class="st5" d="M252.6,376.3c0,0-75.7,85.5-14.4,151c0,0,16.8-9.9,25.6-40c5.8-19.9,4.6-41.1-2.1-60.6
		C258,415.6,253.9,398.8,252.6,376.3z"/>
	<path id="XMLID_966_" class="st6" d="M261.8,426.7c-3.8-11.1-7.9-27.9-9.1-50.4c0,0,0.1-0.4-2.9,3.5c1.6,19.1,4.9,32.5,8.3,42.4
		c6.7,19.6,9.7,45.7,3.9,65.6c-6.6,22.5-18.6,35.3-23.7,39.5c0.8,1-0.9-1,0,0c0,0,16.8-9.9,25.6-40
		C269.7,467.5,268.4,446.3,261.8,426.7z"/>
	<path id="XMLID_965_" class="st5" d="M175.4,501.5c0,0-32.2-13.4-53.2,30.6c0,0,41.3-21.7,44.6,2.4c0,0,12,29.8,38.4,33.2
		C205.1,567.7,216.8,510.3,175.4,501.5z"/>
	<path id="XMLID_964_" class="st6" d="M175,504.2c36,7.6,31.8,52.1,30.1,63.5l0,0c0,0,11.7-57.4-29.7-66.2c0,0-32.2-13.4-53.2,30.6
		c0,0,0.5-0.2,1.2-0.6C144.4,491.5,175,504.2,175,504.2z"/>
	<path id="XMLID_963_" class="st7" d="M242.5,406.2c-2.8,31.3-3.8,62.8-2.9,94.2c0.3,8.9,0.7,17.8-0.2,26.7
		c-3.3,33.8-25,65.3-21.2,99"/>
	<path id="XMLID_962_" class="st7" d="M300,504c-11.7,19.3-36.8,26-51.9,42.8c-15.5,17.3-19.4,50.4-14.7,73.2"/>
	<path id="XMLID_960_" class="st7" d="M125.5,437.4c5.7,12.5,18,20.6,30.3,26.5c12.4,5.9,25.6,10.4,36.5,18.7
		c12.3,9.4,20.9,23.4,23.6,38.6c2.2,12.4,0.7,25.1,0.2,37.7c-0.5,12.6,0.3,25.8,6.6,36.7"/>
	<path id="XMLID_959_" class="st7" d="M137.2,519c6.4-2.1,13.1-3.2,19.8-3.2c4.2,0,8.6,0.5,12.1,2.8c2.7,1.8,4.6,4.6,6.5,7.3
		c13.4,19.6,26.8,39.2,40.2,58.8c7.5,10.9,15.1,22.3,17.5,35.3"/>
</g>
<g id="XMLID_4_">
	<path id="XMLID_9_" class="st8" d="M395.2,312.2c-0.1-6.6-5.4-11.8-12-11.7c-1.8,0-3.5,0.5-5,1.3c-2.3-4.6-6.6-7.7-11.8-8.8
		c0.2-1.2,0.7-2.3,0.7-3.5c-0.1-10.9-9.1-19.6-20-19.5c-5.2,0.1-9.8,2.2-13.2,5.5c-1.5-18.8-17.2-33.6-36.4-33.3
		c-16.7,0.2-30.4,11.6-34.5,27c-1.6-0.3-3.3-0.5-5-0.4c-11.6,0.1-21.1,8.1-23.8,18.8c-2.6-1-5.4-1.6-8.4-1.6
		c-12.5,0.1-22.5,10.4-22.4,22.9c0,4.2,1.6,8,3.6,11.3l186.4-2C394.5,316.3,395.2,314.4,395.2,312.2z"/>
	<line id="XMLID_8_" class="st2" x1="207" y1="320.1" x2="395.2" y2="318"/>
	<path id="XMLID_7_" class="st9" d="M361.7,295.9c-5.3,3.8-12.7,2.6-16.5-2.7c-0.8-1.1-1.3-2.3-1.7-3.5c0.1,2.2,0.8,4.5,2.2,6.4
		c3.8,5.3,11.2,6.5,16.5,2.7l0,0c4.2-3,5.7-8.3,4.3-13C366.7,289.7,365,293.5,361.7,295.9z"/>
	<path id="XMLID_6_" class="st2" d="M367.1,289.5c-0.1-10.9-9.1-19.6-20-19.5c-5.2,0.1-9.8,2.2-13.2,5.5
		c-1.5-18.8-17.2-33.6-36.4-33.3c-16.7,0.2-30.4,11.6-34.5,27"/>
</g>
<g id="XMLID_529_">
	<path id="XMLID_536_" class="st8" d="M973,284.8c-0.1-6.2-5.2-11.3-11.4-11.2c-1.7,0-3.3,0.5-4.8,1.2c-2.2-4.4-6.3-7.4-11.2-8.4
		c0.2-1.1,0.7-2.2,0.6-3.4c-0.1-10.4-8.6-18.7-19-18.6c-4.9,0.1-9.3,2.1-12.6,5.2c-1.5-17.9-16.4-32-34.7-31.8
		c-15.9,0.2-29,11.1-32.9,25.7c-1.5-0.3-3.1-0.4-4.7-0.4c-11,0.1-20.1,7.8-22.7,18c-2.5-1-5.2-1.6-8-1.5
		c-11.9,0.1-21.5,9.9-21.3,21.8c0,4,1.5,7.6,3.5,10.8l177.7-1.9C972.4,288.7,973,286.9,973,284.8z"/>
	<line id="XMLID_532_" class="st2" x1="793.6" y1="292.3" x2="973.1" y2="290.3"/>
	<path id="XMLID_531_" class="st9" d="M941.1,269.2c-5,3.6-12.1,2.5-15.7-2.5c-0.7-1-1.2-2.2-1.6-3.3c0.1,2.1,0.8,4.3,2.1,6.1
		c3.6,5,10.7,6.2,15.7,2.5l0,0c4-2.9,5.5-7.9,4.1-12.4C945.9,263.3,944.3,267,941.1,269.2z"/>
	<path id="XMLID_530_" class="st2" d="M946.2,263.1c-0.1-10.4-8.6-18.7-19-18.6c-4.9,0.1-9.3,2.1-12.6,5.2
		c-1.5-17.9-16.4-32-34.7-31.8c-15.9,0.2-29,11.1-32.9,25.7"/>
</g>
<g id="XMLID_1012_">
	<path id="XMLID_1018_" class="st8" d="M778.1,212.5c-0.1-9-7.5-16.3-16.5-16.2c-2.5,0-4.8,0.7-6.9,1.7c-3.2-6.3-9.1-10.7-16.2-12.1
		c0.3-1.6,0.9-3.2,0.9-4.9c-0.2-15-12.5-27.1-27.5-26.9c-7.1,0.1-13.4,3-18.2,7.5c-2.1-25.9-23.7-46.2-50.1-45.9
		c-22.9,0.2-41.9,16-47.5,37.2c-2.2-0.4-4.5-0.6-6.8-0.6c-15.9,0.2-29.1,11.2-32.8,26c-3.6-1.4-7.5-2.2-11.6-2.2
		c-17.2,0.2-31,14.3-30.9,31.5c0.1,5.8,2.2,11,5,15.6l256.9-2.8C777.2,218.1,778.1,215.4,778.1,212.5z"/>
	<line id="XMLID_1017_" class="st2" x1="518.8" y1="223.2" x2="778.2" y2="223.1"/>
	<path id="XMLID_1015_" class="st9" d="M732,190c-7.3,5.2-17.5,3.6-22.7-3.7c-1.1-1.5-1.8-3.1-2.3-4.8c0.1,3.1,1.1,6.2,3,8.9
		c5.2,7.3,15.5,8.9,22.7,3.7l0,0c5.8-4.2,7.9-11.5,6-17.9C738.9,181.4,736.6,186.7,732,190z"/>
	<path id="XMLID_1013_" class="st2" d="M739.4,181.1c-0.2-15-12.5-27.1-27.5-26.9c-7.1,0.1-13.4,3-18.2,7.5
		c-2.1-25.9-23.7-46.2-50.1-45.9c-22.9,0.2-41.9,16-47.5,37.2"/>
</g>
<g id="XMLID_195_">
	<polygon id="XMLID_447_" class="st4" points="793.2,626.8 285.6,626.8 348.3,255 855.9,255 	"/>
	<polygon id="XMLID_440_" class="st8" points="397.8,626.8 905.4,626.8 855.9,255 348.3,255 	"/>
	<g id="XMLID_237_">
		<g id="XMLID_436_">
			<path id="XMLID_438_" class="st10" d="M424.1,603.9c50.5,0,101,0,151.5,0c80.6,0,161.2,0,241.8,0c18.7,0,37.3,0,56,0
				c0.3,0,0.6-0.3,0.6-0.6c-10.7-80-21.4-160.1-32.1-240.1c-1.5-11.3-3-22.6-4.5-33.8c0-0.3-0.2-0.6-0.6-0.6c-50.5,0-101,0-151.5,0
				c-80.6,0-161.2,0-241.8,0c-18.7,0-37.3,0-56,0c-0.3,0-0.6,0.3-0.6,0.6c10.7,80,21.4,160.1,32.1,240.1c1.5,11.3,3,22.6,4.5,33.8
				c0.1,0.8,1.3,0.8,1.2,0c-6.4-47.6-12.7-95.3-19.1-142.9c-4.2-31.3-8.4-62.6-12.5-93.9c-1.3-9.6-2.6-19.3-3.9-28.9
				c-0.2-1.9-1.3-5-0.9-6.8c0.5-2.1-0.9-0.5-0.4-0.9c1.8-1.3,9.1,0,11.2,0c8.2,0,16.4,0,24.6,0c26.3,0,52.6,0,78.9,0
				c68.4,0,136.8,0,205.1,0c28.1,0,56.1,0,84.2,0c9.3,0,18.5,0,27.8,0c4.6,0,10.7-1.1,15.1,0c2.6,0.6,1.5-1.2,1.9,3.2
				c0.8,8,2.1,15.9,3.2,23.8c4,29.8,8,59.5,11.9,89.3c4.4,33.2,8.9,66.5,13.3,99.7c1.6,12.3,3.3,24.6,4.9,36.9
				c0.6,4.8,3.9,14.5,2.6,19.2c-0.6,2.1,1.1,0.2,0.4,0.7c-0.6,0.4-3.4,0-4,0c-6.3-0.4-12.8,0-19.1,0c-23.6,0-47.3,0-70.9,0
				c-115.7,0-231.4,0-347.1,0c-2.6,0-5.2,0-7.8,0C423.3,602.7,423.3,603.9,424.1,603.9z"/>
		</g>
		<g id="XMLID_412_">
			<path id="XMLID_426_" class="st10" d="M845.3,397.2c-50.5,0-101,0-151.5,0c-80.6,0-161.2,0-241.8,0c-18.7,0-37.3,0-56,0
				c-0.8,0-0.8,1.2,0,1.2c50.5,0,101,0,151.5,0c80.6,0,161.2,0,241.8,0c18.7,0,37.3,0,56,0C846.1,398.4,846.1,397.2,845.3,397.2
				L845.3,397.2z"/>
		</g>
		<g id="XMLID_378_">
			<path id="XMLID_409_" class="st10" d="M855,465.7c-50.5,0-101,0-151.5,0c-80.6,0-161.2,0-241.8,0c-18.7,0-37.3,0-56,0
				c-0.8,0-0.8,1.2,0,1.2c50.5,0,101,0,151.5,0c80.6,0,161.2,0,241.8,0c18.7,0,37.3,0,56,0C855.8,466.9,855.8,465.7,855,465.7
				L855,465.7z"/>
		</g>
		<g id="XMLID_341_">
			<path id="XMLID_342_" class="st10" d="M864.3,534.2c-50.5,0-101,0-151.5,0c-80.6,0-161.2,0-241.8,0c-18.7,0-37.3,0-56,0
				c-0.8,0-0.8,1.2,0,1.2c50.5,0,101,0,151.5,0c80.6,0,161.2,0,241.8,0c18.7,0,37.3,0,56,0C865,535.4,865,534.2,864.3,534.2
				L864.3,534.2z"/>
		</g>
		<g id="XMLID_249_">
			<path id="XMLID_263_" class="st10" d="M498.9,328.9c10.7,80,21.4,160.1,32.1,240.1c1.5,11.3,3,22.6,4.5,33.8
				c0.1,0.8,1.3,0.8,1.2,0c-10.7-80-21.4-160.1-32.1-240.1c-1.5-11.3-3-22.6-4.5-33.8C500,328.2,498.8,328.2,498.9,328.9
				L498.9,328.9z"/>
		</g>
		<g id="XMLID_241_">
			<path id="XMLID_247_" class="st10" d="M610.9,328.9c10.7,80,21.4,160.1,32.1,240.1c1.5,11.3,3,22.6,4.5,33.8
				c0.1,0.8,1.3,0.8,1.2,0c-10.7-80-21.4-160.1-32.1-240.1c-1.5-11.3-3-22.6-4.5-33.8C612,328.2,610.7,328.2,610.9,328.9
				L610.9,328.9z"/>
		</g>
		<g id="XMLID_238_">
			<path id="XMLID_239_" class="st10" d="M722.8,328.9c10.7,80,21.4,160.1,32.1,240.1c1.5,11.3,3,22.6,4.5,33.8
				c0.1,0.8,1.3,0.8,1.2,0c-10.7-80-21.4-160.1-32.1-240.1c-1.5-11.3-3-22.6-4.5-33.8C723.9,328.2,722.7,328.2,722.8,328.9
				L722.8,328.9z"/>
		</g>
	</g>
	<polygon id="XMLID_236_" class="st5" points="863,305.4 355.4,305.4 348.3,255 855.9,255 	"/>
	<polygon id="XMLID_226_" class="st3" points="550,342.3 508.8,342.3 507.9,335.9 549.1,335.9 	"/>
	<polygon id="XMLID_211_" class="st11" points="607,353.7 510.7,353.7 509.8,347.4 606.1,347.4 	"/>
	<polygon id="XMLID_210_" class="st6" points="787.2,448.2 746,448.2 745.1,441.8 786.3,441.8 	"/>
	<polygon id="XMLID_209_" class="st11" points="810.2,459.7 747.9,459.7 747,453.3 809.3,453.3 	"/>
	<polygon id="XMLID_208_" class="st11" points="608.8,365.2 512.5,365.2 511.6,358.8 607.9,358.8 	"/>
	<polygon id="XMLID_207_" class="st11" points="610.7,376.6 514.4,376.6 513.5,370.3 609.8,370.3 	"/>
	<polygon id="XMLID_206_" class="st11" points="580.2,388.1 516.2,388.1 515.3,381.7 579.3,381.7 	"/>
	<polygon id="XMLID_203_" class="st11" points="847.8,488.5 751.5,488.5 750.6,482.1 847,482.1 	"/>
	<polygon id="XMLID_202_" class="st11" points="849.7,499.9 753.4,499.9 752.5,493.6 848.8,493.6 	"/>
	<polygon id="XMLID_201_" class="st11" points="851.6,511.4 755.2,511.4 754.3,505 850.7,505 	"/>
	<polygon id="XMLID_200_" class="st11" points="821.1,522.9 757.1,522.9 756.2,516.5 820.2,516.5 	"/>
	<polygon id="XMLID_199_" class="st11" points="632.9,555 536.6,555 535.7,548.7 632,548.7 	"/>
	<polygon id="XMLID_198_" class="st11" points="634.7,566.5 538.4,566.5 537.5,560.1 633.8,560.1 	"/>
	<polygon id="XMLID_197_" class="st11" points="636.6,578 540.3,578 539.4,571.6 635.7,571.6 	"/>
	<polygon id="XMLID_196_" class="st4" points="606.1,589.4 542.1,589.4 541.2,583.1 605.2,583.1 	"/>
	<polygon id="XMLID_74_" class="st2" points="397.8,626.8 905.4,626.8 855.9,255 348.3,255 	"/>
	<line id="XMLID_83_" class="st2" x1="355.4" y1="305.4" x2="837.7" y2="305.4"/>
</g>
<g id="XMLID_972_">
	<g id="XMLID_983_">
		<path class="st8" d="M1046.5,460.9c-3.1-11.2-12.2-20.1-22.7-25.1c-10.5-5-22.3-6.5-34-6.9c3,8.5-1.1,17.6-3.4,26.3
			c-2.6,10-2.8,20.9,1.4,30.3c2.4,5.4,6.3,10.2,11.1,13.6c4.9,3.4,10.4,3.9,16.1,5.4c2.9,0.8,5.7,2.4,8.7,2.3
			c4.4-0.1,7.9-3.8,10-7.6c1.8-3.2,3-6.7,5.1-9.7c2-2.8,4.4-5,5.9-8.2C1047.7,475,1048.3,467.6,1046.5,460.9z"/>
	</g>
	<g id="XMLID_982_">
		<path class="st6" d="M1070.6,427.2c1.2-11.6-4.1-23.2-12.1-31.6c-8-8.5-18.4-14.2-29.2-18.7c-0.3,9-7.4,16-12.7,23.2
			c-6.1,8.3-10.1,18.4-9.7,28.7c0.2,5.9,2.1,11.8,5.5,16.7c3.4,5,8.3,7.4,13,10.9c2.4,1.8,4.4,4.3,7.3,5.3c4.1,1.5,8.7-0.7,12.1-3.5
			c2.8-2.3,5.2-5.1,8.3-7.2c2.9-1.9,5.9-3.1,8.5-5.6C1066.6,440.8,1069.9,434.1,1070.6,427.2z"/>
	</g>
	<g id="XMLID_980_">
		<path class="st5" d="M1105.6,468.2c-1.7-9.1-5.5-17.6-8-26.4c-2.6-9.2-3.8-18.7-3.7-28.2c-9.7,13-28.7,14.4-41.7,24.1
			c-7.6,5.7-12.7,14.2-15.1,23.4c-2.7,10.2-2.2,20.5,2.6,29.9c0.2,0.4,0.4,0.8,0.6,1.3c1.4,2.8,2.9,5.6,4.3,8.3
			c0.7,1.4,1.6,2.9,3.1,3.2c0.7,0.2,1.4,0,2.1,0c4.9-0.5,9.7,1.3,14.5,1.9c4.4,0.5,9.3,0.1,13.7-0.3c8.5-0.8,17.4-3.7,22.9-10.7
			C1106.6,487.3,1107.3,477.2,1105.6,468.2z"/>
	</g>
	<path id="XMLID_979_" class="st12" d="M1001.8,443.7c17.5,23.1,23.4,53.3,30.1,80.9c7.6,30.9,13.1,62.5,12.4,94.4"/>
	<path id="XMLID_978_" class="st12" d="M1031,409.7c2.1,32.5,8.9,65,7.5,97.6c-1.6,37.8-2,75.6-1.1,113.3"/>
	<path id="XMLID_977_" class="st12" d="M1081,444.4c-18.3,20.5-31.6,46.7-34.2,74.1c-3.3,33.9-8.1,67.8-12.2,101.6"/>
	<g id="XMLID_976_">
		<path class="st4" d="M1043.8,551.1c2.7-1.8,3.4-5.4,4.6-8.4c2-5.5,5.8-10.1,9.6-14.7c3-3.6,6.6-7.5,11.3-7.7
			c1.1,0,2.2,0.2,3.1,0.8c2.1,1.5,1.9,4.7,1.2,7.1c-2.1,6.6-6.9,12.1-12.5,16.2c-5.6,4.1-12,7-18.3,9.8L1043.8,551.1z"/>
	</g>
	<g id="XMLID_975_">
		<path class="st4" d="M1038.2,526.5c1.9-1.3,2.4-3.8,3.2-6c1.4-3.9,4.2-7.2,6.9-10.5c2.1-2.6,4.7-5.4,8.1-5.5
			c0.8,0,1.6,0.1,2.2,0.6c1.5,1.1,1.4,3.3,0.8,5.1c-1.5,4.7-4.9,8.6-8.9,11.6c-4,2.9-8.5,5-13.1,7L1038.2,526.5z"/>
	</g>
	<g id="XMLID_974_">
		<path class="st4" d="M1008.4,532.7c2.8-3.8,8.5-4.6,12.9-2.8s7.6,5.7,9.9,9.8c2.4,4.1,4.1,8.6,6.6,12.6l-1.8,5.8
			c-2-2.8-5.7-3.7-9.1-4.4c-5.5-1.2-11.2-2.4-15.4-6.1C1007.2,544,1005.1,537.3,1008.4,532.7z"/>
	</g>
	<g id="XMLID_973_">
		<path class="st4" d="M1013.9,510.5c1.7-2.4,5.3-2.9,8-1.7c2.7,1.1,4.7,3.5,6.2,6.1c1.5,2.5,2.5,5.3,4.1,7.8l-1.1,3.6
			c-1.3-1.7-3.5-2.3-5.6-2.7c-3.4-0.7-6.9-1.5-9.6-3.8C1013.2,517.5,1011.9,513.3,1013.9,510.5z"/>
	</g>
</g>
<path id="XMLID_1422_" class="st13" d="M660.5,482.6L646.2,398c-0.7-3.9-3.9-6.6-7.9-6.6l-81.6-0.8c-6.1-0.1-11.2,5.8-10.2,11.6
	l14.3,84.5c0.7,3.9,3.9,6.6,7.9,6.6l81.7,0.9C656.4,494.2,661.5,488.4,660.5,482.6z"/>
<g id="XMLID_97_">
	<g id="XMLID_99_">
		<path id="XMLID_165_" class="st4" d="M630,385.6l-81.6-0.8c-6.1-0.1-11.2,5.8-10.2,11.6l14.3,84.5c0.7,3.9,3.9,6.6,7.9,6.6
			l81.7,0.9l0,0c6.1,0,11.1-5.8,10.1-11.6l-14.3-84.6C637.2,388.4,634,385.7,630,385.6z"/>
		<path id="XMLID_126_" class="st8" d="M614.2,427.2c-0.5-0.8-0.5-1.6,0-2.2l3-3.7c0.8-0.9,0.5-2.5-0.6-3.4l-7-6
			c-1.1-0.9-2.7-0.9-3.4,0l-3,3.7c-0.5,0.6-1.4,0.7-2.2,0.4c-0.5-0.2-1-0.4-1.5-0.6c-0.9-0.3-1.5-1-1.7-1.9l-0.9-5.2
			c-0.2-1.3-1.5-2.4-2.9-2.4h-8.4c-1.3,0-2.2,1.1-2,2.4l0.9,5.2c0.1,0.8-0.2,1.6-0.9,1.9c-0.5,0.2-1,0.4-1.5,0.6
			c-0.7,0.3-1.6,0.2-2.3-0.4l-4.4-3.7c-1.1-0.9-2.7-1-3.4,0l-4.9,6c-0.8,0.9-0.5,2.5,0.6,3.4l4.3,3.7c0.7,0.6,1,1.5,0.8,2.3
			c-0.1,0.5-0.2,0.9-0.3,1.4c-0.2,0.8-0.8,1.4-1.7,1.4h-5.2c-1.3,0-2.2,1.1-2,2.4l1.5,8.4c0.2,1.3,1.5,2.4,2.9,2.4h5.2
			c0.8,0,1.7,0.5,2.1,1.3c0.3,0.5,0.6,1.1,0.9,1.6c0.5,0.8,0.5,1.6,0,2.2l-3,3.7c-0.8,0.9-0.5,2.5,0.6,3.4l7,6c1.1,0.9,2.7,1,3.4,0
			l3-3.7c0.5-0.6,1.4-0.7,2.2-0.4c0.5,0.2,1.1,0.4,1.6,0.6c0.9,0.3,1.5,1,1.7,1.9l0.9,5.2c0.2,1.3,1.5,2.4,2.9,2.4h8.4
			c1.3,0,2.2-1.1,2-2.4l-1-5.2c-0.1-0.8,0.2-1.6,0.9-1.9c0.5-0.2,1-0.4,1.5-0.6c0.7-0.3,1.6-0.2,2.3,0.4l4.4,3.7
			c1.1,0.9,2.7,0.9,3.4,0l4.9-6c0.8-0.9,0.5-2.5-0.6-3.4l-4.3-3.7c-0.7-0.6-1-1.5-0.8-2.3c0.1-0.5,0.2-0.9,0.3-1.4
			c0.2-0.8,0.8-1.4,1.7-1.4h5.2c1.3,0,2.2-1.1,2-2.4l-1.5-8.4c-0.2-1.3-1.5-2.4-2.9-2.4h-6.6C615.8,429.9,615,428.4,614.2,427.2z
			 M588.9,425.5c6.5-2.7,15,1.5,17.7,9c2.1,5.6-0.1,11.3-5,13.3c-6.5,2.7-15-1.5-17.7-9C581.8,433.3,584,427.5,588.9,425.5z"/>
	</g>
</g>
<path id="XMLID_987_" class="st13" d="M869.4,348.7H706c-7.4,0-13,6.6-11.9,13.9l10.8,68.3c0.9,5.8,6,10.1,11.9,10.1h164.8
	L869.4,348.7z"/>
<line id="XMLID_582_" class="st2" x1="163.1" y1="626.8" x2="1092.1" y2="626.8"/>
<g id="XMLID_75_">
	<path id="XMLID_929_" class="st8" d="M897,321.9L897,321.9c-3,9,3.7,18.3,13.2,18.3h16.5l22,18l-1.3,77.2l-10.7,27.9l-16.7,2.1
		l-52.3-30.2c-9.3-5.4-21.1-2.3-26.7,6.9l-2.8,4.7l63.8,48.4l38.6,49.6l8.1,81.7h94.4l-53.8-209l-14.5-73.4l-18.6-23.5L897,321.9z"
		/>
	<path id="XMLID_939_" class="st8" d="M948.7,358.2l-28.3-14.9l-40.6,7.5l1.3,5.2c2.3,8.8,11,14.3,19.9,12.4l17.2-3.6l29.8,30.6
		L948.7,358.2z"/>
	<path id="XMLID_938_" class="st2" d="M948.7,358.2l-28.3-14.9l-40.6,7.5l1.3,5.2c2.3,8.8,11,14.3,19.9,12.4l17.2-3.6l29.8,30.6
		L948.7,358.2z"/>
	<g id="XMLID_931_">
		<path class="st10" d="M957.4,536c-6.5,1.6-11.5-6.3-11.6-12.9c-0.1-6.7,2.3-13.5,0.4-19.9c-2.1-7-8.9-11.5-15.7-14
			s-14.2-3.5-20.8-6.4c-6.9-3.1-12.7-8.2-18.4-13.1c-9.3-7.9-19.2-15.9-31.1-18.7c-5.2-1.2-10.9-1.2-16.1,0.1l58.1,44.1l38.6,49.6
			l8.1,81.7H998C986.3,609.5,961.9,556.8,957.4,536z"/>
	</g>
	<path id="XMLID_930_" class="st2" d="M897,321.9L897,321.9c-3,9,3.7,18.3,13.2,18.3h16.5l22,18l-1.3,77.2l-10.7,27.9l-16.7,2.1
		l-52.3-30.2c-9.3-5.4-21.1-2.3-26.7,6.9l-2.8,4.7l63.8,48.4l38.6,49.6l8.1,81.7h94.4l-53.8-209l-14.5-73.4l-18.6-23.5L897,321.9z"
		/>
	<polygon id="XMLID_986_" class="st4" points="937.6,560.1 945.7,626.5 1046.1,626.5 1027.1,540.9 	"/>
	<polygon id="XMLID_935_" class="st2" points="937.6,560.1 945.7,626.5 1046.1,626.5 1027.1,540.9 	"/>
	<g id="XMLID_1000_">
		<path class="st14" d="M963.2,554.6l-25.6,5.5l8.1,66.4h49.1C983.6,605.3,970,575,963.2,554.6z"/>
	</g>
</g>
<g id="XMLID_528_">
	<path id="XMLID_565_" class="st5" d="M944.6,418.6l-10.8-68.3c-0.9-5.8-6-10.1-11.9-10.1H699c-7.4,0-13,6.6-11.9,13.9l10.8,68.3
		c0.9,5.8,6,10.1,11.9,10.1h222.9C940.1,432.4,945.7,425.9,944.6,418.6z"/>
	<g id="XMLID_564_">
		<path id="XMLID_567_" class="st8" d="M926.7,377.9l-1.5-9.6c-0.1-0.8-0.8-1.4-1.7-1.4H782.2c-1,0-1.8,0.9-1.7,2l1.5,9.6
			c0.1,0.8,0.8,1.4,1.7,1.4H925C926.1,379.8,926.9,378.9,926.7,377.9z"/>
		<path id="XMLID_566_" class="st4" d="M879.2,396l-1.5-9.6c-0.1-0.8-0.8-1.4-1.7-1.4h-91.4c-1,0-1.8,0.9-1.7,2l1.5,9.6
			c0.1,0.8,0.8,1.4,1.7,1.4h91.4C878.6,398,879.4,397.1,879.2,396z"/>
	</g>
	<g id="XMLID_537_">
		<g id="XMLID_541_">
			<g id="XMLID_543_">
				<path id="XMLID_548_" class="st8" d="M744.8,407.8c-4.3,2-8.3,2.8-13,2.8c-11.5,0-19.4-8.4-16.5-21.8
					c3-14.4,15.7-26.8,31.2-26.8c12.2,0,18.5,8.5,16,20.2c-2.2,10.5-9.4,16.6-16,16.6c-2.8,0-5-1.9-3.9-6.1h-0.3
					c-3.3,4.1-7,6.1-11.1,6.1s-6.8-3.3-5.7-8.8c1.8-8.7,10.4-16.5,20.1-16.5c3,0,5.5,0.6,7.2,1.5l-5.1,12.6
					c-2.2,5.3-1.9,7.8,0.4,7.8c3.5,0.1,8.5-4.7,10.3-12.8c2.1-10.1-2.4-17.4-13.2-17.4c-11.4,0-22.9,9-25.9,23.2
					c-2.5,11.7,3.6,18.9,13.9,18.9c4,0,7.9-0.8,11.1-2.4L744.8,407.8z M747.4,377.6c-0.7-0.2-1.8-0.5-3.4-0.5
					c-6.1,0-12.3,5.8-13.8,12.6c-0.7,3.1,0.4,5.3,3.5,5.3c4.1,0,8.8-5.2,10.5-9.5L747.4,377.6z"/>
			</g>
		</g>
	</g>
</g>
<g id="XMLID_999_">
	<path id="XMLID_1221_" class="st8" d="M739.5,626.5l-0.1-20.4c-0.1-9.3-4.6-17.9-12.2-23.3l-5.8-4.1c-1.6-1.1-3.4-1.9-5.3-2.4
		l-34.6-8.1l-13.1-25.8c-3-6-9.2-9.7-16-9.6l-14.4,0.3l-22.7-73.9c-1.4-4.4-5.5-7.5-10.1-7.5l0,0c-6.6,0-11.5,5.9-10.4,12.4
		l17.7,102.3v50.2c0,1.9-2.4,2.6-3.4,1l-9.5-14.7l-4.4-22.9c-2-10.5-11.4-17.9-22-17.4l-3.2,0.1v48.6l8.2,15.3L739.5,626.5z"/>
	<path id="XMLID_1411_" class="st8" d="M606.6,532l-6.1,11.6c-1.2,2.2-1.6,4.7-1.4,7.1l2.6,23.1c0.6,5,4.8,8.8,9.8,8.8h1.1v-16.2
		L606.6,532z"/>
	<path id="XMLID_1410_" class="st2" d="M606.6,532l-6.1,11.6c-1.2,2.2-1.6,4.7-1.4,7.1l2.6,23.1c0.6,5,4.8,8.8,9.8,8.8h1.1v-16.2
		L606.6,532z"/>
	<line id="XMLID_1241_" class="st2" x1="638" y1="533.1" x2="645.4" y2="561.7"/>
	<g id="XMLID_1415_">
		<path class="st10" d="M718.5,577.2c-0.3-0.1-0.6-0.2-0.9-0.4c-0.1,0-0.2-0.1-0.4-0.1c-0.4-0.1-0.8-0.3-1.3-0.4l-5.2-1.2l-24.4-5.7
			c1.1,1.9,2.3,3.8,3.8,5.5c4,4.7,9.3,8,13.8,12.1c8.2,7.5,13.9,17.7,15.9,28.6c0.7,3.6,1,7.2,1,10.9h18.5l-0.1-20.4V606
			c0-4-0.9-7.9-2.5-11.5c-0.3-0.6-0.6-1.2-0.9-1.7c-0.1-0.2-0.2-0.4-0.3-0.5c-0.2-0.4-0.4-0.8-0.7-1.2c-0.1-0.2-0.2-0.4-0.4-0.6
			c-0.2-0.4-0.5-0.7-0.8-1.1c-0.1-0.2-0.2-0.3-0.4-0.5c-0.4-0.5-0.8-1-1.2-1.5c-0.7-0.9-1.5-1.7-2.4-2.4c-0.8-0.8-1.7-1.5-2.7-2.2
			l-5.8-4.1c-0.8-0.5-1.6-1-2.4-1.4C718.8,577.3,718.7,577.2,718.5,577.2z"/>
	</g>
	<path id="XMLID_985_" class="st2" d="M739.5,626.5l-0.1-20.4c-0.1-9.3-4.6-17.9-12.2-23.3l-5.8-4.1c-1.6-1.1-3.4-1.9-5.3-2.4
		l-34.6-8.1l-13.1-25.8c-3-6-9.2-9.7-16-9.6l-14.4,0.3l-22.7-73.9c-1.4-4.4-5.5-7.5-10.1-7.5l0,0c-6.6,0-11.5,5.9-10.4,12.4
		l17.7,102.3v50.2c0,1.9-2.4,2.6-3.4,1l-9.5-14.7l-4.4-22.9c-2-10.5-11.4-17.9-22-17.4l-3.2,0.1v48.6l8.2,15.3L739.5,626.5z"/>
</g>
<g id="XMLID_1100_">
	<path id="XMLID_1112_" class="st10" d="M462.7,596.2l35.3,0.3c5.1,0,9-4.5,8.1-9.5l-6.1-36.6c-0.8-4.5-4.6-7.8-9.2-7.9l-35.3-0.3
		c-5.1,0-9,4.5-8.1,9.5l6.1,36.6C454.2,592.8,458.1,596.2,462.7,596.2z"/>
	<path id="XMLID_1111_" class="st8" d="M463.3,566.6c-0.4-0.3-0.3-0.8,0.1-0.9l8.2-1.1c0.1,0,0.1,0,0.2-0.1l0,0
		c0.1,0,0.1-0.1,0.1-0.2l1.1-4.5l0,0l0.7-3.1c0.1-0.4,0.6-0.4,0.9,0l5.9,7.8c0.1,0.2,0.3,0.3,0.5,0.3l8.9,1.3
		c0.4,0.1,0.7,0.6,0.5,0.9l-3.1,4l0,0l-1.5,1.9c-0.1,0.1-0.1,0.3,0,0.5l2.6,5.9l0,0l0.1,0.3l1,2.3c0.1,0.3,0,0.6-0.3,0.6
		c-0.1,0-0.2,0-0.3-0.1l-8.7-4.1c-0.2-0.1-0.3-0.1-0.5,0l-6.6,3.9c-0.3,0.2-0.8-0.1-0.9-0.5l-0.8-8.5c0-0.2-0.1-0.3-0.3-0.5
		L463.3,566.6z"/>
</g>
<path id="XMLID_1432_" class="st13" d="M505.6,462.6l-14.4-86.5c-1.8-10.7-11-18.5-21.8-18.6l-83.4-0.7c-12-0.1-21.2,10.6-19.2,22.5
	l14.4,86.5c1.8,10.7,11,18.5,21.8,18.6l83.3,0.8C498.4,485.2,507.6,474.5,505.6,462.6z"/>
<g id="XMLID_1007_">
	<path id="XMLID_941_" class="st8" d="M324.8,388.2l40-20.9l36.7,35.3l-13.7,11.8c-8.4,7.2-21,6.7-28.7-1.3l-10.3-10.5L321.5,461"/>
	<path id="XMLID_940_" class="st2" d="M324.8,388.2l40-20.9l36.7,35.3l-13.7,11.8c-8.4,7.2-21,6.7-28.7-1.3l-10.3-10.5L321.5,461"/>
	<path id="XMLID_934_" class="st8" d="M376.1,324.3l-43.9,12.1l-29.8,31l-29.7,68.7l-33.3,104.2l-23.5,86.2h83.2l-3.3-57.3
		c0,0,30-7.9,52.6-35.2l95.3-45.4l-3-4.8c-4.7-7.6-13.7-11.2-22.3-9l-65.5,16.8L321.4,461l3.3-72.9l15.7-29.7l31.2-18.2
		c3-1.8,4.8-5,4.7-8.5L376.1,324.3z"/>
	<g id="XMLID_933_">
		<path class="st10" d="M348.4,534.2l86.3-41.1c-1.7,0-3.4,0.3-5.1,0.6c-56.1,9.5-109.5,34.3-153,70.9c-3.3,1.1-6.7,2.1-10,3.2
			c8.3,15.6,8.9,35.2,1.5,51.3c-1.2,2.6-2.6,5.1-4,7.6h35l-3.3-57.3C295.8,569.4,325.8,561.4,348.4,534.2z"/>
	</g>
	<path id="XMLID_932_" class="st2" d="M376.1,324.3l-43.9,12.1l-29.8,31l-29.7,68.7l-33.3,104.2l-23.5,86.2h83.2l-3.3-57.3
		c0,0,30-7.9,52.6-35.2l95.3-45.4l-3-4.8c-4.7-7.6-13.7-11.2-22.3-9l-65.5,16.8L321.4,461l3.3-72.9l15.7-29.7l31.2-18.2
		c3-1.8,4.8-5,4.7-8.5L376.1,324.3z"/>
	<polygon id="XMLID_1010_" class="st3" points="297.1,593 299.1,626.6 215.9,626.6 227.8,583.1 	"/>
	<polygon id="XMLID_1420_" class="st2" points="297.1,593 299.1,626.6 215.9,626.6 227.8,583.1 	"/>
</g>
<g id="XMLID_1222_">
	<path id="XMLID_1419_" class="st3" d="M392,473.3l83.3,0.8c12,0.1,21.2-10.6,19.2-22.5l-14.4-86.5c-1.8-10.7-11-18.5-21.8-18.6
		l-83.3-0.7c-12-0.1-21.2,10.6-19.2,22.5l14.4,86.5C372,465.4,381.2,473.2,392,473.3z"/>
	<g id="XMLID_1237_">
		<path id="XMLID_1417_" class="st8" d="M426,378.1h17.1l-9.8,30.7l32.3,33h-17.3l-20.5-20.9l-6.6,20.9h-17.1l10.7-32.6l-30.2-31.1
			h17l18.3,18.9L426,378.1z"/>
	</g>
</g>
<g id="XMLID_1421_">
	<path id="XMLID_1427_" class="st10" d="M795.9,595.1l35.8,0.3c5.2,0,9.1-4.6,8.3-9.7l-6.2-37.2c-0.8-4.6-4.7-8-9.4-8l-35.8-0.3
		c-5.2,0-9.1,4.6-8.3,9.7l6.2,37.2C787.3,591.7,791.2,595.1,795.9,595.1z"/>
	<g id="XMLID_1424_">
		<polygon id="XMLID_1426_" class="st8" points="803.8,578.3 797,569.4 803.3,564.3 806.2,568.1 819.4,557.5 823.3,562.6 		"/>
	</g>
</g>
<g id="XMLID_71_">
	<polygon id="XMLID_73_" class="st5" points="311.4,132.9 234.2,134 312,175.3 312.8,156.1 307.7,154.4 312.5,148.3 	"/>
	<polygon id="XMLID_72_" class="st4" points="312.5,148.3 286.6,147.3 307.7,154.4 	"/>
</g>
</svg>
