<?xml version="1.0" encoding="utf-8"?>
<!-- Generator: Adobe Illustrator 23.0.1, SVG Export Plug-In . SVG Version: 6.00 Build 0)  -->
<svg version="1.1" id="Solution" xmlns="http://www.w3.org/2000/svg" xmlns:xlink="http://www.w3.org/1999/xlink" x="0px" y="0px"
	 viewBox="0 0 958.6 658.7" style="enable-background:new 0 0 958.6 658.7;" xml:space="preserve">
<style type="text/css">
	.st0{fill:#EEF4FC;}
	.st1{fill:#FFFFFF;}
	.st2{fill:#70A4E9;}
	.st3{fill:#1067DB;}
	.st4{fill:none;stroke:#002DAA;stroke-width:2;stroke-miterlimit:10;}
	.st5{fill:#002DAA;}
	.st6{fill:none;stroke:#002DAA;stroke-linecap:round;stroke-miterlimit:10;}
	.st7{fill:none;stroke:#002DAA;stroke-width:2;stroke-linecap:round;stroke-miterlimit:10;}
	.st8{fill:url(#XMLID_2_);}
	.st9{fill:#CFE1F8;}
	.st10{fill:#4085E2;}
	.st11{fill:#FF5722;}
	.st12{fill:#B3CDFA;}
	.st13{opacity:0.5;fill:#001755;enable-background:new    ;}
	.st14{fill:#C2D7FB;}
	.st15{fill:#3357BB;}
</style>
<g id="XMLID_111_">
	<g id="XMLID_703_">
		<path class="st0" d="M778.8,291.6c-4.7-30.9-23.4-60.3-48.8-79.3c-37-27.6-85-36.2-131.2-35.5c-81.6,1.3-109.1-77-171.9-112.5
			C383,39.5,326.2,46.1,282.3,70.9c-44,24.8-77,65.2-104.3,107.6c-12.1,18.7-23.6,38.4-40.7,52.7c-15.4,12.9-34.3,20.6-51.4,31.1
			C35.6,293.2,2.3,350.2,0.1,409.2c-2.2,59,26.6,118.3,74.4,152.9c38.7,28.1,95.5,48,140.2,63.1c49.8,16.8,106.5,2.6,157.6,2.8
			c108.3,0.4,216.6,0.8,325,1.2l0,0c21.5,0.1,49.4,4.4,69.4-1.2c-8.6,2.4,11.9-48.6,12.4-52.3c3-20.2-2.2-39.7-12.9-57
			c-14.9-24.2-36.1-46.9-37.8-75.3c-2.4-40.4,35.3-71.3,47.4-109.9C780.2,319.9,781,305.6,778.8,291.6z"/>
	</g>
	<g id="XMLID_39_">
		<g id="XMLID_109_">
			<path class="st1" d="M132.4,509c-3-8.3-10.4-14.4-18.6-17.6s-17.2-3.6-26-3.2c2.8,6.2,0.2,13.3-1.1,20
				c-1.4,7.7-0.9,15.9,2.8,22.8c2.1,3.9,5.3,7.3,9.2,9.6c3.9,2.3,8.1,2.3,12.4,3.1c2.2,0.4,4.4,1.5,6.7,1.2c3.3-0.3,5.7-3.3,7.1-6.3
				c1.2-2.5,1.9-5.2,3.3-7.6c1.3-2.2,3-4.1,4-6.6C134.1,519.5,134.2,513.9,132.4,509z"/>
		</g>
		<g id="XMLID_104_">
			<path class="st2" d="M148.7,482.2c0.2-8.8-4.4-17.2-10.9-23.1s-14.7-9.6-23.1-12.4c0.3,6.8-4.7,12.5-8.2,18.3
				c-4.1,6.6-6.6,14.5-5.6,22.2c0.5,4.4,2.3,8.8,5.1,12.3c2.8,3.6,6.7,5.1,10.4,7.4c1.9,1.2,3.6,3,5.8,3.6c3.2,0.9,6.5-1,8.9-3.3
				c2-1.9,3.6-4.2,5.8-5.9c2.1-1.6,4.3-2.7,6.1-4.7C146.5,492.6,148.6,487.4,148.7,482.2z"/>
		</g>
		<g id="XMLID_100_">
			<path class="st3" d="M177.4,511c-1.8-6.7-5.2-12.9-7.6-19.5c-2.5-6.7-4-13.9-4.4-21.1c-6.5,10.4-20.8,12.5-30,20.6
				c-5.4,4.7-8.8,11.5-10,18.5c-1.4,7.8-0.5,15.6,3.7,22.4c0.2,0.3,0.4,0.6,0.6,0.9c1.2,2,2.5,4,3.7,6c0.6,1,1.4,2.1,2.5,2.3
				c0.5,0.1,1,0,1.6-0.1c3.7-0.6,7.4,0.5,11.1,0.6c3.3,0.1,7-0.5,10.3-1c6.4-1.1,12.9-3.8,16.6-9.4
				C179.3,525.4,179.2,517.8,177.4,511z"/>
		</g>
		<path id="XMLID_94_" class="st4" d="M97.8,498.6c14.5,16.4,20.7,38.8,27.4,59.2c7.5,22.8,13.5,46.4,14.9,70.5"/>
		<path id="XMLID_86_" class="st4" d="M117.8,471.3c3.5,24.3,10.5,48.5,11.3,73.1c1,28.6,2.9,57.1,5.7,85.5"/>
		<path id="XMLID_64_" class="st4" d="M157.5,494.5c-12.6,16.5-21.1,37-21.5,57.8c-0.5,25.8-2.2,51.6-3.3,77.3"/>
		<g id="XMLID_62_">
			<path class="st5" d="M135.6,577.1c1.9-1.5,2.3-4.2,2.9-6.6c1.2-4.3,3.8-8,6.4-11.6c2.1-2.9,4.5-6.1,8.1-6.5
				c0.8-0.1,1.7,0,2.4,0.4c1.7,1,1.7,3.4,1.3,5.3c-1.2,5.1-4.5,9.5-8.5,12.9s-8.6,5.9-13.2,8.5L135.6,577.1z"/>
		</g>
		<g id="XMLID_61_">
			<path class="st5" d="M130,558.9c1.4-1.1,1.6-3,2.1-4.7c0.9-3,2.7-5.7,4.6-8.3c1.5-2.1,3.2-4.3,5.8-4.6c0.6-0.1,1.2,0,1.7,0.3
				c1.2,0.7,1.2,2.4,0.9,3.8c-0.8,3.6-3.2,6.8-6,9.2s-6.2,4.2-9.4,6L130,558.9z"/>
		</g>
		<g id="XMLID_51_">
			<path class="st5" d="M107.9,565.3c1.9-3,6.1-4,9.5-2.9s6,3.9,8,6.8c2,3,3.6,6.2,5.7,9.1l-1,4.5c-1.7-2-4.5-2.4-7.1-2.8
				c-4.2-0.6-8.6-1.2-12-3.7C107.7,573.9,105.7,568.9,107.9,565.3z"/>
		</g>
		<g id="XMLID_40_">
			<path class="st5" d="M110.8,548.2c1.2-1.9,3.8-2.5,5.9-1.8s3.7,2.4,5,4.2s2.2,3.9,3.5,5.6l-0.6,2.8c-1-1.2-2.8-1.5-4.4-1.7
				c-2.6-0.3-5.3-0.7-7.4-2.3C110.6,553.5,109.4,550.5,110.8,548.2z"/>
		</g>
	</g>
	<g id="XMLID_10_">
		<path id="XMLID_1060_" class="st3" d="M766.2,517.7c0,0-85.3-44.1-69.1-123.6c0,0,11.8,26.1,35,37.4
			C732.1,431.5,780.5,471.3,766.2,517.7z"/>
		<path id="XMLID_1058_" class="st3" d="M875.5,514.6c0,0-1.7,55.4-76.9,46.4c0,0-6.9-19,28.3-30.6c5.6-1.8,11.5-2.2,17.3-1.7
			C851.7,529.3,864.4,527.9,875.5,514.6z"/>
		<path id="XMLID_1057_" class="st2" d="M826.2,533c5.6-1.8,11.5-2.2,17.3-1.7c7.5,0.6,20.2-0.8,31.3-14.1c0,0-0.1,2.5-0.9,6.4
			c1.5-5.3,1.6-9,1.6-9c-11.1,13.3-23.8,14.7-31.3,14.1c-5.8-0.5-11.7-0.1-17.3,1.7c-22.1,7.3-27.6,17.5-28.6,24.1
			C800.3,548,806.9,539.4,826.2,533z"/>
		<path id="XMLID_1051_" class="st3" d="M841.5,403.1c0,0-97.8,58.9-59,139.8c0,0,19-4.4,36.4-30.5c11.5-17.2,16.7-37.8,16.2-58.5
			C834.9,442.1,836,424.9,841.5,403.1z"/>
		<path id="XMLID_1050_" class="st2" d="M835.2,453.9c-0.3-11.7,0.8-29,6.4-50.8c0,0,0.2-0.4-3.8,2.5c-4.2,18.7-5.1,32.4-4.8,43
			c0.5,20.7-4.4,46.6-15.9,63.8c-13,19.5-28.3,28.1-34.5,30.6c0.5,1.2-0.6-1.2,0,0c0,0,19-4.4,36.4-30.5
			C830.5,495.1,835.7,474.6,835.2,453.9z"/>
		<path id="XMLID_1049_" class="st3" d="M730.4,499.4c0,0-26.7-22.4-60,13.3c0,0,45.9-8.3,41.8,15.7c0,0,2.5,32,26.7,43.1
			C738.9,571.4,767.2,520.1,730.4,499.4z"/>
		<path id="XMLID_1048_" class="st2" d="M729.2,501.8c32,18.1,14.7,59.3,9.7,69.6l0,0c0,0,28.3-51.3-8.5-72.1c0,0-26.7-22.4-60,13.3
			c0,0,0.5-0.1,1.3-0.2C703.8,480.5,729.2,501.8,729.2,501.8z"/>
		<path id="XMLID_1047_" class="st6" d="M822.9,428.5c-12.1,29-22.4,58.8-30.9,89c-2.4,8.6-4.7,17.2-8.2,25.4
			c-13.3,31.3-43.4,54.8-49.9,88.1"/>
		<path id="XMLID_1046_" class="st6" d="M848.5,539.1c-17,14.9-42.9,13.7-62.3,25.3c-19.9,11.9-33.6,42.3-36,65.4"/>
		<path id="XMLID_1045_" class="st6" d="M702,423.2c1.7,13.6,11,25,21,34.3s21.3,17.6,29.2,28.8c8.9,12.6,12.9,28.6,10.9,43.9
			c-1.6,12.5-6.9,24.2-11.1,36c-4.2,11.9-7.4,24.7-4.7,37"/>
		<path id="XMLID_1044_" class="st6" d="M688.7,504.6c6.7-0.1,13.4,0.9,19.8,2.8c4,1.3,8.1,3,10.7,6.3c2.1,2.6,3.1,5.8,4,8.9
			c6.9,22.7,13.9,45.4,20.8,68.1c3.9,12.7,7.8,25.8,6.2,38.9"/>
	</g>
	<line id="XMLID_503_" class="st7" x1="15" y1="630.9" x2="944" y2="630.9"/>
	<g id="XMLID_31_">
		
			<linearGradient id="XMLID_2_" gradientUnits="userSpaceOnUse" x1="-514.5311" y1="-912.3841" x2="17.7125" y2="-912.3841" gradientTransform="matrix(-1 0 0 -1 161.6866 -536.3578)">
			<stop  offset="3.802280e-03" style="stop-color:#E3EDFE"/>
			<stop  offset="0.2686" style="stop-color:#F1F6FF"/>
			<stop  offset="0.6035" style="stop-color:#FCFDFF"/>
			<stop  offset="1" style="stop-color:#FFFFFF"/>
		</linearGradient>
		<path id="XMLID_82_" class="st8" d="M156.1,198.4l450.5,2.5c6.6,0,12.8,5.3,13.9,11.9l55.7,340.9H199.8l-55.7-340.6
			c-0.7-4.1,1.2-8.2,4.8-10.4L156.1,198.4z"/>
		<path id="XMLID_78_" class="st4" d="M156.1,198.4l450.5,2.5c6.6,0,12.8,5.3,13.9,11.9l55.7,340.9H199.8l-55.7-340.6
			c-0.7-4.1,1.2-8.2,4.8-10.4L156.1,198.4z"/>
		<path id="XMLID_76_" class="st5" d="M205.9,550.5h476.4l-55.7-340.9c-1.1-6.6-7.3-11.9-13.9-11.9H160.2c-6.6,0-11.1,5.3-10,11.9
			L205.9,550.5z"/>
		<path id="XMLID_70_" class="st7" d="M682.3,550.5l-55.7-340.9c-1.1-6.6-7.3-11.9-13.9-11.9H160.2c-6.6,0-11.1,5.3-10,11.9
			l51.2,313.6"/>
		<polygon id="XMLID_57_" class="st9" points="659.9,531.2 608.6,216.9 170.7,216.9 222,531.2 		"/>
	</g>
	<g id="XMLID_507_">
		<path id="XMLID_637_" class="st5" d="M818.9,301.5H601.3c-3.2,0-5.8-2.1-6.3-5.2l-7.3-42.6c-0.8-4.6,3.2-9.2,8-9.2h217.6
			c3.2,0,5.8,2.1,6.3,5.2l7.3,42.6C827.7,296.9,823.7,301.5,818.9,301.5z"/>
		<g id="XMLID_621_">
			<path id="XMLID_635_" class="st10" d="M768.4,264.6H667.8c-0.4,0-0.7-0.2-0.8-0.6l-1.4-4.9c-0.2-0.5,0.2-1.1,0.8-1.1H767
				c0.4,0,0.7,0.2,0.8,0.6l1.4,4.9C769.3,264.1,768.9,264.6,768.4,264.6z"/>
			<path id="XMLID_632_" class="st1" d="M723.4,280h-51.3c-0.4,0-0.7-0.2-0.8-0.6l-1.4-4.9c-0.2-0.5,0.2-1.1,0.8-1.1H722
				c0.4,0,0.7,0.2,0.8,0.6l1.4,4.9C724.4,279.4,724,280,723.4,280z"/>
			<path id="XMLID_630_" class="st1" d="M805.1,280h-70.5c-0.4,0-0.7-0.2-0.8-0.6l-1.4-4.9c-0.2-0.5,0.2-1.1,0.8-1.1h70.5
				c0.4,0,0.7,0.2,0.8,0.6l1.4,4.9C806.1,279.4,805.7,280,805.1,280z"/>
		</g>
		<path id="XMLID_559_" class="st11" d="M622.7,251.9c11.8,0,23.7,9.6,26.6,21.4c2.8,11.8-4.5,21.4-16.3,21.4s-23.7-9.6-26.6-21.4
			C603.6,261.5,610.9,251.9,622.7,251.9z"/>
	</g>
	<g id="XMLID_370_">
		<path id="XMLID_160_" class="st1" d="M245.9,392.3l40-20.9l36.7,35.3l-13.7,11.8c-8.4,7.2-21,6.7-28.7-1.3l-10.3-10.5l-27.3,58.4"
			/>
		<path id="XMLID_162_" class="st7" d="M245.9,392.3l40-20.9l36.7,35.3l-13.7,11.8c-8.4,7.2-21,6.7-28.7-1.3l-10.3-10.5l-27.3,58.4"
			/>
		<path id="XMLID_68_" class="st1" d="M654.5,403.9L626.2,389l-40.6,7.5l1.3,5.2c2.3,8.8,11,14.3,19.9,12.4l17.2-3.6l29.8,30.6
			L654.5,403.9z"/>
		<path id="XMLID_123_" class="st7" d="M654.5,403.9L626.2,389l-40.6,7.5l1.3,5.2c2.3,8.8,11,14.3,19.9,12.4l17.2-3.6l29.8,30.6
			L654.5,403.9z"/>
		<path id="XMLID_401_" class="st11" d="M609.5,349.1L609.5,349.1c-12,2.6-31.7,5.4-39.6-2.5c-10.2-10.2,10.2-32.9,0-43.1
			s-32.9-10.2-43.1,0s10.2,32.9,0,43.1c-11.6,11.6-49.2,0-49.2,0s-11.6,37.6,0,49.2c10.2,10.2,32.9-10.2,43.1,0
			c10.2,10.2,10.2,32.9,0,43.1c-10.2,10.2-32.9-10.2-43.1,0c-11.6,11.6,0,49.2,0,49.2c47.2,0,94.4,0,141.6,0c0-47.2,0-94.4,0-141.6
			C619.1,346.6,615.2,347.8,609.5,349.1z"/>
		<path id="XMLID_380_" class="st5" d="M454.6,387.8c-10.2-10.2-32.9,10.2-43.1,0c-11.6-11.6,0-49.2,0-49.2s-37.6-11.6-49.2,0
			c-10.2,10.2,10.2,32.9,0,43.1s-32.9,10.2-43.1,0s10.2-32.9,0-43.1c-10.8-10.8-44.1-1.5-48.7-0.2c-0.3,0.1-0.5,0.2-0.5,0.2l0,0
			c0,47.2,0,94.4,0,141.6c47.2,0,94.4,0,141.6,0c0,0-1.4-4.7-2.8-11.3l0,0c-2.5-12.1-4.7-30.5,2.8-38c10.2-10.2,32.9,10.2,43.1,0
			C464.7,420.7,464.7,397.9,454.6,387.8z"/>
		<path id="XMLID_260_" class="st1" d="M612.5,338.5l-0.5,1.4c-2.8,7.7,0.7,16.2,8,19.8l14.9,7.3l19.7,36.8l-1.3,77.2l-10.7,27.9
			l-16.7,2.1l-52.3-30.2c-9.3-5.4-21.1-2.3-26.7,6.9l-2.8,4.7l63.8,48.4l38.6,49.6l8.1,40.2H749l-53.8-167.5l-14.5-73.4l-34.2-43.1
			L612.5,338.5z"/>
		<path id="XMLID_161_" class="st1" d="M297.2,328.4l-43.9,12.1l-29.8,31l-29.7,68.7l-33.3,104.2L137,630.6h83.2l-3.3-57.3
			c0,0,30-7.9,52.6-35.2l95.3-45.4l-3-4.8c-4.7-7.6-13.7-11.2-22.3-9L274,495.7l-31.5-30.6l3.3-72.9l15.7-29.7l31.2-18.2
			c3-1.8,4.8-5,4.7-8.5L297.2,328.4z"/>
		<g id="XMLID_404_">
			<path class="st12" d="M269.6,538.3l86.3-41.1c-1.7,0-3.4,0.3-5.1,0.6c-56.1,9.5-109.5,34.3-153,70.9c-3.3,1.1-6.7,2.1-10,3.2
				c8.3,15.6,8.9,35.2,1.5,51.3c-1.2,2.6-2.6,5.1-4,7.6h35l-3.3-57.3C217,573.5,247,565.5,269.6,538.3z"/>
		</g>
		<path id="XMLID_155_" class="st7" d="M297.2,328.4l-43.9,12.1l-29.8,31l-29.7,68.7l-33.3,104.2L137,630.6h83.2l-3.3-57.3
			c0,0,30-7.9,52.6-35.2l95.3-45.4l-3-4.8c-4.7-7.6-13.7-11.2-22.3-9L274,495.7l-31.5-30.6l3.3-72.9l15.7-29.7l31.2-18.2
			c3-1.8,4.8-5,4.7-8.5L297.2,328.4z"/>
		<g id="XMLID_407_">
			<path class="st12" d="M663.2,581.7c-6.5,1.6-11.5-6.3-11.6-12.9c-0.1-6.7,2.3-13.5,0.4-19.9c-2.1-7-8.9-11.5-15.7-14
				s-14.2-3.5-20.8-6.4c-6.9-3.1-12.7-8.2-18.4-13.1c-9.3-7.9-19.2-15.9-31.1-18.7c-5.2-1.2-10.9-1.2-16.1,0.1l58.1,44.1l38.6,49.6
				l8.1,40.2h49.1C692.1,613.7,667.7,602.5,663.2,581.7z"/>
		</g>
		<path id="XMLID_130_" class="st7" d="M612.5,338.5l-0.5,1.4c-2.8,7.7,0.7,16.2,8,19.8l14.9,7.3l19.7,36.8l-1.3,77.2l-10.7,27.9
			l-16.7,2.1l-52.3-30.2c-9.3-5.4-21.1-2.3-26.7,6.9l-2.8,4.7l63.8,48.4l38.6,49.6l8.1,40.2H749l-53.8-167.5l-14.5-73.4l-34.2-43.1
			L612.5,338.5z"/>
	</g>
	<polygon id="XMLID_471_" class="st13" points="213.6,197.7 147,197.7 163.2,292.4 229.9,292.4 	"/>
	<path id="XMLID_508_" class="st13" d="M188.6,313.6h-22.7l15.1,87.6h19c6.6,0,11.6-5.9,10.5-12.5l-11.4-66.3
		C198.2,317.3,193.8,313.6,188.6,313.6z"/>
	<g id="XMLID_35_">
		<polygon id="XMLID_49_" class="st3" points="215.4,280.4 112.7,280.4 94.2,167.6 196.9,167.6 		"/>
		<path id="XMLID_48_" class="st1" d="M149.1,175.1c-14.6,0-24.5,11.9-22.1,26.5s16.2,26.5,30.9,26.5c14.6,0,24.5-11.9,22.1-26.5
			h-26.5L149.1,175.1z"/>
		<polygon id="XMLID_45_" class="st1" points="196.1,240.9 123.7,240.9 122.5,233.9 195,233.9 		"/>
		<polygon id="XMLID_44_" class="st1" points="198.4,254.8 126,254.8 124.8,247.9 197.3,247.9 		"/>
		<polygon id="XMLID_38_" class="st1" points="174.5,268.8 128.3,268.8 127.1,261.8 173.4,261.8 		"/>
	</g>
	<g id="XMLID_50_">
		<polygon id="XMLID_416_" class="st11" points="294.3,207.5 175.4,207.5 153.8,76.8 272.8,76.8 		"/>
		<polygon id="XMLID_414_" class="st1" points="288.7,194.1 180.5,194.1 179.1,186 287.4,186 		"/>
		<polygon id="XMLID_413_" class="st1" points="197,180.8 182.7,180.8 178.2,153.6 192.5,153.6 		"/>
		<polygon id="XMLID_408_" class="st1" points="218.1,180.8 203.8,180.8 195.6,130.9 209.9,130.9 		"/>
		<polygon id="XMLID_400_" class="st1" points="239.3,180.8 225,180.8 211.6,99.5 225.9,99.5 		"/>
		<polygon id="XMLID_388_" class="st1" points="260.4,180.8 246.1,180.8 236,119.7 250.4,119.7 		"/>
		<polygon id="XMLID_381_" class="st1" points="281.6,180.8 267.2,180.8 253.8,99.5 268.2,99.5 		"/>
	</g>
	<g id="XMLID_419_">
		<polygon id="XMLID_443_" class="st5" points="149.5,155.7 62.1,155.7 46.3,59.7 133.6,59.7 		"/>
		<polygon id="XMLID_432_" class="st1" points="94.1,103.8 68.4,103.8 62.8,69.8 88.5,69.8 		"/>
		<polygon id="XMLID_431_" class="st1" points="132.4,117.8 70.7,117.8 69.7,111.8 131.4,111.8 		"/>
		<polygon id="XMLID_430_" class="st1" points="134.7,131.8 73,131.8 72,125.9 133.7,125.9 		"/>
		<polygon id="XMLID_429_" class="st1" points="114.7,145.8 75.3,145.8 74.3,139.9 113.7,139.9 		"/>
		<polygon id="XMLID_428_" class="st1" points="125.4,75.7 94.6,75.7 93.6,69.8 124.4,69.8 		"/>
		<polygon id="XMLID_427_" class="st1" points="127.7,89.8 96.9,89.8 95.9,83.8 126.8,83.8 		"/>
		<polygon id="XMLID_423_" class="st1" points="130,103.8 99.2,103.8 98.2,97.8 129.1,97.8 		"/>
	</g>
	<path id="XMLID_485_" class="st13" d="M335.3,285.8c0.9,5.4,6,9.8,11.4,9.8h222.1c5.4,0,9.1-4.4,8.2-9.8l-14.5-89.1H320.8
		L335.3,285.8z"/>
	<g id="XMLID_445_">
		<path id="XMLID_483_" class="st1" d="M555.3,282.1H333.2c-5.4,0-10.5-4.4-11.4-9.8l-21-129.5c-0.9-5.4,2.8-9.8,8.2-9.8h222.1
			c5.4,0,10.5,4.4,11.4,9.8l21,129.5C564.4,277.7,560.7,282.1,555.3,282.1z"/>
		<g id="XMLID_481_">
			<polygon id="XMLID_482_" class="st3" points="546,256.6 334.3,256.6 333.9,254.7 545.7,254.7 			"/>
		</g>
		<polygon id="XMLID_474_" class="st14" points="522.6,154.2 345.9,154.2 345.4,150.8 522.1,150.8 		"/>
		<polygon id="XMLID_473_" class="st14" points="420.7,163.4 347.4,163.4 346.9,160 420.2,160 		"/>
		<g id="XMLID_470_">
			<path id="XMLID_472_" class="st15" d="M350,247.9c16.8-5.3,24.7-22.6,44.6-21.2c18.2,1.3,36,12.2,53.7,8.2
				c16.6-3.7,25.8-14.4,35.4-26.6c11.7-14.7,29.9-22.1,50.1-21.7l-0.4-2.6c-15.7-0.3-30.3,3.9-41.9,12.7c-6,4.6-10.2,10.5-14.7,16.5
				c-6.3,8.4-15.6,15-26.1,18.2c-19.8,6.1-39.8-7.6-60.2-7.5c-18.4,0.1-25.6,16.4-41.6,21.5C348.9,245.4,348.5,248.3,350,247.9
				L350,247.9z"/>
		</g>
		<g id="XMLID_468_">
			<path id="XMLID_469_" class="st11" d="M350.3,254.3c15.3,3.4,19.1-11.4,26.8-19.9c14.9-16.3,41-18.4,64-12.1
				c16.2,4.4,33,9.7,46,0.1c6.6-4.9,12.8-10.8,18.3-16.8c8.3-8.9,16.4-21.1,32-18l-0.4-2.5c-15.8-3.2-23.8,7.9-32.5,17.4
				c-7.1,7.8-15.7,18.1-26.2,21.7c-11.4,3.9-24.9-1-37-4.3c-17.5-4.7-34.7-4.9-50,1.7c-5.8,2.5-11.1,5.7-15.4,10.1
				c-7.3,7.4-11.1,23.4-25.5,20.2L350.3,254.3L350.3,254.3z"/>
		</g>
		<g id="XMLID_460_">
			<polygon id="XMLID_462_" class="st3" points="353.7,266.5 351.8,266.5 332.5,147.4 334.3,147.4 			"/>
		</g>
	</g>
	<g id="XMLID_1055_">
		<path id="XMLID_497_" class="st11" d="M578.8,180.7l76.7,0.7c11,0.1,19.5-9.8,17.7-20.7l-13.3-79.5c-1.6-9.8-10.1-17-20-17.1
			l-76.7-0.7c-11-0.1-19.5,9.8-17.7,20.7l13.3,79.5C560.4,173.4,568.8,180.6,578.8,180.7z"/>
		<g id="XMLID_495_">
			<path id="XMLID_1054_" class="st1" d="M603.7,142.2l24.5,4.3c2.1,0.4,3.6-1.2,3.2-3.2l0,0c-0.3-1.6-1.7-2.9-3.3-3.2l-24.5-4.3
				c-2.1-0.4-3.6,1.2-3.2,3.2l0,0C600.7,140.6,602.1,141.9,603.7,142.2z"/>
			<path id="XMLID_1102_" class="st1" d="M605.6,152.3l24.5,4.3c2.1,0.4,3.6-1.2,3.2-3.2l0,0c-0.3-1.6-1.7-2.9-3.3-3.2l-24.5-4.3
				c-2.1-0.4-3.6,1.2-3.2,3.2l0,0C602.6,150.7,604,152,605.6,152.3z"/>
			<path id="XMLID_1105_" class="st1" d="M585.7,104.8c-2.5-12.9,6-23.3,18.8-23.3c12.9,0,25.3,10.4,27.7,23.3
				c1.4,7.1-0.6,13.4-4.8,17.7l2.8,14.4l-31.2-5.5l-1.7-8.9C591.4,118.2,587,111.9,585.7,104.8z"/>
			<path id="XMLID_1107_" class="st1" d="M622.5,158.5c0,2.3-1.7,4.1-4.1,4.1c-2.8,0-5.5-2.2-6-5c-0.1-0.3-0.1-0.6-0.1-0.9
				L622.5,158.5z"/>
		</g>
	</g>
	<g id="XMLID_1061_">
		<path id="XMLID_1106_" class="st5" d="M51,393.1h140.2c3.6,0,6.1-2.9,5.6-6.4l-11-76.3c-0.5-3.5-3.8-6.4-7.4-6.4H38.2
			c-3.6,0-6.1,2.9-5.6,6.4l11,76.3C44.1,390.2,47.4,393.1,51,393.1z"/>
		<polygon id="XMLID_1066_" class="st12" points="54.5,319.3 116.1,319.3 115.3,313.9 53.7,313.9 		"/>
		<polygon id="XMLID_1064_" class="st12" points="56.4,331 87.2,331 86.4,325.6 55.6,325.6 		"/>
		<path id="XMLID_1063_" class="st1" d="M185.3,380.3c-5.9-6.6-12.4-15-18.8-21.1c-2.3-2.1-4.8-4.3-7.8-4.7
			c-4.2-0.6-7.3,2.5-9.9,5.2c-3.1,3.3-6.6,6.7-11.3,7.6c-5.8,1.1-12.1-1.8-17.8-4.7c-5-2.5-10.1-5.2-14-9.3
			c-3.7-3.9-6.3-9.1-10.8-12.1c-0.8-0.5-1.7-1-2.6-1.1c-1.6-0.2-2.9,0.7-3.8,1.8c-2.4,2.9-2.8,7-3.8,10.7c-0.9,3.7-2.8,7.6-6.7,8.5
			c-5,1.2-10.3-3.3-13.6-7.9c-3.3-4.5-6.1-9.9-11-12.5c-1.5-0.8-3.4-1.3-4.7-0.4c-1.4,0.9-1.4,3-1.3,4.7c0.4,7.4,0.8,14.7,1.1,22.1
			c0.2,3.1,1,10.4,3.2,12.9L185.3,380.3z"/>
	</g>
	<path id="XMLID_1026_" class="st5" d="M697.6,325.3c1.6,0,3.3,1.3,3.6,2.9c0.4,1.6-0.6,2.9-2.2,2.9c-1.6,0-3.3-1.3-3.6-2.9
		C695,326.7,696,325.3,697.6,325.3z"/>
	<path id="XMLID_29_" class="st5" d="M71.3,199.2c1.6,0,3.3,1.3,3.6,2.9s-0.6,2.9-2.2,2.9s-3.3-1.3-3.6-2.9S69.7,199.2,71.3,199.2z"
		/>
	<path id="XMLID_25_" class="st5" d="M461.5,38.7c1.6,0,3.3,1.3,3.6,2.9c0.4,1.6-0.6,2.9-2.2,2.9s-3.3-1.3-3.6-2.9
		C458.9,40.1,459.9,38.7,461.5,38.7z"/>
	<path id="XMLID_883_" class="st3" d="M739.8,400.7c2.6,0,5.3,2.1,5.9,4.8c0.6,2.6-1,4.8-3.6,4.8s-5.3-2.1-5.9-4.8
		C735.5,402.8,737.2,400.7,739.8,400.7z"/>
	<path id="XMLID_34_" class="st3" d="M142.8,425.1c2.6,0,5.3,2.1,5.9,4.8c0.6,2.6-1,4.8-3.6,4.8s-5.3-2.1-5.9-4.8
		C138.6,427.2,140.2,425.1,142.8,425.1z"/>
	<path id="XMLID_27_" class="st3" d="M295.4,30.2c2.6,0,5.3,2.1,5.9,4.8c0.6,2.6-1,4.8-3.6,4.8s-5.3-2.1-5.9-4.8
		C291.1,32.3,292.7,30.2,295.4,30.2z"/>
	<path id="XMLID_28_" class="st11" d="M92.5,272.6c2.6,0,5.3,2.1,5.9,4.8s-1,4.8-3.6,4.8s-5.3-2.1-5.9-4.8S89.8,272.6,92.5,272.6z"
		/>
	<path id="XMLID_14_" class="st5" d="M716.2,79c2.6,0,5.3,2.1,5.9,4.8c0.6,2.6-1,4.8-3.6,4.8s-5.3-2.1-5.9-4.8
		C712,81.2,713.6,79,716.2,79z"/>
	<path id="XMLID_881_" class="st11" d="M783.3,346.8c1,0,1.9,0.8,2.2,1.7c0.2,1-0.4,1.7-1.3,1.7s-1.9-0.8-2.2-1.7
		C781.7,347.5,782.3,346.8,783.3,346.8z"/>
	<path id="XMLID_37_" class="st5" d="M82.5,444.7c1.4,0,2.9,1.2,3.2,2.6c0.3,1.4-0.5,2.6-2,2.6c-1.4,0-2.9-1.2-3.2-2.6
		C80.2,445.8,81.1,444.7,82.5,444.7z"/>
	<path id="XMLID_36_" class="st11" d="M109.1,508.6c1,0,1.9,0.8,2.2,1.7c0.2,1-0.4,1.7-1.3,1.7c-1,0-1.9-0.8-2.2-1.7
		C107.6,509.4,108.1,508.6,109.1,508.6z"/>
	<path id="XMLID_18_" class="st11" d="M507.5,102c1,0,1.9,0.8,2.2,1.7c0.2,1-0.4,1.7-1.3,1.7c-1,0-1.9-0.8-2.2-1.7
		C506,102.8,506.6,102,507.5,102z"/>
	<path id="XMLID_12_" class="st3" d="M673,208.3c1,0,1.9,0.8,2.2,1.7c0.2,1-0.4,1.7-1.3,1.7s-1.9-0.8-2.2-1.7
		C671.4,209.1,672,208.3,673,208.3z"/>
	<path id="XMLID_26_" class="st3" d="M332.1,103.8c1,0,1.9,0.8,2.2,1.7c0.2,1-0.4,1.7-1.3,1.7c-1,0-1.9-0.8-2.2-1.7
		C330.5,104.6,331.1,103.8,332.1,103.8z"/>
	<path id="XMLID_30_" class="st3" d="M14.6,239.1c1,0,1.9,0.8,2.2,1.7c0.2,1-0.4,1.7-1.3,1.7c-1,0-1.9-0.8-2.2-1.7
		C13.1,239.9,13.7,239.1,14.6,239.1z"/>
	<g id="XMLID_874_">
		<g id="XMLID_875_">
			<path id="XMLID_879_" class="st3" d="M416.2,33.9l-61.5-0.6c-4.6,0-8.4,4.3-7.7,8.8l10.8,63.6c0.5,2.9,2.9,5,6,5l61.6,0.7l0,0
				c4.6,0,8.4-4.4,7.6-8.8l-10.8-63.7C421.7,35.9,419.2,33.9,416.2,33.9z"/>
			<path id="XMLID_876_" class="st1" d="M404.3,65.2c-0.3-0.6-0.3-1.2,0-1.7l2.3-2.8c0.6-0.7,0.4-1.9-0.5-2.6l-5.3-4.5
				c-0.8-0.7-2-0.7-2.6,0l-2.3,2.8c-0.4,0.5-1,0.6-1.7,0.3c-0.4-0.2-0.8-0.3-1.2-0.4c-0.6-0.2-1.2-0.8-1.3-1.4L391,51
				c-0.2-1-1.1-1.8-2.2-1.8h-6.4c-1,0-1.7,0.8-1.5,1.8l0.7,3.9c0.1,0.6-0.2,1.2-0.7,1.4c-0.3,0.1-0.7,0.3-1.1,0.5
				c-0.5,0.2-1.2,0.1-1.7-0.3l-3.3-2.8c-0.8-0.7-2-0.7-2.6,0l-3.7,4.5c-0.6,0.7-0.4,1.9,0.5,2.6l3.3,2.8c0.5,0.5,0.8,1.1,0.6,1.7
				c-0.1,0.4-0.2,0.7-0.3,1.1c-0.1,0.6-0.6,1-1.2,1h-3.9c-1,0-1.7,0.8-1.5,1.8l1.1,6.4c0.2,1,1.1,1.8,2.2,1.8h3.9
				c0.6,0,1.2,0.4,1.6,1c0.2,0.4,0.5,0.8,0.7,1.2c0.3,0.6,0.3,1.2,0,1.7l-2.3,2.8c-0.6,0.7-0.4,1.9,0.5,2.6l5.3,4.5
				c0.8,0.7,2,0.7,2.6,0l2.3-2.8c0.4-0.5,1-0.6,1.7-0.3c0.4,0.2,0.8,0.3,1.2,0.5c0.6,0.2,1.2,0.8,1.3,1.4l0.7,3.9
				c0.2,1,1.2,1.8,2.2,1.8h6.4c1,0,1.7-0.8,1.5-1.8l-0.7-3.9c-0.1-0.6,0.2-1.2,0.7-1.4c0.3-0.1,0.7-0.3,1.1-0.5
				c0.5-0.2,1.2-0.1,1.7,0.3l3.3,2.8c0.8,0.7,2,0.7,2.6,0l3.7-4.5c0.6-0.7,0.4-1.9-0.5-2.6l-3.3-2.8c-0.5-0.5-0.8-1.1-0.6-1.7
				c0.1-0.4,0.2-0.7,0.3-1.1c0.1-0.6,0.6-1,1.2-1h3.9c1,0,1.7-0.8,1.5-1.8l-1.2-6.4c-0.2-1-1.1-1.8-2.2-1.8h-5
				C405.5,67.3,404.9,66.1,404.3,65.2z M385.2,63.9c4.9-2,11.3,1.2,13.4,6.8c1.6,4.2-0.1,8.5-3.8,10c-4.9,2-11.3-1.2-13.4-6.8
				C379.9,69.8,381.5,65.5,385.2,63.9z"/>
		</g>
	</g>
	<g id="XMLID_504_">
		<path id="XMLID_1165_" class="st3" d="M725.5,206.5l50.9,0.5c7.3,0.1,13-6.5,11.7-13.7l-8.8-52.8c-1.1-6.5-6.7-11.3-13.3-11.4
			l-50.9-0.5c-7.3-0.1-13,6.5-11.7,13.7l8.8,52.8C713.2,201.7,718.9,206.5,725.5,206.5z"/>
		<g id="XMLID_1147_">
			<path id="XMLID_1148_" class="st1" d="M751.2,174h-8.8l-0.3-4.3c-0.1-1.6,0-2.8,0.4-3.5s1.1-1.9,2.3-3.2l3.6-4
				c0.5-0.7,0.8-1.6,0.7-2.7s-0.4-2-1.1-2.7c-0.7-0.7-1.5-1.1-2.5-1.1s-1.8,0.4-2.4,1.3c-0.6,0.9-0.9,2-1,3.4h-9.2
				c0.2-3.9,1.3-6.9,3.6-9.1c2.2-2.2,5.2-3.3,8.8-3.3s6.6,1,9,2.9c2.4,2,3.7,4.7,4,8.1c0.1,1.5,0,2.7-0.3,3.4
				c-0.3,0.7-0.6,1.3-0.7,1.6c-0.1,0.3-0.5,0.8-1,1.5s-0.9,1.1-1,1.3c-0.9,0.9-1.7,1.8-2.4,2.6c-0.8,0.8-1.3,1.5-1.5,2
				s-0.3,1.3-0.2,2.3L751.2,174z M744.1,185.1c-1.1-1-1.6-2.2-1.7-3.6c-0.1-1.4,0.3-2.6,1.2-3.6s2.1-1.5,3.5-1.5s2.7,0.5,3.7,1.5
				c1.1,1,1.6,2.2,1.7,3.6c0.1,1.4-0.3,2.6-1.2,3.6s-2.1,1.5-3.5,1.5S745.1,186,744.1,185.1z"/>
		</g>
	</g>
</g>
</svg>
