<?xml version="1.0" encoding="utf-8"?>
<!-- Generator: Adobe Illustrator 23.0.1, SVG Export Plug-In . SVG Version: 6.00 Build 0)  -->
<svg version="1.1" id="Online_Education" xmlns="http://www.w3.org/2000/svg" xmlns:xlink="http://www.w3.org/1999/xlink" x="0px"
	 y="0px" viewBox="0 0 957.5 641.4" style="enable-background:new 0 0 957.5 641.4;" xml:space="preserve">
<style type="text/css">
	.st0{fill:#EEF4FC;}
	.st1{fill:url(#XMLID_2_);}
	.st2{fill:url(#XMLID_3_);}
	.st3{fill:none;stroke:#002DAA;stroke-width:2;stroke-linecap:round;stroke-miterlimit:10;}
	.st4{fill:#FF5722;}
	.st5{fill:url(#XMLID_4_);}
	.st6{fill:url(#XMLID_5_);}
	.st7{fill:none;stroke:#002DAA;stroke-width:2;stroke-miterlimit:10;}
	.st8{fill:#002DAA;}
	.st9{fill:#1942B2;}
	.st10{fill:#FF794E;}
	.st11{fill:#FFBCA7;}
	.st12{fill:#002280;}
	.st13{fill:#3357BB;}
	.st14{fill:url(#XMLID_6_);}
	.st15{fill:#1067DB;}
	.st16{fill:#CFE1F8;}
	.st17{fill:#FFFFFF;}
	.st18{opacity:0.3;fill:#002280;enable-background:new    ;}
	.st19{fill:#D1E1FC;}
	.st20{fill:#E1EBFD;}
	.st21{fill:#E3EDFE;}
	.st22{fill:url(#XMLID_7_);}
	.st23{fill:#B3CDFA;}
	.st24{fill:#BF411A;}
	.st25{fill:#802C11;}
	.st26{fill:#9FC2F1;}
	.st27{opacity:0.3;fill:#191C3C;enable-background:new    ;}
</style>
<g id="XMLID_226_">
	<g id="XMLID_505_">
		<path class="st0" d="M935.5,266.9c-6.6-16.7-16.3-32.9-29.3-48.1c-29.9-34.8-75.1-56.5-121-55.7c-65.6,1.1-124.6,1.9-180.3-39.6
			C554.5,86,487.9,56.9,426,44.7c-44.3-8.8-92.6-5.8-131.3,17.6c-40.2,24.3-76,59.8-68.9,109.4c3.7,25.5,11.8,52.3,2.4,76.4
			c-12.3,31.7-49.1,45.2-82.2,53.3c-33,8-70,16.4-88.9,44.7c-18.3,27.4-12.5,65.6,5.5,93.2c17.9,27.7,45.7,47.2,72.9,65.8
			c22.6,15.5,42.7,31.7,62.4,50.6c6.8,6.6,16.4,13.8,21.4,21.8c6.3,10.2,4,24.7,13.1,33.2c9.5,8.8,21.1,2.8,33.8,2.9
			c42.7,0.2,85.4,0.3,128.1,0.5c101.6,0.4,203.3,0.8,304.9,1.2l0,0c13.8,0.1,29.4,3.8,43.1,1.5c19.1-3.1,12.7-3,23.1-17.4
			c13.7-19.1,31-31.3,50.2-44.6C903.4,494.6,976.3,369.9,935.5,266.9z"/>
	</g>
	<g>
		
			<linearGradient id="XMLID_2_" gradientUnits="userSpaceOnUse" x1="67.2957" y1="1363.2522" x2="187.9957" y2="1363.2522" gradientTransform="matrix(1 0 0 -1 0 1953.5145)">
			<stop  offset="0" style="stop-color:#F4F8FF"/>
			<stop  offset="0.2876" style="stop-color:#F1F6FE"/>
			<stop  offset="0.5174" style="stop-color:#E7EFFE"/>
			<stop  offset="0.7273" style="stop-color:#D6E4FC"/>
			<stop  offset="0.924" style="stop-color:#BED4FB"/>
			<stop  offset="1" style="stop-color:#B3CDFA"/>
		</linearGradient>
		<path id="XMLID_633_" class="st1" d="M90.6,567c-12.9,0-23.3,10.5-23.3,23.3c0,12.9,10.5,23.3,23.3,23.3H188v-46.7H90.6V567z"/>
		
			<linearGradient id="XMLID_3_" gradientUnits="userSpaceOnUse" x1="271.7971" y1="1385.2651" x2="272.2185" y2="1339.74" gradientTransform="matrix(1 0 0 -1 0 1953.5145)">
			<stop  offset="0" style="stop-color:#F4F8FF"/>
			<stop  offset="0.2876" style="stop-color:#F1F6FE"/>
			<stop  offset="0.5174" style="stop-color:#E7EFFE"/>
			<stop  offset="0.7273" style="stop-color:#D6E4FC"/>
			<stop  offset="0.924" style="stop-color:#BED4FB"/>
			<stop  offset="1" style="stop-color:#B3CDFA"/>
		</linearGradient>
		<path id="XMLID_627_" class="st2" d="M183.2,613.7c-2.9-7.2-4.5-15.1-4.5-23.3s1.6-16.1,4.5-23.3h181.9
			c-2.9,7.2-4.5,15.1-4.5,23.3c0,8.3,1.6,16.1,4.5,23.3H183.2z"/>
		<path id="XMLID_662_" class="st3" d="M183.2,613.7c-2.9-7.2-4.5-15.1-4.5-23.3s1.6-16.1,4.5-23.3h181.9
			c-2.9,7.2-4.5,15.1-4.5,23.3c0,8.3,1.6,16.1,4.5,23.3H183.2z"/>
		<g id="XMLID_15_">
			<rect id="XMLID_620_" x="158.9" y="564.5" class="st4" width="213.4" height="5"/>
		</g>
		<g id="XMLID_16_">
			<rect id="XMLID_612_" x="158.9" y="611.2" class="st4" width="213.4" height="5"/>
		</g>
		<g id="XMLID_19_">
			<path id="XMLID_607_" class="st4" d="M199.2,616.2H90.6c-14.2,0-25.8-11.6-25.8-25.8s11.6-25.8,25.8-25.8h108.6v5H90.6
				c-11.5,0-20.9,9.4-20.9,20.9s9.4,20.9,20.9,20.9h108.6V616.2z"/>
		</g>
	</g>
	<g id="XMLID_661_">
		
			<linearGradient id="XMLID_4_" gradientUnits="userSpaceOnUse" x1="69.7957" y1="1424.1022" x2="199.9957" y2="1424.1022" gradientTransform="matrix(1 0 0 -1 0 1953.5145)">
			<stop  offset="0" style="stop-color:#F4F8FF"/>
			<stop  offset="0.2876" style="stop-color:#F1F6FE"/>
			<stop  offset="0.5174" style="stop-color:#E7EFFE"/>
			<stop  offset="0.7273" style="stop-color:#D6E4FC"/>
			<stop  offset="0.924" style="stop-color:#BED4FB"/>
			<stop  offset="1" style="stop-color:#B3CDFA"/>
		</linearGradient>
		<path id="XMLID_594_" class="st5" d="M101.4,497.8c-17.5,0-31.6,14.2-31.6,31.6S84,561,101.4,561H200v-63.2H101.4z"/>
		
			<linearGradient id="XMLID_5_" gradientUnits="userSpaceOnUse" x1="242.7163" y1="1453.59" x2="243.28" y2="1392.7009" gradientTransform="matrix(1 0 0 -1 0 1953.5145)">
			<stop  offset="0.289" style="stop-color:#F4F8FF"/>
			<stop  offset="0.4586" style="stop-color:#E1ECFD"/>
			<stop  offset="0.8089" style="stop-color:#C0D5FB"/>
			<stop  offset="1" style="stop-color:#B3CDFA"/>
		</linearGradient>
		<path id="XMLID_593_" class="st6" d="M169,561.1c-3.9-9.8-6.1-20.5-6.1-31.6c0-11.2,2.2-21.9,6.1-31.6h153.8
			c-3.9,9.8-6.1,20.5-6.1,31.6c0,11.2,2.2,21.9,6.1,31.6H169z"/>
		<path id="XMLID_659_" class="st7" d="M169,561.1c-3.9-9.8-6.1-20.5-6.1-31.6c0-11.2,2.2-21.9,6.1-31.6h153.8
			c-3.9,9.8-6.1,20.5-6.1,31.6c0,11.2,2.2,21.9,6.1,31.6H169z"/>
		<g id="XMLID_675_">
			<path id="XMLID_592_" class="st8" d="M199.9,564.5h-98.6c-19.3,0-35-15.7-35-35c0-19.3,15.7-35,35-35h98.6v6.7h-98.6
				c-15.6,0-28.3,12.7-28.3,28.3s12.7,28.3,28.3,28.3h98.6V564.5z"/>
		</g>
		<g id="XMLID_673_">
			<rect id="XMLID_591_" x="194" y="494.5" class="st9" width="138.6" height="6.7"/>
		</g>
		<g id="XMLID_671_">
			<rect id="XMLID_588_" x="194" y="557.7" class="st9" width="138.6" height="6.7"/>
		</g>
		<polygon id="XMLID_534_" class="st4" points="152.6,552.5 138.4,546.2 124.1,552.5 124.1,525.2 152.6,525.2 		"/>
	</g>
	<g id="XMLID_197_">
		<g id="XMLID_451_">
			<g id="XMLID_452_">
				<path id="XMLID_453_" class="st10" d="M625.7,190.2h83.1c15.7,0,28.5-12.8,28.5-28.5l0,0H597.2l0,0
					C597.2,177.4,609.9,190.2,625.7,190.2z"/>
			</g>
		</g>
		<g id="XMLID_448_">
			<g id="XMLID_449_">
				<path id="XMLID_450_" class="st11" d="M625.7,184.1h83.1c13.7,0,25.1-9.6,27.8-22.4h0.7c0,15.7-12.8,28.5-28.5,28.5h-83.1
					c-15.7,0-28.5-12.8-28.5-28.5h0.7C600.6,174.5,612,184.1,625.7,184.1z"/>
			</g>
		</g>
		<g id="XMLID_445_">
			<g id="XMLID_446_">
				<rect id="XMLID_447_" x="763.5" y="161.7" class="st12" width="14.2" height="37"/>
			</g>
		</g>
		<g id="XMLID_436_">
			<g id="XMLID_438_">
				<rect id="XMLID_443_" x="799.8" y="194.4" class="st8" width="14.2" height="37"/>
			</g>
		</g>
		<g id="XMLID_428_">
			<g id="XMLID_429_">
				<rect id="XMLID_432_" x="795.5" y="199" class="st8" width="37" height="14.2"/>
			</g>
		</g>
		<g id="XMLID_425_">
			<g id="XMLID_426_">
				<path id="XMLID_427_" class="st8" d="M575.3,173.6h207.9V137H612C591.7,137,575.3,153.4,575.3,173.6L575.3,173.6z"/>
			</g>
		</g>
		<g id="XMLID_422_">
			<g id="XMLID_423_">
				<path id="XMLID_424_" class="st13" d="M610,151.2c-15.2,0-28.3,9.3-33.8,22.5h-0.8c0-20.2,16.4-36.6,36.6-36.6h171.2v14.2H610
					V151.2z"/>
			</g>
		</g>
		<g id="XMLID_419_">
			<g id="XMLID_420_">
				<path id="XMLID_421_" class="st8" d="M746.2,182.6h71v32.5h-38.5C760.8,215.1,746.2,200.6,746.2,182.6L746.2,182.6z"/>
			</g>
		</g>
		<g id="XMLID_414_">
			<g id="XMLID_416_">
				
					<rect id="XMLID_418_" x="879.2" y="189.7" transform="matrix(0.8472 -0.5313 0.5313 0.8472 -22.6242 514.9624)" class="st8" width="9.4" height="214.2"/>
			</g>
		</g>
		<g id="XMLID_322_">
			<g id="XMLID_323_">
				
					<rect id="XMLID_334_" x="853.2" y="212.2" transform="matrix(0.8485 -0.5292 0.5292 0.8485 -33.2909 500.7351)" class="st8" width="9.4" height="192.7"/>
			</g>
		</g>
		<g id="XMLID_319_">
			<g id="XMLID_320_">
				
					<rect id="XMLID_321_" x="752.2" y="476.1" transform="matrix(0.5312 -0.8472 0.8472 0.5312 -4.5566 953.3873)" class="st8" width="214.2" height="9.4"/>
			</g>
		</g>
		<g id="XMLID_316_">
			<g id="XMLID_317_">
				
					<rect id="XMLID_318_" x="788.9" y="487.7" transform="matrix(0.5293 -0.8484 0.8484 0.5293 -1.155 982.813)" class="st8" width="192.7" height="9.4"/>
			</g>
		</g>
		<g id="XMLID_308_">
			<g id="XMLID_309_">
				<path id="XMLID_315_" class="st8" d="M927.1,400.1c0,8.4,6.8,15.2,15.2,15.2c8.4,0,15.2-6.8,15.2-15.2s-6.8-15.2-15.2-15.2
					S927.1,391.7,927.1,400.1z"/>
			</g>
		</g>
		<g id="XMLID_299_">
			<g id="XMLID_300_">
				<rect id="XMLID_301_" x="905.9" y="384.9" class="st8" width="37.3" height="30.5"/>
			</g>
		</g>
		<g id="XMLID_296_">
			<g id="XMLID_297_">
				<path id="XMLID_298_" class="st13" d="M890.7,400.1c0,8.4,6.8,15.2,15.2,15.2s15.2-6.8,15.2-15.2s-6.8-15.2-15.2-15.2
					S890.7,391.7,890.7,400.1z"/>
			</g>
		</g>
		<g id="XMLID_235_">
			<g id="XMLID_240_">
				<path id="XMLID_295_" class="st8" d="M826.9,567.5c0,8.4,6.8,15.2,15.2,15.2s15.2-6.8,15.2-15.2s-6.8-15.2-15.2-15.2
					C833.8,552.3,826.9,559.1,826.9,567.5z"/>
			</g>
		</g>
		<g id="XMLID_228_">
			<g id="XMLID_229_">
				<rect id="XMLID_233_" x="805.9" y="552.3" class="st8" width="37.3" height="30.5"/>
			</g>
		</g>
		<g id="XMLID_222_">
			<g id="XMLID_224_">
				<ellipse id="XMLID_225_" class="st13" cx="805.8" cy="567.7" rx="15.2" ry="15.2"/>
			</g>
		</g>
		<g id="XMLID_217_">
			<g id="XMLID_219_">
				<path id="XMLID_221_" class="st8" d="M736.6,616.2h170l0,0c0-19.3-15.6-34.9-34.9-34.9H771.5
					C752.2,581.3,736.6,596.9,736.6,616.2L736.6,616.2z"/>
			</g>
		</g>
		<g id="XMLID_204_">
			<g id="XMLID_205_">
				<path id="XMLID_213_" class="st13" d="M736.6,616.2h66v-28.6c0-3.5-2.8-6.3-6.3-6.3h-53.5c-3.5,0-6.3,2.8-6.3,6.3L736.6,616.2
					L736.6,616.2z"/>
			</g>
		</g>
	</g>
	<g id="XMLID_390_">
		
			<linearGradient id="XMLID_6_" gradientUnits="userSpaceOnUse" x1="362.8957" y1="1510.7522" x2="835.9149" y2="1510.7522" gradientTransform="matrix(1 0 0 -1 0 1953.5145)">
			<stop  offset="3.802280e-03" style="stop-color:#E3EDFE"/>
			<stop  offset="0.2686" style="stop-color:#F1F6FF"/>
			<stop  offset="0.6035" style="stop-color:#FCFDFF"/>
			<stop  offset="1" style="stop-color:#FFFFFF"/>
		</linearGradient>
		<path id="XMLID_403_" class="st14" d="M825.1,284.9l-400.4,2.2c-5.9,0-11.4,4.7-12.3,10.6l-49.5,302.9h423.4l49.5-302.7
			c0.6-3.7-1.1-7.3-4.3-9.2L825.1,284.9z"/>
		<path id="XMLID_402_" class="st7" d="M825.1,284.9l-400.4,2.2c-5.9,0-11.4,4.7-12.3,10.6l-49.5,302.9h423.4l49.5-302.7
			c0.6-3.7-1.1-7.3-4.3-9.2L825.1,284.9z"/>
		<path id="XMLID_401_" class="st15" d="M780.8,597.7H357.4l49.5-302.9c1-5.9,6.5-10.6,12.3-10.6h402.1c5.9,0,9.8,4.7,8.9,10.6
			L780.8,597.7z"/>
		<path id="XMLID_400_" class="st3" d="M357.4,597.7l49.5-302.9c1-5.9,6.5-10.6,12.3-10.6h402.1c5.9,0,9.8,4.7,8.9,10.6l-45.5,278.7
			"/>
		<polygon id="XMLID_399_" class="st16" points="377.3,580.6 423,301.3 812.1,301.3 766.5,580.6 		"/>
		<path id="XMLID_398_" class="st17" d="M772.8,616.2H193.7c-9.4,0-17.1-7.7-17.1-17.1l0,0c0-9.4,7.7-17.1,17.1-17.1h579.2
			c9.4,0,17.1,7.7,17.1,17.1l0,0C789.9,608.5,782.2,616.2,772.8,616.2z"/>
		<path id="XMLID_397_" class="st0" d="M772.8,604.2H193.7c-7.3,0-13.5-4.6-16-11.1c-0.7,1.9-1.1,3.9-1.1,6
			c0,9.4,7.7,17.1,17.1,17.1h579.2c9.4,0,17.1-7.7,17.1-17.1c0-2.1-0.4-4.1-1.1-6C786.3,599.6,780.1,604.2,772.8,604.2z"/>
		<path id="XMLID_396_" class="st16" d="M357.6,593.1H319c-7.5,0-14.4-4.3-17.7-11.1l0,0h73.9l0,0
			C372,588.8,365.1,593.1,357.6,593.1z"/>
		<path id="XMLID_395_" class="st7" d="M772.8,616.2H193.7c-9.4,0-17.1-7.7-17.1-17.1l0,0c0-9.4,7.7-17.1,17.1-17.1h579.2
			c9.4,0,17.1,7.7,17.1,17.1l0,0C789.9,608.5,782.2,616.2,772.8,616.2z"/>
		<path id="XMLID_394_" class="st17" d="M772.8,616.2H470.9c-9.4,0-17.1-7.7-17.1-17.1l0,0c0-9.4,7.7-17.1,17.1-17.1h301.9
			c9.4,0,17.1,7.7,17.1,17.1l0,0C789.9,608.5,782.2,616.2,772.8,616.2z"/>
		<path id="XMLID_393_" class="st7" d="M772.8,616.2H470.9c-9.4,0-17.1-7.7-17.1-17.1l0,0c0-9.4,7.7-17.1,17.1-17.1h301.9
			c9.4,0,17.1,7.7,17.1,17.1l0,0C789.9,608.5,782.2,616.2,772.8,616.2z"/>
		<rect id="XMLID_392_" x="733" y="595.2" class="st8" width="26.6" height="7.7"/>
		<rect id="XMLID_391_" x="701.3" y="595.2" class="st8" width="26.6" height="7.7"/>
	</g>
	<g id="XMLID_1255_">
		<path id="XMLID_1273_" class="st15" d="M406.9,168.1l-55.2,0.5c-8,0.1-14.1-7.1-12.7-14.9l9.6-57.3c1.2-7.1,7.3-12.3,14.4-12.3
			l55.2-0.5c8-0.1,14.1,7.1,12.7,14.9l-9.6,57.3C420.2,162.8,414.1,168,406.9,168.1z"/>
		<path id="XMLID_1266_" class="st17" d="M405.9,121.7c0.6-0.5,0.5-1.3-0.1-1.4l-12.9-1.8c-0.1,0-0.2-0.1-0.3-0.1l0,0
			c-0.1-0.1-0.2-0.2-0.2-0.3l-1.7-7.1l0,0l-1.1-4.9c-0.1-0.6-1-0.6-1.4,0l-9.2,12.2c-0.2,0.2-0.4,0.4-0.7,0.4l-13.9,2.1
			c-0.7,0.1-1.2,0.9-0.8,1.4l4.9,6.3l0,0l2.4,3c0.1,0.2,0.2,0.4,0,0.7l-4,9.3l0,0l-0.2,0.4l-1.6,3.6c-0.2,0.5,0,0.9,0.5,0.9
			c0.1,0,0.3,0,0.5-0.1l13.6-6.4c0.3-0.1,0.5-0.1,0.7,0l10.3,6.1c0.5,0.3,1.3-0.2,1.4-0.9l1.2-13.3c0-0.3,0.2-0.5,0.4-0.7
			L405.9,121.7z"/>
	</g>
	<g id="XMLID_522_">
		<g id="XMLID_454_">
			<path id="XMLID_455_" class="st17" d="M162.9,493.7l-5.1-11.9h-23l-5.1,11.9h-13l23.7-54.9h11.9l23.7,54.9H162.9z M146.3,455.1
				l-6.9,15.9h13.7L146.3,455.1z"/>
			<path id="XMLID_458_" class="st17" d="M206.3,493.7h-24v-54.9h21.3c3.7,0,6.9,0.4,9.6,1.3c2.7,0.9,4.7,2.1,6.1,3.6
				c2.5,2.8,3.7,6,3.7,9.6c0,4.3-1.4,7.5-4.2,9.6c-0.9,0.7-1.6,1.2-2,1.4s-1,0.5-2,0.9c3.4,0.7,6.1,2.3,8.1,4.6s3,5.2,3,8.7
				c0,3.8-1.3,7.2-3.9,10.1C219.1,492,213.8,493.7,206.3,493.7z M194.5,461h5.8c3.4,0,5.9-0.4,7.6-1.1c1.6-0.7,2.5-2.3,2.5-4.8
				c0-2.4-0.8-4-2.3-4.8s-4.1-1.2-7.7-1.2h-5.9V461z M194.5,483.3h8.4c3.5,0,6.1-0.4,7.9-1.3c1.8-0.9,2.6-2.6,2.6-5.1
				s-0.9-4.2-2.8-5s-4.8-1.2-8.9-1.2h-7.2V483.3z"/>
			<path id="XMLID_462_" class="st17" d="M261.6,482.8c6,0,10.9-2.4,14.8-7.1l7.9,8.1c-6.2,7-13.6,10.5-22,10.5
				c-8.5,0-15.4-2.7-20.9-8s-8.2-12.1-8.2-20.2c0-8.1,2.8-14.9,8.4-20.4c5.6-5.4,12.4-8.2,20.5-8.2c9,0,16.5,3.4,22.6,10.3l-7.6,8.6
				c-3.9-4.8-8.7-7.2-14.4-7.2c-4.6,0-8.5,1.5-11.8,4.5s-4.9,7.1-4.9,12.2s1.5,9.2,4.6,12.3C253.4,481.3,257.2,482.8,261.6,482.8z"
				/>
		</g>
		<g id="XMLID_173_">
			<path id="XMLID_519_" class="st3" d="M162.9,493.7l-5.1-11.9h-23l-5.1,11.9h-13l23.7-54.9h11.9l23.7,54.9H162.9z M146.3,455.1
				l-6.9,15.9h13.7L146.3,455.1z"/>
			<path id="XMLID_511_" class="st3" d="M206.3,493.7h-24v-54.9h21.3c3.7,0,6.9,0.4,9.6,1.3c2.7,0.9,4.7,2.1,6.1,3.6
				c2.5,2.8,3.7,6,3.7,9.6c0,4.3-1.4,7.5-4.2,9.6c-0.9,0.7-1.6,1.2-2,1.4s-1,0.5-2,0.9c3.4,0.7,6.1,2.3,8.1,4.6s3,5.2,3,8.7
				c0,3.8-1.3,7.2-3.9,10.1C219.1,492,213.8,493.7,206.3,493.7z M194.5,461h5.8c3.4,0,5.9-0.4,7.6-1.1c1.6-0.7,2.5-2.3,2.5-4.8
				c0-2.4-0.8-4-2.3-4.8s-4.1-1.2-7.7-1.2h-5.9V461z M194.5,483.3h8.4c3.5,0,6.1-0.4,7.9-1.3c1.8-0.9,2.6-2.6,2.6-5.1
				s-0.9-4.2-2.8-5s-4.8-1.2-8.9-1.2h-7.2V483.3z"/>
			<path id="XMLID_509_" class="st3" d="M261.6,482.8c6,0,10.9-2.4,14.8-7.1l7.9,8.1c-6.2,7-13.6,10.5-22,10.5
				c-8.5,0-15.4-2.7-20.9-8s-8.2-12.1-8.2-20.2c0-8.1,2.8-14.9,8.4-20.4c5.6-5.4,12.4-8.2,20.5-8.2c9,0,16.5,3.4,22.6,10.3l-7.6,8.6
				c-3.9-4.8-8.7-7.2-14.4-7.2c-4.6,0-8.5,1.5-11.8,4.5s-4.9,7.1-4.9,12.2s1.5,9.2,4.6,12.3C253.4,481.3,257.2,482.8,261.6,482.8z"
				/>
		</g>
	</g>
	<path id="XMLID_681_" class="st18" d="M419.2,283.2c-2.2,0-7.3,0.6-9.2,1.7L399.8,339h30.5c9.6,0,18.7-7.8,20.2-17.4l6.1-38.4
		L419.2,283.2L419.2,283.2z"/>
	<g id="XMLID_43_">
		<path id="XMLID_101_" class="st17" d="M414.2,580.6l51-326.9c1.4-9.2,10.1-16.7,19.3-16.7h269.4c9.2,0,15.5,7.5,14.1,16.7
			l-49.8,326.9L414.2,580.6L414.2,580.6z"/>
		<path id="XMLID_98_" class="st11" d="M714.3,402H467.8c-3.3,0-5.6-2.7-5.1-6l13-82.9c0.5-3.3,3.6-6,6.9-6h246.5
			c3.3,0,5.6,2.7,5.1,6l-13,82.9C720.7,399.3,717.6,402,714.3,402z"/>
		<path id="XMLID_95_" class="st19" d="M515.2,480.3h-61.4c-2.1,0-3.5-1.7-3.2-3.8l8.2-52.6c0.3-2.1,2.3-3.8,4.4-3.8h61.4
			c2.1,0,3.5,1.7,3.2,3.8l-8.2,52.6C519.3,478.6,517.3,480.3,515.2,480.3z"/>
		<path id="XMLID_90_" class="st19" d="M502.3,564.5h-61.4c-2.1,0-3.5-1.7-3.2-3.8l8.2-52.6c0.3-2.1,2.3-3.8,4.4-3.8h61.4
			c2.1,0,3.5,1.7,3.2,3.8l-8.2,52.6C506.3,562.8,504.4,564.5,502.3,564.5z"/>
		<g id="XMLID_160_">
			<path id="XMLID_88_" class="st20" d="M699.4,435H546.1c-0.3,0-0.5-0.2-0.4-0.5l1.1-7.1c0-0.3,0.3-0.5,0.6-0.5h153.3
				c0.3,0,0.5,0.2,0.4,0.5l-1.1,7.1C699.9,434.8,699.7,435,699.4,435z"/>
			<path id="XMLID_21_" class="st20" d="M696.9,453.6H543.6c-0.3,0-0.5-0.2-0.4-0.5l1.1-7.1c0-0.3,0.3-0.5,0.6-0.5h153.3
				c0.3,0,0.5,0.2,0.4,0.5l-1.1,7.1C697.4,453.3,697.2,453.6,696.9,453.6z"/>
			<path id="XMLID_103_" class="st20" d="M629.4,472.1h-88.3c-0.3,0-0.5-0.2-0.4-0.5l1.1-7.1c0-0.3,0.3-0.5,0.6-0.5h88.3
				c0.3,0,0.5,0.2,0.4,0.5l-1.1,7.1C629.9,471.8,629.7,472.1,629.4,472.1z"/>
		</g>
		<g id="XMLID_168_">
			<path id="XMLID_171_" class="st20" d="M686.4,520.7H533.1c-0.3,0-0.5-0.2-0.4-0.5l1.1-7.1c0-0.3,0.3-0.5,0.6-0.5h153.3
				c0.3,0,0.5,0.2,0.4,0.5l-1.1,7.1C686.9,520.5,686.7,520.7,686.4,520.7z"/>
			<path id="XMLID_170_" class="st20" d="M683.9,539.2H530.6c-0.3,0-0.5-0.2-0.4-0.5l1.1-7.1c0-0.3,0.3-0.5,0.6-0.5h153.3
				c0.3,0,0.5,0.2,0.4,0.5l-1.1,7.1C684.4,539,684.2,539.2,683.9,539.2z"/>
			<path id="XMLID_169_" class="st20" d="M616.4,557.7h-88.3c-0.3,0-0.5-0.2-0.4-0.5l1.1-7.1c0-0.3,0.3-0.5,0.6-0.5h88.3
				c0.3,0,0.5,0.2,0.4,0.5l-1.1,7.1C616.9,557.5,616.7,557.7,616.4,557.7z"/>
		</g>
		<path id="XMLID_87_" class="st8" d="M762.1,290.9l5.8-37.2c1.4-9.2-4.9-16.7-14.1-16.7H484.5c-9.2,0-17.9,7.5-19.3,16.7l-5.8,37.2
			H762.1z"/>
		<path id="XMLID_80_" class="st21" d="M502.2,263.9c-0.4,2.6-2.8,4.6-5.3,4.6c-2.6,0-4.3-2.1-3.9-4.6c0.4-2.5,2.8-4.6,5.3-4.6
			C500.9,259.3,502.6,261.4,502.2,263.9z"/>
		<path id="XMLID_79_" class="st17" d="M522.3,263.9c-0.4,2.6-2.8,4.6-5.3,4.6c-2.6,0-4.3-2.1-3.9-4.6c0.4-2.5,2.8-4.6,5.3-4.6
			C521,259.3,522.7,261.4,522.3,263.9z"/>
		<path id="XMLID_56_" class="st21" d="M522.3,263.9c-0.4,2.6-2.8,4.6-5.3,4.6c-2.6,0-4.3-2.1-3.9-4.6c0.4-2.5,2.8-4.6,5.3-4.6
			C521,259.3,522.7,261.4,522.3,263.9z"/>
		<path id="XMLID_53_" class="st21" d="M542.4,263.9c-0.4,2.6-2.8,4.6-5.3,4.6c-2.6,0-4.3-2.1-3.9-4.6c0.4-2.5,2.8-4.6,5.3-4.6
			C541,259.3,542.8,261.4,542.4,263.9z"/>
		<g id="XMLID_557_">
			<g id="XMLID_558_">
				<path id="XMLID_559_" class="st17" d="M619.3,354.8l-37.9,19.9c-2.1,1.1-4.3-0.3-3.9-2.5l6.7-39.9c0.4-2.2,3-3.6,4.7-2.5
					l31.2,19.9C621.9,350.9,621.4,353.7,619.3,354.8l-37.9,19.9c-2.1,1.1-4.3-0.3-3.9-2.5l6.7-39.9c0.4-2.2,3-3.6,4.7-2.5l31.2,19.9
					C621.9,350.9,621.4,353.7,619.3,354.8z"/>
			</g>
		</g>
		<g id="XMLID_808_">
			<g id="XMLID_809_">
				<path id="XMLID_810_" class="st17" d="M501.2,451l-22.7,12c-1.3,0.7-2.6-0.2-2.3-1.5l4-23.9c0.2-1.3,1.8-2.2,2.8-1.5l18.7,12
					C502.7,448.7,502.4,450.3,501.2,451l-22.7,12c-1.3,0.7-2.6-0.2-2.3-1.5l4-23.9c0.2-1.3,1.8-2.2,2.8-1.5l18.7,12
					C502.7,448.7,502.4,450.3,501.2,451z"/>
			</g>
		</g>
		<g id="XMLID_811_">
			<g id="XMLID_814_">
				<path id="XMLID_815_" class="st17" d="M488.3,536.6l-22.7,12c-1.3,0.7-2.6-0.2-2.3-1.5l4-23.9c0.2-1.3,1.8-2.2,2.8-1.5l18.7,12
					C489.8,534.3,489.5,536,488.3,536.6l-22.7,12c-1.3,0.7-2.6-0.2-2.3-1.5l4-23.9c0.2-1.3,1.8-2.2,2.8-1.5l18.7,12
					C489.8,534.3,489.5,536,488.3,536.6z"/>
			</g>
		</g>
	</g>
	<path id="XMLID_718_" class="st18" d="M463,366.8h-67.3L385,431h69.8c3.9,0,7.3-2.8,8-6.7l8.2-48.1
		C471.8,371.3,468,366.8,463,366.8z"/>
	<g id="XMLID_669_">
		<path id="XMLID_680_" class="st15" d="M442.7,419.5H197.9c-5,0-8.8-4.5-8-9.4l8.2-48.1c0.7-3.9,4-6.7,8-6.7h244.8
			c5,0,8.8,4.5,8,9.4l-8.2,48.1C450,416.7,446.7,419.5,442.7,419.5z"/>
		<g id="XMLID_674_">
			<path id="XMLID_679_" class="st17" d="M327.3,386.9h-53.8c-0.5,0-0.9-0.5-0.8-1l0.9-5.1c0.1-0.4,0.4-0.7,0.8-0.7h53.8
				c0.5,0,0.9,0.5,0.8,1l-0.9,5.1C328,386.6,327.7,386.9,327.3,386.9z"/>
			<path id="XMLID_678_" class="st17" d="M380.2,401.5H270.7c-0.5,0-0.9-0.5-0.8-1l0.9-5.1c0.1-0.4,0.4-0.7,0.8-0.7h109.5
				c0.5,0,0.9,0.5,0.8,1l-0.9,5.1C381,401.2,380.7,401.5,380.2,401.5z"/>
			<path id="XMLID_676_" class="st17" d="M408.1,401.5h-20.4c-0.5,0-0.9-0.5-0.8-1l0.9-5.1c0.1-0.4,0.4-0.7,0.8-0.7H409
				c0.5,0,0.9,0.5,0.8,1l-0.9,5.1C408.9,401.2,408.5,401.5,408.1,401.5z"/>
		</g>
		<path id="XMLID_672_" class="st17" d="M248.8,412.9h-44c-4,0-7-3.6-6.3-7.5l6.5-38.2c0.5-3.1,3.2-5.3,6.3-5.3h44
			c4,0,7,3.6,6.3,7.5l-6.5,38.2C254.6,410.6,251.9,412.9,248.8,412.9z"/>
		<g id="XMLID_164_">
			<path id="XMLID_562_" class="st15" d="M237.7,383.5c-0.9-6.5-7-11.8-13.5-11.8s-11,5.3-10.1,11.8s7,11.8,13.5,11.8
				S238.6,390,237.7,383.5z M227,391.2c-4.2,0-8.1-3.4-8.7-7.6c-0.6-4.2,2.3-7.6,6.5-7.6s8.1,3.4,8.7,7.6S231.2,391.2,227,391.2z"/>
			<g id="XMLID_172_">
				
					<rect id="XMLID_561_" x="238.1" y="392.1" transform="matrix(0.6514 -0.7587 0.7587 0.6514 -217.1746 321.03)" class="st15" width="5.4" height="9.5"/>
			</g>
		</g>
	</g>
	<g id="XMLID_715_">
		
			<linearGradient id="XMLID_7_" gradientUnits="userSpaceOnUse" x1="47.3308" y1="1729.7717" x2="-36.1177" y2="1827.1282" gradientTransform="matrix(1 0 0.3041 -1 -29.3222 1953.5145)">
			<stop  offset="0" style="stop-color:#E9F1FE"/>
			<stop  offset="1" style="stop-color:#FFFFFF"/>
		</linearGradient>
		<path id="XMLID_1139_" class="st22" d="M539.3,218.4h-56c-7.8,0-13.2-6.4-12-14.2l8.5-56c1.2-7.8,8.5-14.2,16.4-14.2h56
			c7.8,0,13.2,6.4,12,14.2l-8.5,56C554.5,212,547.2,218.4,539.3,218.4z"/>
		<path id="XMLID_743_" class="st23" d="M556.5,134.8c1.7,2.5,2.6,5.7,2.1,9.2l-8.5,56c-1.2,7.8-8.5,14.2-16.4,14.2h-56
			c-1.6,0-3-0.3-4.3-0.8c2.1,3,5.7,5,10,5h56c7.8,0,15.2-6.4,16.4-14.2l8.5-56C565.2,141.9,561.9,136.7,556.5,134.8z"/>
		<path id="XMLID_712_" class="st11" d="M497.7,176.8h-8.4c-1.2,0-1.9-0.9-1.8-2.1l1.3-8.4c0.2-1.2,1.3-2.1,2.4-2.1h8.4
			c1.2,0,1.9,0.9,1.8,2.1l-1.3,8.4C499.9,175.9,498.8,176.8,497.7,176.8z"/>
		<path id="XMLID_711_" class="st11" d="M517.7,176.8h-8.4c-1.2,0-1.9-0.9-1.8-2.1l1.3-8.4c0.2-1.2,1.3-2.1,2.4-2.1h8.4
			c1.2,0,1.9,0.9,1.8,2.1l-1.3,8.4C520,175.9,518.9,176.8,517.7,176.8z"/>
		<path id="XMLID_710_" class="st11" d="M537.8,176.8h-8.4c-1.2,0-1.9-0.9-1.8-2.1l1.3-8.4c0.2-1.2,1.3-2.1,2.4-2.1h8.4
			c1.2,0,1.9,0.9,1.8,2.1l-1.3,8.4C540,175.9,538.9,176.8,537.8,176.8z"/>
		<path id="XMLID_709_" class="st11" d="M495.3,192.5h-8.4c-1.2,0-1.9-0.9-1.8-2.1l1.3-8.4c0.2-1.2,1.3-2.1,2.4-2.1h8.4
			c1.2,0,1.9,0.9,1.8,2.1l-1.3,8.4C497.5,191.6,496.5,192.5,495.3,192.5z"/>
		<path id="XMLID_700_" class="st11" d="M515.4,192.5H507c-1.2,0-1.9-0.9-1.8-2.1l1.3-8.4c0.2-1.2,1.3-2.1,2.4-2.1h8.4
			c1.2,0,1.9,0.9,1.8,2.1l-1.3,8.4C517.6,191.6,516.5,192.5,515.4,192.5z"/>
		<path id="XMLID_684_" class="st11" d="M535.4,192.5H527c-1.2,0-1.9-0.9-1.8-2.1l1.3-8.4c0.2-1.2,1.3-2.1,2.4-2.1h8.4
			c1.2,0,1.9,0.9,1.8,2.1l-1.3,8.4C537.6,191.6,536.6,192.5,535.4,192.5z"/>
		<path id="XMLID_683_" class="st11" d="M492.9,208.2h-8.4c-1.2,0-1.9-0.9-1.8-2.1l1.3-8.4c0.2-1.2,1.3-2.1,2.4-2.1h8.4
			c1.2,0,1.9,0.9,1.8,2.1l-1.3,8.4C495.1,207.3,494.1,208.2,492.9,208.2z"/>
		<path id="XMLID_682_" class="st11" d="M513,208.2h-8.4c-1.2,0-1.9-0.9-1.8-2.1l1.3-8.4c0.2-1.2,1.3-2.1,2.4-2.1h8.4
			c1.2,0,1.9,0.9,1.8,2.1l-1.3,8.4C515.2,207.3,514.1,208.2,513,208.2z"/>
		<path id="XMLID_670_" class="st11" d="M533,208.2h-8.4c-1.2,0-1.9-0.9-1.8-2.1l1.3-8.4c0.2-1.2,1.3-2.1,2.4-2.1h8.4
			c1.2,0,1.9,0.9,1.8,2.1l-1.3,8.4C535.2,207.3,534.2,208.2,533,208.2z"/>
		<path id="XMLID_1138_" class="st4" d="M554,134h-59.6c-6.8,0-13.2,5.5-14.3,12.4l-2,12.9h84.4l2-12.9
			C565.5,139.5,560.8,134,554,134z"/>
		<path id="XMLID_1137_" class="st24" d="M499.4,145.9c-0.5,3.5-3.8,6.4-7.4,6.4c-3.5,0-6-2.9-5.4-6.4c0.5-3.5,3.9-6.4,7.4-6.4
			C497.5,139.5,500,142.4,499.4,145.9z"/>
		<path id="XMLID_1135_" class="st25" d="M497.4,145.9c-0.4,2.4-2.6,4.4-5.1,4.4c-2.4,0-4.1-2-3.7-4.4c0.4-2.4,2.6-4.4,5.1-4.4
			C496.1,141.5,497.8,143.5,497.4,145.9z"/>
		<path id="XMLID_1133_" class="st24" d="M538.3,145.9c-0.5,3.5-3.8,6.4-7.4,6.4c-3.5,0-6-2.9-5.4-6.4c0.5-3.5,3.9-6.4,7.4-6.4
			S538.9,142.4,538.3,145.9z"/>
		<path id="XMLID_1132_" class="st25" d="M536.3,145.9c-0.4,2.4-2.6,4.4-5.1,4.4c-2.4,0-4.1-2-3.7-4.4c0.4-2.4,2.6-4.4,5.1-4.4
			C535,141.5,536.7,143.5,536.3,145.9z"/>
		<g id="XMLID_1129_">
			<path id="XMLID_1130_" class="st23" d="M531.5,147.5L531.5,147.5c-1.9,0-3.2-1.5-2.9-3.4l1.8-11.6c0.9-6.1,6.2-11.5,12.3-12.1
				c7-0.7,12.1,4.8,11,11.6l-0.3,2.1h-6.9l0.3-1.9c0.4-2.5-1.1-4.8-3.5-5c-2.8-0.3-5.6,1.9-6,4.7l-1.8,12.2
				C535.1,145.9,533.4,147.5,531.5,147.5z"/>
		</g>
		<g id="XMLID_1127_">
			<path id="XMLID_1128_" class="st23" d="M492.6,147.5L492.6,147.5c-1.9,0-3.2-1.5-2.9-3.4l1.8-11.6c0.9-6.1,6.2-11.5,12.3-12.1
				c7-0.7,12.1,4.8,11,11.6l-0.3,2.1h-6.9l0.3-1.9c0.4-2.5-1.1-4.8-3.5-5c-2.8-0.3-5.6,1.9-6,4.7l-1.8,12.2
				C496.2,145.9,494.5,147.5,492.6,147.5z"/>
		</g>
		<path id="XMLID_716_" class="st10" d="M554,134h-6.1c6.8,0,11.5,5.5,10.5,12.4l-2,12.9l5.7,2.9l2.4-15.8
			C565.5,139.5,560.8,134,554,134z"/>
	</g>
	<g id="XMLID_726_">
		<path id="XMLID_744_" class="st8" d="M429.4,326.2H214.6c-5,0-8.8-4.5-8-9.4l19.6-117.7c0.7-3.9,4-6.7,8-6.7H449
			c5,0,8.8,4.5,8,9.4l-19.6,117.7C436.7,323.4,433.4,326.2,429.4,326.2z"/>
		<g id="XMLID_736_">
			<path id="XMLID_742_" class="st26" d="M341.4,224h-53.8c-0.5,0-0.9-0.5-0.8-1l0.9-5.1c0.1-0.4,0.4-0.7,0.8-0.7h53.8
				c0.5,0,0.9,0.5,0.8,1l-0.9,5.1C342.1,223.7,341.8,224,341.4,224z"/>
			<path id="XMLID_741_" class="st26" d="M394.3,238.6H284.8c-0.5,0-0.9-0.5-0.8-1l0.9-5.1c0.1-0.4,0.4-0.7,0.8-0.7h109.5
				c0.5,0,0.9,0.5,0.8,1l-0.9,5.1C395.1,238.3,394.7,238.6,394.3,238.6z"/>
			<path id="XMLID_740_" class="st11" d="M422.2,238.6h-20.4c-0.5,0-0.9-0.5-0.8-1l0.9-5.1c0.1-0.4,0.4-0.7,0.8-0.7h20.4
				c0.5,0,0.9,0.5,0.8,1l-0.9,5.1C423,238.3,422.6,238.6,422.2,238.6z"/>
		</g>
		<path id="XMLID_733_" class="st15" d="M341.8,310.3h-114c-4,0-7-3.6-6.3-7.5l6.5-38.2c0.5-3.1,3.2-5.3,6.3-5.3h114
			c4,0,7,3.6,6.3,7.5l-6.5,38.2C347.6,308.1,344.9,310.3,341.8,310.3z"/>
		<g id="XMLID_745_">
			
				<ellipse id="XMLID_1141_" transform="matrix(0.7465 -0.6654 0.6654 0.7465 -84.583 226.096)" class="st17" cx="254.4" cy="224.1" rx="19.9" ry="15.8"/>
			<path id="XMLID_728_" class="st8" d="M253.8,225.1L253.8,225.1c-0.5,0-0.8-0.4-0.7-0.8l2.2-9.7c0.1-0.5,0.6-0.8,1-0.8l0,0
				c0.5,0,0.8,0.4,0.7,0.8l-2.2,9.7C254.7,224.7,254.2,225.1,253.8,225.1z"/>
			<path id="XMLID_727_" class="st8" d="M262.3,224.3L262.3,224.3c0.1-0.5-0.2-0.8-0.7-0.8h-7.5c-0.5,0-0.9,0.4-1,0.8l0,0
				c-0.1,0.5,0.2,0.8,0.7,0.8h7.5C261.7,225.1,262.2,224.7,262.3,224.3z"/>
		</g>
	</g>
	<g id="XMLID_729_">
		<path id="XMLID_730_" class="st18" d="M206.2,355.3c-3.9,0-7.3,2.8-8,6.7l-5.4,31.2h36c9.6,0,18.7-7.8,20.2-17.4l3.3-20.5H206.2z"
			/>
		<path id="XMLID_756_" class="st18" d="M206.7,316.8c-0.8,4.9,3,9.4,8,9.4h42.2l7.8-48.9l0,0l0.7-4.7c1.1-7-3.7-12.7-10.7-12.7
			h-38.6L206.7,316.8z"/>
	</g>
	<g id="XMLID_530_">
		<path id="XMLID_586_" class="st17" d="M208.3,377.7H90.4c-9.6,0-16.2-7.8-14.7-17.4l15.6-98.4c1.5-9.6,10.6-17.4,20.2-17.4h117.9
			c9.6,0,16.2,7.8,14.7,17.4l-15.6,98.4C227,369.9,217.9,377.7,208.3,377.7z"/>
		<path id="XMLID_578_" class="st8" d="M234.2,244.4H106.8c-7,0-13.6,5.7-14.7,12.7l-2.3,14.5h152.8l2.3-14.5
			C246,250.1,241.2,244.4,234.2,244.4z"/>
		<path id="XMLID_576_" class="st17" d="M111.5,258c-0.2,1.3-1.4,2.3-2.7,2.3s-2.2-1-2-2.3s1.4-2.3,2.7-2.3S111.7,256.8,111.5,258z"
			/>
		<path id="XMLID_572_" class="st17" d="M121.6,258c-0.2,1.3-1.4,2.3-2.7,2.3s-2.2-1-2-2.3s1.4-2.3,2.7-2.3S121.8,256.8,121.6,258z"
			/>
		<path id="XMLID_568_" class="st17" d="M121.6,258c-0.2,1.3-1.4,2.3-2.7,2.3s-2.2-1-2-2.3s1.4-2.3,2.7-2.3S121.8,256.8,121.6,258z"
			/>
		<path id="XMLID_567_" class="st17" d="M131.7,258c-0.2,1.3-1.4,2.3-2.7,2.3c-1.3,0-2.2-1-2-2.3s1.4-2.3,2.7-2.3
			C131,255.7,131.9,256.8,131.7,258z"/>
		<g id="XMLID_589_">
			<polygon id="XMLID_566_" class="st8" points="149.8,324.6 132.4,333.5 129.7,372.7 168.3,372.7 180.3,334.5 164,324.6 			"/>
			<polygon id="XMLID_565_" class="st17" points="163.9,325 154.8,338 149.7,325 151.2,315.8 165.4,315.8 			"/>
			<g id="XMLID_563_">
				<path class="st8" d="M174.6,296.6c0-0.6-0.2-1.2-0.4-1.7c-0.4-1.1-0.8-2.3-1.2-3.4c-0.7-2-1.8-1.8-3.6-2.4
					c-1.6-0.5-3-1.7-4.8-1.8c-1.1,0-2.3,0.4-3.4,0.9c-0.5,0.2-0.9,0.5-1.4,0.6c-0.8,0.2-1.6,0-2.4,0c-1.9,0.1-3.9,1.5-4.7,3.3
					c-0.1,0.3-0.2,0.6-0.4,0.9c-0.2,0.2-0.4,0.4-0.6,0.6c-2.8,2.3-2,6.2-2.1,9.1c0,1.6-0.5,3.3,0.6,4.5l-0.6-0.2
					c1.3,1.6,3.4,2.5,5.5,2.9c2.2,0.4,4.4,0.4,6.7,0.4c2.7,0,5.4-0.1,8.2-0.1c0.5,0,1.1,0,1.5-0.3c0.5-0.4,0.7-1,0.9-1.6
					c0.9-3.1,1.1-6.2,1.9-9.3C174.4,298.2,174.6,297.4,174.6,296.6z"/>
			</g>
			<path id="XMLID_556_" class="st27" d="M150.3,321.1l1.4,3.5c0.9,2.3,3.1,3.7,5.8,3.7c2.3,0,4.7-1.1,6.4-3l1.5-9.5h-14.2
				L150.3,321.1z"/>
			<path id="XMLID_555_" class="st17" d="M152.3,301.5l-1.7,10.8c-0.4,2.4-0.1,4.8,0.8,7l1.5,3.6c0.9,2.3,3.1,3.7,5.8,3.7l0,0
				c2.6,0,5.2-1.3,6.8-3.5l0.5-0.7c1.7-2.2,2.8-4.7,3.2-7.2l1.7-10.4l1.5-9.6h-18.8L152.3,301.5z"/>
			<path id="XMLID_552_" class="st17" d="M150.9,313.9l-2.1-0.9c0,0-2.1-3.2-0.9-5.6c0,0,0.9-2,2.3-1.3l2,1.9L150.9,313.9z"/>
			<path id="XMLID_551_" class="st17" d="M168.8,314l2.4-1.1c0,0,2.8-3.4,2.1-5.6c0,0-0.5-1.9-2.1-1.1l-2.5,2.1L168.8,314z"/>
			<g id="XMLID_533_">
				<path id="XMLID_603_" class="st8" d="M151.3,314.7l-2.9-1.3l-0.1-0.1c-0.1-0.1-2.2-3.5-0.9-6.1c0.1-0.1,0.6-1.3,1.6-1.7
					c0.5-0.2,1-0.1,1.5,0.1l0.1,0.1l2.2,2.1L151.3,314.7z M149.1,312.5l1.3,0.6l1.1-4.9l-1.7-1.7c-0.2-0.1-0.4-0.1-0.5,0
					c-0.5,0.2-0.9,0.9-1,1.1C147.4,309.5,148.8,311.9,149.1,312.5z"/>
			</g>
			<g id="XMLID_531_">
				<path id="XMLID_600_" class="st8" d="M168.3,314.8l-0.1-6.9l2.7-2.4c0.8-0.4,1.4-0.3,1.7-0.2c0.9,0.4,1.2,1.4,1.2,1.6
					c0.8,2.5-2.1,6-2.2,6.1l-0.2,0.1L168.3,314.8z M169.3,308.5l0.1,4.6l1.5-0.7c0.8-0.9,2.4-3.5,2-5c-0.1-0.2-0.3-0.7-0.6-0.9
					c-0.2-0.1-0.4,0-0.7,0.1L169.3,308.5z"/>
			</g>
			<g id="XMLID_549_">
				<path class="st8" d="M151.4,303.3c-0.1,1.7-0.1,3.4-0.4,5.1c-0.1,0.7-0.7,2.6,0.8,2.1c0.4-0.1,0.7-0.7,0.8-1.1
					c0.4-1.6-0.8-3,0.2-4.6c0.7-1.1,2.2-1.8,2.6-3.1c0.3-0.9,0-1.8,0-2.7c0-0.7,0.3-1.5,0.8-2c0.5-0.6,1.4-0.8,2-0.6
					s0.9,0.9,1.3,1.3c1,1.1,2.7,1.5,4.3,0.9c1-0.4,1.8-1,2.7-1.5c0.9-0.5,2-0.9,2.9-0.6c1.3,0.4,1.6,2,1.7,3.3
					c0.1,1.4,0.1,3.2-0.3,4.6c-0.3,1.2-1.2,2.3-1.7,3.5c-0.1,0.3-0.2,0.6-0.3,0.9c-0.1,0.5,0.2,1,0.4,1.5c0,0.1,0.1,0.1,0.1,0.2
					c0.1,0,0.2,0,0.3-0.1c0.9-0.7,1.3-1.9,1.7-2.9c0.5-1.4,1.1-2.3,1-3.8c-0.1-2.9,1.1-5.9,1.1-8.8c0-0.3,0-0.6-0.2-0.8
					c-0.2-0.3-0.5-0.4-0.8-0.5c-3.9-1.4-8.4-1.3-12.7-1.1c-1.5,0.1-3.2,0.1-4.6,0.9c-1.7,0.9-2.8,2.7-3.3,4.5
					C151.5,299.7,151.5,301.5,151.4,303.3z"/>
			</g>
			<path id="XMLID_548_" class="st17" d="M105.5,356.7l-0.3-1.8L88,342.6l0,0c1.3-1.1,3-1.3,4.2-0.5l3.4,2.4l1.4-0.3
				c1.1-0.2,2.3,0,3.1,0.6l1.7,1.2l6,1.9c1.6,0.5,2.8,1.8,3.2,3.4l0.8,3.5L105.5,356.7z"/>
			<path id="XMLID_543_" class="st17" d="M198.1,356.7l0.9-1.8l21.1-12.3l0,0c-0.9-1.1-2.6-1.3-4.1-0.5l-4.2,2.4l-1.3-0.3
				c-1.1-0.2-2.3,0-3.3,0.6l-2.1,1.2l-6.6,1.9c-1.8,0.5-3.4,1.8-4.3,3.4l-1.9,3.5L198.1,356.7z"/>
			<g id="XMLID_528_">
				<path id="XMLID_597_" class="st8" d="M105,357.4l-0.4-2.2L87,342.7l0.5-0.5c1.5-1.3,3.5-1.5,4.9-0.5l3.2,2.2l1.2-0.2
					c1.3-0.3,2.6,0,3.6,0.7l1.6,1.2l6,1.9c1.8,0.6,3.1,2,3.5,3.9l0.9,4L105,357.4z M88.8,342.7l16.8,11.9l0.3,1.4l5.3-1.5l-0.7-3
					c-0.3-1.5-1.3-2.6-2.8-3l-6.2-2l-1.7-1.2c-0.7-0.5-1.7-0.7-2.7-0.5l-1.6,0.3l-3.6-2.5C91,342.1,89.8,342.1,88.8,342.7z"/>
			</g>
			<g id="XMLID_523_">
				<path id="XMLID_583_" class="st8" d="M198.4,357.4l-6.8-2.2l2.2-4.1c1-1.8,2.6-3.2,4.6-3.7l6.6-1.9l2-1.2
					c1.2-0.7,2.5-0.9,3.7-0.6l1.1,0.3l4-2.3c1.7-1,3.7-0.7,4.8,0.6l0.4,0.5l-21.5,12.5L198.4,357.4z M193.2,354.6l4.7,1.5l0.8-1.5
					l20.6-12c-0.8-0.5-1.9-0.5-2.9,0.1l-4.4,2.5l-1.5-0.3c-0.9-0.2-2,0-2.9,0.5l-2.2,1.3l-6.6,1.9c-1.6,0.5-3.1,1.7-3.9,3.2
					L193.2,354.6z"/>
			</g>
			<path id="XMLID_542_" class="st8" d="M149.8,324.6l-20.5,10.5c-3.6,1.9-6.4,5.3-7.2,9.1l-4.8,20.5l-4.5-10l-8.5,2.4l4.7,16
				l15.8-0.3l7.9-21.8l16.1-19.3L149.8,324.6z"/>
			<path id="XMLID_541_" class="st8" d="M164,324.6l17.2,10.5c3,1.9,4.7,5.3,4.4,9.1l-1.7,20.5l7.7-10l7.7,2.4l-9.8,16l-15.7-0.3
				l-0.9-21.9l-10-19.3L164,324.6z"/>
			<polygon id="XMLID_540_" class="st23" points="149.8,324.6 145.2,326.9 147.4,344.5 154.8,338 			"/>
			<polygon id="XMLID_539_" class="st23" points="164,324.6 167.8,326.9 160.1,344.5 154.8,338 			"/>
			<g id="XMLID_537_">
				<path class="st8" d="M155.2,316.7c-0.3,0.5-0.5,1.1-0.9,1.6s-1,1-1.5,0.8c-0.6-0.2-0.7-1-0.7-1.7c0-1.9,0.8-3.6,0.5-5.5
					c-0.1-0.5-0.2-0.9-0.2-1.4s0.2-0.9,0.1-1.4c0-0.4-0.3-0.9-0.7-0.9c-0.4,0-0.8,0.4-0.9,0.8c-0.2,0.4-0.1,0.8-0.1,1.2
					c0.1,2,0,3.9-0.5,5.9s0,3.9,0.3,5.7c0.1,0.6,0.3,1.3,0.5,1.9c0.7,1.5,2.2,2.4,3.8,2.8c1.6,0.4,3.4,0.5,5.1,0.5
					c1.1,0,2.3,0,3.4-0.4c3.3-1.3,5.1-7,5.9-9.9c0.4-1.3,0.2-2.3,0.3-3.6c0.1-1.4,0.9-3.1,1.3-4.5c0.1-0.2,0.1-0.4,0-0.5
					c-0.1-0.2-0.5-0.1-0.5-0.4c-0.6,0.5-1.2,1-1.4,1.7c-0.1,0.3-0.2,0.6-0.2,0.9c-0.2,1.3-0.3,2.4-0.8,3.6c-0.6,1.4-1.2,2.7-1.6,4.2
					c-0.2,0.7-0.5,1.5-1.2,1.6c-0.5,0.1-1-0.3-1.1-0.8s0-1,0.1-1.6c0.1-0.5,0.1-1.1-0.2-1.5c-0.4-0.6-1.2-0.7-1.9-0.7
					C159.8,315.1,156.9,314.1,155.2,316.7z"/>
			</g>
			<path id="XMLID_529_" class="st17" d="M155.3,318.2h1.5c0.6,0,1.1-0.2,1.6-0.6l1-0.8l0.9,0.8c0.4,0.3,0.8,0.5,1.4,0.5h1.4
				c0,0-0.7,4.2-4.9,4.1C155.2,322.2,155.9,320.5,155.3,318.2z"/>
			<polygon id="XMLID_527_" class="st17" points="104.2,357.1 112.7,354.7 114.2,358 105.2,360.5 			"/>
			<polygon id="XMLID_526_" class="st17" points="199.4,357.1 191.7,354.7 189.1,358 197.3,360.5 			"/>
		</g>
		<g id="XMLID_532_">
			<path id="XMLID_525_" class="st4" d="M116.4,292c-0.7,4.6-5.1,8.4-9.7,8.4s-7.8-3.8-7.1-8.4c0.7-4.6,5.1-8.4,9.7-8.4
				C114,283.6,117.2,287.4,116.4,292z"/>
			<polygon id="XMLID_524_" class="st17" points="110.3,292 105.3,294.7 106.1,289.4 			"/>
		</g>
	</g>
	<g id="XMLID_731_">
		<path id="XMLID_768_" class="st17" d="M798.9,616.2h-26.3c-12.8,0-23.3-10.4-23.3-23.3v-81.6h72.8v81.6
			C822.1,605.8,811.7,616.2,798.9,616.2z"/>
		<g id="XMLID_767_">
			<path class="st0" d="M787,561.6c3.5-2.1,7.2-5.5,6.6-9.6c-0.3-2.4-2-4.3-3.8-5.9c-10.3-9.3-16.1-13.1-21.8-26.3
				c-6.5,3.4-10.7,10.3-12.7,17.5s-2.1,14.8-2.1,22.3c-0.1,16.9-3,49.9,22.7,47.9c4.5-0.3,9.4-1.7,11.6-5.7c1.7-3.1,1.4-6.9,1-10.5
				c-1-8.1-2.8-17.6-9.9-21.2C779.4,566.1,783.5,563.7,787,561.6z"/>
		</g>
		<path id="XMLID_766_" class="st8" d="M757.5,451.3L757.5,451.3c-3,0-5.4,2.5-5.4,5.6l10.5,54.9h10.8l-10.5-54.9
			C762.9,453.8,760.5,451.3,757.5,451.3z"/>
		<path id="XMLID_765_" class="st4" d="M815.3,451.3L815.3,451.3c3,0,5.4,2.5,5.4,5.6l-10.6,54.9h-10.8l10.5-54.9
			C809.9,453.8,812.3,451.3,815.3,451.3z"/>
		<polygon id="XMLID_764_" class="st17" points="808.5,464.1 807.8,467.3 818.7,467.3 819.3,464.1 		"/>
		<polygon id="XMLID_763_" class="st17" points="807.1,471.6 806.4,474.8 817.2,474.8 817.8,471.6 		"/>
		<path id="XMLID_762_" class="st4" d="M777.1,451.3h-1.9c-2.4,0-4.4,2-4.4,4.4v56.1h10.8v-56.1
			C781.5,453.3,779.5,451.3,777.1,451.3z"/>
		<path id="XMLID_761_" class="st8" d="M798.1,451.3h-1.9c-2.4,0-4.4,2-4.4,4.4v56.1h10.8v-56.1
			C802.5,453.3,800.5,451.3,798.1,451.3z"/>
		<path id="XMLID_760_" class="st15" d="M789.7,445.4L789.7,445.4c-3,0-5.4,2.5-5.4,5.6l-5.3,60.9h10.8l5.3-60.9
			C795.1,447.9,792.7,445.4,789.7,445.4z"/>
		<path id="XMLID_759_" class="st7" d="M798.9,616.2h-26.3c-12.8,0-23.3-10.4-23.3-23.3v-81.6h72.8v81.6
			C822.1,605.8,811.7,616.2,798.9,616.2z"/>
	</g>
	<line id="XMLID_13_" class="st3" x1="27.7" y1="616.2" x2="956.6" y2="616.2"/>
	<g id="XMLID_1203_">
		
			<ellipse id="XMLID_1213_" transform="matrix(0.748 -0.6637 0.6637 0.748 -220.2708 338.659)" class="st4" cx="335.8" cy="459.4" rx="19.7" ry="15.5"/>
		<g id="XMLID_1211_">
			<polygon id="XMLID_1212_" class="st17" points="331.8,466.5 327.2,460.4 331.5,456.9 333.5,459.5 342.5,452.3 345.1,455.8 			"/>
		</g>
	</g>
</g>
</svg>
