<?xml version="1.0" encoding="utf-8"?>
<!-- Generator: Adobe Illustrator 23.0.1, SVG Export Plug-In . SVG Version: 6.00 Build 0)  -->
<svg version="1.1" id="Layer_1" xmlns="http://www.w3.org/2000/svg" xmlns:xlink="http://www.w3.org/1999/xlink" x="0px" y="0px"
	 viewBox="0 0 512 512" style="enable-background:new 0 0 512 512;" xml:space="preserve">
<style type="text/css">
	.st0{fill:#007BFF;}
</style>
<g>
	<g>
		<path class="st0" d="M82.4,38l21.2-21.2L124.8,38l-21.2,21.2L82.4,38z"/>
	</g>
	<g>
		<path class="st0" d="M82.4,178l21.2-21.2l21.2,21.2l-21.2,21.2L82.4,178z"/>
	</g>
	<g>
		<path class="st0" d="M22.4,108l21.2-21.2L64.8,108l-21.2,21.2L22.4,108z"/>
	</g>
	<g>
		<path class="st0" d="M387.1,38l21.2-21.2L429.5,38l-21.2,21.2L387.1,38z"/>
	</g>
	<g>
		<path class="st0" d="M387.1,178l21.2-21.2l21.2,21.2l-21.2,21.2L387.1,178z"/>
	</g>
	<g>
		<path class="st0" d="M447.1,108l21.2-21.2l21.2,21.2l-21.2,21.2L447.1,108z"/>
	</g>
	<path class="st0" d="M311.3,40.7H200.7h-50v32.6c0,33.5,24.7,61.3,56.8,66.2c7.1,12.8,19.1,22.5,33.5,26.6v32.3h-15v30h60v-30h-15
		v-32.3c14.4-4.1,26.4-13.8,33.5-26.6c32.1-4.9,56.8-32.7,56.8-66.2V40.7L311.3,40.7z M180.7,73.4v-2.6h20v35.5
		C188.8,100,180.7,87.6,180.7,73.4z M331.3,73.4c0,14.3-8.1,26.7-20,32.8V70.7h20V73.4z"/>
	<path class="st0" d="M0,350.4h139.1v144.8H0V350.4z"/>
	<path class="st0" d="M372.9,350.4H512v144.8H372.9V350.4z"/>
	<path class="st0" d="M169.1,263.6h173.9v231.6H169.1V263.6z"/>
</g>
</svg>
