<?xml version="1.0" encoding="utf-8"?>
<!-- Generator: Adobe Illustrator 23.0.1, SVG Export Plug-In . SVG Version: 6.00 Build 0)  -->
<svg version="1.1" id="Capa_1" xmlns="http://www.w3.org/2000/svg" xmlns:xlink="http://www.w3.org/1999/xlink" x="0px" y="0px"
	 viewBox="0 0 51.9 51.9" style="enable-background:new 0 0 51.9 51.9;" xml:space="preserve">
<style type="text/css">
	.st0{fill:#007BFF;}
</style>
<g>
	<g>
		<path class="st0" d="M46,17.5l-3.4,3.4c0.9,2.2,1.4,4.6,1.4,7.1c0,10.7-8.7,19.4-19.4,19.4S5.1,38.7,5.1,28
			c0-10.7,8.7-19.4,19.4-19.4c1.7,0,3.4,0.2,5,0.6l3.6-3.6c-2.7-1-5.5-1.6-8.6-1.6C11.3,4.1,0.6,14.8,0.6,28
			c0,13.2,10.7,23.9,23.9,23.9c13.2,0,23.9-10.7,23.9-23.9C48.4,24.2,47.6,20.7,46,17.5z"/>
	</g>
</g>
<g>
	<g>
		<path class="st0" d="M36.1,21.7l-2.4,2.6c0.3,1,0.5,2,0.5,3.1c0,5.3-4.4,9.7-9.7,9.7s-9.7-4.3-9.7-9.7c0-5.3,4.3-9.7,9.7-9.7
			c0.9,0,1.8,0.1,2.6,0.4l2.4-2.6c-1.6-0.7-3.3-1-5.1-1c-7.1,0-12.9,5.8-12.9,12.9s5.8,12.9,12.9,12.9c7.1,0,12.9-5.8,12.9-12.9
			C37.4,25.3,37,23.4,36.1,21.7z"/>
	</g>
</g>
<g>
	<g>
		<path class="st0" d="M46.1,7.4l2.7-2.8l-2.3-2.3l-2.5,2.6L43.4,0L32.3,11.1v5.8l-7.1,7.3c-0.2,0-0.4-0.1-0.7-0.1
			c-1.8,0-3.2,1.4-3.2,3.2s1.4,3.2,3.2,3.2s3.2-1.4,3.2-3.2c0-0.3-0.1-0.7-0.2-1l7.1-7.4h5.5L51.3,7.9L46.1,7.4z"/>
	</g>
</g>
</svg>
