<?xml version="1.0" encoding="utf-8"?>
<!-- Generator: Adobe Illustrator 23.0.1, SVG Export Plug-In . SVG Version: 6.00 Build 0)  -->
<svg version="1.1" id="Слой_1" xmlns="http://www.w3.org/2000/svg" xmlns:xlink="http://www.w3.org/1999/xlink" x="0px" y="0px"
	 viewBox="0 0 512 512" style="enable-background:new 0 0 512 512;" xml:space="preserve">
<style type="text/css">
	.st0{fill:#007BFF;}
</style>
<g id="_23-teamwork">
	<g id="Glyph">
		<circle class="st0" cx="405.3" cy="192" r="64"/>
		<circle class="st0" cx="106.7" cy="192" r="64"/>
		<circle class="st0" cx="256" cy="149.3" r="85.3"/>
		<path class="st0" d="M469.3,277.3h-75.5c7.5,13,11.5,27.7,11.5,42.7v149.3h85.3c11.8,0,21.3-9.6,21.3-21.3V320
			C512,296.4,492.9,277.3,469.3,277.3z"/>
		<path class="st0" d="M118.1,277.3H42.7C19.1,277.3,0,296.4,0,320v128c0,11.8,9.6,21.3,21.3,21.3h85.3V320
			C106.7,305,110.6,290.3,118.1,277.3z"/>
		<path class="st0" d="M320,234.7h-21.3l-42.7,128l-42.7-128H192c-35.3,0-64,28.7-64,64v192c0,11.8,9.6,21.3,21.3,21.3h213.3
			c11.8,0,21.3-9.6,21.3-21.3v-192C384,263.3,355.3,234.7,320,234.7z"/>
	</g>
</g>
</svg>
